<?xml version="1.0" standalone="no"?>
<!DOCTYPE svg PUBLIC "-//W3C//DTD SVG 1.1//EN" "http://www.w3.org/Graphics/SVG/1.1/DTD/svg11.dtd" >
<svg xmlns="http://www.w3.org/2000/svg" xmlns:xlink="http://www.w3.org/1999/xlink" version="1.1">
<metadata>
Created by FontForge 20170731 at Mon Oct 23 17:02:33 2017
 By Aleksey,,,
Copyright 2013 The Alegreya Sans Project Authors (https://github.com/huertatipografica/Alegreya-Sans)
</metadata>
<defs>
<font id="AlegreyaSansSC-LightItalic" horiz-adv-x="0" >
  <font-face 
    font-family="Alegreya Sans SC Light"
    font-weight="300"
    font-style="italic"
    font-stretch="normal"
    units-per-em="1000"
    panose-1="0 0 4 0 0 0 0 0 0 0"
    ascent="800"
    descent="-200"
    x-height="494"
    cap-height="639"
    bbox="-377 -264 1228 980"
    underline-thickness="29"
    underline-position="-215"
    slope="-7"
    unicode-range="U+000D-FB02"
  />
<missing-glyph horiz-adv-x="173" 
 />
    <glyph glyph-name="Idieresis" unicode="&#xa8;I" horiz-adv-x="247" 
d="M143 197l-23 -197h-49l27 194l53 445h49zM158 808q8 -8 8 -22q0 -15 -8.5 -24t-22.5 -9t-22.5 8.5t-8.5 22.5q0 15 9 23.5t23 8.5t22 -8zM271.5 808q8.5 -8 8.5 -22q0 -15 -8.5 -24t-22.5 -9q-15 0 -23 8.5t-8 22.5q0 15 8.5 23.5t23.5 8.5q13 0 21.5 -8z" />
    <glyph glyph-name="Odieresis" unicode="&#xa8;O" horiz-adv-x="605" 
d="M521.5 578.5q57.5 -66.5 57.5 -187.5q0 -122 -36 -211.5t-105.5 -137.5t-166.5 -48q-105 0 -162.5 68t-57.5 192q0 121 36 209t105 135t166 47q106 0 163.5 -66.5zM165.5 512.5q-64.5 -90.5 -64.5 -254.5q0 -108 44.5 -165t129.5 -57q123 0 188.5 91.5t65.5 256.5
q0 108 -44.5 163.5t-131.5 55.5q-123 0 -187.5 -90.5zM315 807.5q8 -7.5 8 -21.5t-8.5 -22.5t-22.5 -8.5t-21.5 8t-7.5 22t8.5 22t22.5 8q13 0 21 -7.5zM472 807q8 -8 8 -21q0 -14 -8.5 -22.5t-22.5 -8.5t-21.5 8t-7.5 22t8 22t22 8t22 -8z" />
    <glyph glyph-name="Yacute" unicode="&#xb4;Y" horiz-adv-x="486" 
d="M258 239l-7 -48l-22 -191h-48l26 191l6 47l-142 401h53l7 -31l109 -312h6l200 311l16 32h54zM403 847l13 -28l-2 -7q-80 -41 -184 -89l-7 3l-11 25q85 40 184 98z" />
    <glyph glyph-name="idieresis" unicode="&#xa8;i" horiz-adv-x="243" 
d="M136 663q8 -8 8 -22q0 -15 -8.5 -24t-22.5 -9t-22.5 8.5t-8.5 22.5q0 15 9 23.5t23 8.5t22 -8zM250 663q8 -8 8 -22q0 -15 -8.5 -24t-22.5 -9q-15 0 -23 8.5t-8 22.5q0 15 8.5 23.5t23.5 8.5q14 0 22 -8zM133 154l-18 -154h-46l21 150l41 344h46z" />
    <glyph glyph-name="odieresis" unicode="&#xa8;o" horiz-adv-x="536" 
d="M261.5 662.5q7.5 -7.5 7.5 -21.5t-8.5 -22.5t-22.5 -8.5t-21.5 8t-7.5 22t8.5 22t22.5 8t21.5 -7.5zM418 662q8 -8 8 -21q0 -14 -8.5 -22.5t-22.5 -8.5t-21.5 8t-7.5 22t8 22t22 8t22 -8zM443.5 446.5q48.5 -52.5 48.5 -152.5q0 -90 -30 -157.5t-87.5 -104.5t-136.5 -37
q-90 0 -138.5 53.5t-48.5 155.5q0 137 67 216t187 79q90 0 138.5 -52.5zM150.5 394q-51.5 -65 -51.5 -186q0 -88 35 -130.5t107 -42.5q98 0 150.5 66t52.5 187q0 86 -36 128.5t-109 42.5q-97 0 -148.5 -65z" />
    <glyph glyph-name="yacute" unicode="&#xb4;y" horiz-adv-x="443" 
d="M199 558l-16 22q79 66 155 141l6 -1l20 -25l-2 -6q-58 -52 -156 -132zM231 180l-5 -34l-18 -146h-45l21 146l4 35l-121 313h51l6 -24l90 -235h5l161 233l14 26h50z" />
    <glyph glyph-name="Itilde" unicode="&#x7e;I" horiz-adv-x="247" 
d="M143 197l-23 -197h-49l27 194l53 445h49zM322 806v-6l-51 -57l-7 -3q-19 2 -70 20q-53 17 -65 17q-6 0 -15 -8t-19 -19l-14 -15h-5l-16 18v5l51 57l7 3q20 -2 73 -20q49 -17 62 -17q6 0 14 7t17 17l17 18h5z" />
    <glyph glyph-name="itilde" unicode="&#x7e;i" horiz-adv-x="243" 
d="M301 661v-6l-51 -57l-7 -3q-19 2 -70 20q-53 17 -65 17q-6 0 -15 -8t-19 -19l-14 -15h-5l-16 18v5l51 57l7 3q19 -2 73 -20q49 -17 62 -17q6 0 14 7t17 17l17 18h5zM133 154l-18 -154h-46l21 150l41 344h46z" />
    <glyph glyph-name="Utilde" unicode="&#x7e;U" horiz-adv-x="590" 
d="M522 313l-9 -78q-12 -115 -75 -177.5t-169 -62.5q-92 0 -143 47.5t-51 135.5q0 29 4 54l13 90l39 317h47l-53 -403q-3 -24 -3 -47q0 -74 38 -112.5t111 -38.5q84 0 134.5 49.5t62.5 144.5l48 407h48zM512 814v-5l-56 -58l-8 -3q-19 2 -79 20q-64 18 -77 18q-7 0 -14.5 -6
t-20.5 -20l-18 -18h-6l-17 18v6l57 57l7 3q22 -2 81 -20q60 -17 75 -17q7 0 14 6t22 20l18 17h6z" />
    <glyph glyph-name="utilde" unicode="&#x7e;u" horiz-adv-x="526" 
d="M460 669v-5l-56 -58l-8 -3q-19 2 -79 20q-64 18 -77 18q-7 0 -14.5 -6t-20.5 -20l-18 -18h-6l-17 18v6l57 57l7 3q22 -2 81 -20q60 -17 75 -17q7 0 14 5.5t22 20.5l18 17h6zM447 242l-9 -67q-9 -86 -61.5 -132.5t-140.5 -46.5q-79 0 -122 36.5t-43 105.5q0 18 3 37l11 73
l30 246h46l-43 -313q-2 -22 -2 -31q0 -56 31.5 -85t91.5 -29q68 0 108 37t49 108l38 313h46z" />
    <glyph glyph-name="uni1EBC" unicode="&#x7e;E" horiz-adv-x="447" 
d="M194 596l-31 -246l118 -1l101 2l4 -6l-10 -37l-105 1l-114 -1l-14 -111l-18 -155l123 -1l147 3l3 -6l-10 -38h-317l28 194l53 445h316l3 -6l-10 -38l-140 2zM477 814v-5l-56 -58l-8 -3q-19 2 -79 20q-64 18 -77 18q-7 0 -14.5 -6t-20.5 -20l-18 -18h-6l-17 18v6l57 57
l7 3q22 -2 81 -20q60 -17 75 -17q7 0 14 6t22 20l18 17h6z" />
    <glyph glyph-name="uni1EBD" unicode="&#x7e;e" horiz-adv-x="408" 
d="M430 669v-5l-56 -58l-8 -3q-19 2 -79 20q-64 18 -77 18q-7 0 -14.5 -6t-20.5 -20l-18 -18h-6l-17 18v6l57 57l7 3q22 -2 81 -20q60 -17 75 -17q7 0 14.5 6t21.5 20l18 17h6zM402 489l-9 -36l-117 3h-104l-24 -182h99l83 1l3 -5l-8 -36l-87 1h-95l-11 -81l-13 -115l98 -1
l126 2l4 -4l-10 -36h-268l20 150l42 344h268z" />
    <glyph glyph-name="uni1EF8" unicode="&#x7e;Y" horiz-adv-x="486" 
d="M258 239l-7 -48l-22 -191h-48l26 191l6 47l-142 401h53l7 -31l109 -312h6l200 311l16 32h54zM460 814v-5l-56 -58l-8 -3q-19 2 -79 20q-64 18 -77 18q-7 0 -14.5 -6t-20.5 -20l-18 -18h-6l-17 18v6l57 57l7 3q22 -2 81 -20q60 -17 75 -17q7 0 14 6t22 20l18 17h6z" />
    <glyph glyph-name="uni1EF9" unicode="&#x7e;y" horiz-adv-x="443" 
d="M140 597l-17 18v6l57 57l7 3q22 -2 81 -20q60 -17 75 -17q7 0 14.5 6t21.5 20l18 17h6l16 -18v-5l-56 -58l-8 -3q-19 2 -79 20q-64 18 -77 18q-7 0 -14.5 -6t-20.5 -20l-18 -18h-6zM231 180l-5 -34l-18 -146h-45l21 146l4 35l-121 313h51l6 -24l90 -235h5l161 233l14 26
h50z" />
    <glyph glyph-name="Gtilde" unicode="&#x7e;G" horiz-adv-x="575" 
d="M551 593l-17 -45h-7q-40 27 -77.5 40t-77.5 13q-131 0 -202 -90.5t-71 -257.5q0 -107 45.5 -161.5t135.5 -54.5q36 0 69 5.5t84 21.5l14 95l10 94l46 4l-11 -93l-16 -134q-62 -19 -105 -27t-93 -8q-111 0 -169.5 66t-58.5 188q0 124 39 213t113 135.5t178 46.5
q90 0 171 -51zM513 814v-5l-56 -58l-8 -3q-19 2 -79 20q-64 18 -77 18q-7 0 -14.5 -6t-20.5 -20l-18 -18h-6l-17 18v6l57 57l7 3q22 -2 81 -20q60 -17 75 -17q7 0 14 6t22 20l18 17h6z" />
    <glyph glyph-name="gtilde" unicode="&#x7e;g" horiz-adv-x="511" 
d="M463 669v-5l-56 -58l-8 -3q-19 2 -79 20q-64 18 -77 18q-7 0 -14.5 -6t-20.5 -20l-18 -18h-6l-17 18v6l57 57l7 3q22 -2 81 -20q60 -17 75 -17q7 0 14.5 6t21.5 20l18 17h6zM469 461l-21 -44h-6q-34 22 -64 32t-61 10q-106 0 -162 -66.5t-56 -188.5q0 -84 36 -126.5
t111 -42.5q31 0 58 4.5t68 17.5l8 68l8 66l43 3l-9 -63l-13 -108q-55 -15 -91 -21t-75 -6q-94 0 -143 52t-49 153q0 139 71.5 218t200.5 79q72 0 146 -37z" />
    <glyph glyph-name=".notdef" horiz-adv-x="173" 
 />
    <glyph glyph-name=".null" 
 />
    <glyph glyph-name="nonmarkingreturn" unicode="&#xd;" horiz-adv-x="154" 
 />
    <glyph glyph-name="space" unicode=" " horiz-adv-x="154" 
 />
    <glyph glyph-name="exclam" unicode="!" horiz-adv-x="226" 
d="M173 498l-55 -351l-29 -2l-6 7l47 345l5 6l33 1zM104.5 48.5q7.5 -7.5 7.5 -21.5t-8 -22.5t-22 -8.5q-13 0 -21 8t-8 21q0 14 8 22.5t22 8.5t21.5 -7.5z" />
    <glyph glyph-name="quotedbl" unicode="&#x22;" horiz-adv-x="255" 
d="M132 489l-38 -162l-29 -4l-3 6l28 162l38 4zM238 489l-37 -162l-29 -4l-4 6l29 162l38 4z" />
    <glyph glyph-name="numbersign" unicode="#" horiz-adv-x="497" 
d="M352 370l-30 -123h114l4 -5l-3 -29h-123l-43 -181h-31l-4 5l42 176h-114l-43 -181h-31l-3 5l42 176h-105l-4 4l3 30h114l29 123h-105l-4 4l3 29h114l41 172h31l3 -7l-39 -165h114l41 172h30l4 -7l-39 -165h112l5 -4l-4 -29h-121zM316 370h-114l-30 -123h114z" />
    <glyph glyph-name="dollar" unicode="$" horiz-adv-x="404" 
d="M361 474l-13 -40l-8 -2q-39 27 -82 30l-27 -199q52 -25 80 -51.5t28 -71.5q0 -52 -39.5 -92.5t-104.5 -49.5l-17 -125h-27l-5 6l16 117q-33 1 -67.5 10t-60.5 25l8 43l7 2q23 -21 55 -32.5t63 -12.5l27 203q-36 18 -58.5 32.5t-38 37.5t-15.5 55q0 52 41 91.5t106 45.5
l18 139h27l6 -7l-17 -131q54 -4 98 -23zM142.5 316.5q19.5 -18.5 57.5 -37.5l24 181q-45 -6 -73 -34t-28 -62q0 -29 19.5 -47.5zM279.5 181.5q-18.5 18.5 -54.5 37.5l-25 -185q43 9 70.5 38t27.5 63q0 28 -18.5 46.5z" />
    <glyph glyph-name="percent" unicode="%" horiz-adv-x="814" 
d="M688 661l3 -11l-570 -740l-19 11l-4 11l570 741zM331 605.5q31 -35.5 31 -101.5q0 -98 -44 -154t-125 -56q-58 0 -89 35.5t-31 101.5q0 98 44.5 154t124.5 56q58 0 89 -35.5zM141.5 561q-32.5 -44 -32.5 -123q0 -53 23 -81t67 -28q61 0 94 44t33 123q0 53 -23 81t-69 28
q-60 0 -92.5 -44zM732 308q31 -35 31 -101q0 -99 -44 -155t-125 -56q-58 0 -89 35.5t-31 101.5q0 98 44.5 154t124.5 56q58 0 89 -35zM542.5 264q-32.5 -44 -32.5 -123q0 -53 23 -81.5t67 -28.5q61 0 94 44t33 123q0 54 -23.5 82t-68.5 28q-60 0 -92.5 -44z" />
    <glyph glyph-name="ampersand" unicode="&#x26;" horiz-adv-x="755" 
d="M821 335q-19 -42 -43.5 -61.5t-63.5 -22.5q-30 0 -116 18q0 -83 -36.5 -146t-101.5 -98t-151 -35q-77 0 -134 33t-88 93.5t-31 140.5q0 71 24.5 126.5t66.5 86t92 30.5q48 0 77 -24t29 -62q0 -20 -9 -44q97 71 172 159t116 182h5q14 -16 20 -36q-43 -95 -127.5 -188.5
t-194 -168t-223.5 -114.5q15 -81 69 -128t139 -47q74 0 131 31t87.5 87.5t28.5 129.5q-45 10 -68 10q-30 0 -51.5 -17t-36.5 -53l-7 -1l-14 26q19 41 44 60.5t64 22.5q20 0 58.5 -7.5t47.5 -9.5q82 -19 116 -19q32 0 53.5 17t34.5 53l7 2zM167 438q-32 -25 -50 -70.5
t-18 -105.5q0 -13 1 -20q83 31 164 80q24 19 34.5 40.5t10.5 41.5q0 28 -19 43.5t-51 15.5q-40 0 -72 -25z" />
    <glyph glyph-name="quotesingle" unicode="'" horiz-adv-x="145" 
d="M132 489l-38 -162l-29 -4l-3 6l28 162l38 4z" />
    <glyph glyph-name="parenleft" unicode="(" horiz-adv-x="284" 
d="M319 644l-1 -5q-203 -139 -203 -491q0 -93 25.5 -155.5t84.5 -110.5l-1 -6l-21 -18h-5q-67 54 -95.5 120.5t-28.5 168.5q0 368 223 516h5z" />
    <glyph glyph-name="parenright" unicode=")" horiz-adv-x="311" 
d="M-27 -124l1 5q203 139 203 491q0 93 -25.5 155.5t-84.5 110.5l1 6l21 18h5q67 -54 95.5 -120.5t28.5 -168.5q0 -368 -223 -516h-5z" />
    <glyph glyph-name="asterisk" unicode="*" horiz-adv-x="370" 
d="M257 719l-16 -116l-23 -2l-5 5l2 112q20 6 39 6zM196 589l-4 -23l-7 -3l-101 37q0 23 6 39l5 2zM381 588l-2 -3l-111 -21l-10 22l4 6l102 32q14 -21 17 -36zM263 540l61 -91q-9 -15 -27 -28l-5 1l-52 104l17 15zM216 530l-1 -8l-63 -89q-11 4 -35 19l-1 4l80 84z" />
    <glyph glyph-name="plus" unicode="+" horiz-adv-x="478" 
d="M287 468l-22 -182h181l4 -4l-7 -33h-183l-22 -183l-33 -3l-4 4l22 182h-182l-4 5l8 32h182l23 183l33 4z" />
    <glyph glyph-name="comma" unicode="," horiz-adv-x="230" 
d="M130 6q0 -54 -79 -112l-18 17l1 5q54 42 54 82q0 24 -30 41v6q17 13 33 18q39 -22 39 -57z" />
    <glyph glyph-name="hyphen" unicode="-" horiz-adv-x="310" 
d="M286 285l-4 -33l-247 -33l-5 5l4 33l247 33z" />
    <glyph glyph-name="period" unicode="." horiz-adv-x="230" 
d="M113.5 53q8.5 -9 8.5 -23q0 -15 -8.5 -24t-23.5 -9t-23.5 8.5t-8.5 23.5q0 14 9 23.5t24 9.5q14 0 22.5 -9z" />
    <glyph glyph-name="slash" unicode="/" horiz-adv-x="289" 
d="M306 670l-259 -781h-35l-4 5l259 782h34z" />
    <glyph glyph-name="zero" unicode="0" horiz-adv-x="536" 
d="M440.5 445.5q48.5 -53.5 48.5 -158.5q0 -136 -64.5 -214t-183.5 -78q-91 0 -140 53t-49 156q0 136 65.5 215.5t183.5 79.5q91 0 139.5 -53.5zM145 389q-53 -65 -53 -178q0 -85 39 -129t115 -44q96 0 149 63.5t53 176.5q0 87 -39 131.5t-115 44.5q-96 0 -149 -65z" />
    <glyph glyph-name="one" unicode="1" horiz-adv-x="336" 
d="M236 491l-37 -285l-23 -206h-48l26 199l29 241l-142 -41l-6 4l4 38l191 56z" />
    <glyph glyph-name="two" unicode="2" horiz-adv-x="447" 
d="M335 470q32 -27 32 -70q0 -42 -33.5 -90.5t-115.5 -134.5l-124 -132l2 -3h210l81 3l3 -5l-12 -40l-91 2h-223l-38 -1l-3 2l4 32l159 165q73 76 103 116.5t30 74.5q0 28 -20.5 46.5t-57.5 18.5q-38 0 -76.5 -19t-71.5 -54h-7l-3 38q81 78 168 78q52 0 84 -27z" />
    <glyph glyph-name="three" unicode="3" horiz-adv-x="402" 
d="M307 467q36 -31 36 -81q0 -47 -33 -90.5t-90 -69.5v-4q55 -13 84 -45.5t29 -82.5q0 -55 -31 -98.5t-85 -68.5t-121 -25q-44 0 -93 9l1 42l5 5q46 -16 92 -16q82 0 133.5 41t51.5 108q0 48 -35 75.5t-101 30.5h-53l-4 5l6 34l44 1q31 0 66.5 18.5t59.5 51t24 70.5
q0 36 -24 57.5t-65 21.5q-32 0 -64.5 -15.5t-70.5 -46.5h-6l-2 40q40 33 75.5 48.5t74.5 15.5q60 0 96 -31z" />
    <glyph glyph-name="four" unicode="4" horiz-adv-x="468" 
d="M422 123l-9 -36l-81 2h-19l-21 -178l-3 -5l-37 -4l-4 5l24 182h-202l-53 -2l-4 6l4 34l299 367h46l-45 -366h100zM277 128l37 300h-5l-245 -300h213z" />
    <glyph glyph-name="five" unicode="5" horiz-adv-x="410" 
d="M389 493l-9 -39l-5 -4l-56 3h-173l-24 -182l63 -15q81 -17 120 -54t39 -95t-32.5 -105t-90 -74t-128.5 -27q-41 0 -84 9v42l6 5q44 -15 88 -15q57 0 101.5 20.5t69 57t24.5 82.5q0 43 -32.5 71.5t-98.5 43.5l-83 18l-4 6l30 245l12 10l52 -2h135l78 3z" />
    <glyph glyph-name="six" unicode="6" horiz-adv-x="462" 
d="M217 448.5q-77 -70.5 -105 -153.5l4 -5q70 51 143 51q68 0 109 -40t41 -107q0 -44 -18 -90t-61.5 -78.5t-116.5 -32.5q-80 0 -122.5 48t-42.5 134q0 74 33 153t110.5 150t204.5 115h5l32 -23v-6q-139 -45 -216 -115.5zM98 239q-5 -25 -5 -60q0 -70 29.5 -109t93.5 -39
q80 0 114 48t34 110q0 55 -29.5 84.5t-83.5 29.5q-80 0 -153 -64z" />
    <glyph glyph-name="seven" unicode="7" horiz-adv-x="409" 
d="M138 494h234l40 2l-4 -37l-266 -461l-52 -102l-41 13l-1 8l310 536h-234l-67 -4l-4 6l10 41z" />
    <glyph glyph-name="eight" unicode="8" horiz-adv-x="465" 
d="M374 557q38 -33 38 -93q0 -59 -35.5 -95.5t-91.5 -60.5l-1 -4q38 -17 61.5 -33.5t39 -42.5t15.5 -65q0 -48 -24 -86.5t-67.5 -60t-100.5 -21.5q-76 0 -120 37.5t-44 101.5q0 63 40.5 102t106.5 65l1 4q-45 22 -68 50.5t-23 77.5q0 70 48 113.5t123 43.5q64 0 102 -33z
M178 521q-36 -32 -36 -84q0 -44 25 -68t75 -46q58 20 93.5 52t35.5 86q0 44 -26 68t-74 24q-57 0 -93 -32zM159 252.5q-30 -16.5 -51.5 -44.5t-21.5 -69q0 -50 33 -79t90 -29q66 0 107.5 36.5t41.5 91.5q0 34 -16 56.5t-40.5 36.5t-69.5 33q-43 -16 -73 -32.5z" />
    <glyph glyph-name="nine" unicode="9" horiz-adv-x="462" 
d="M250 46.5q77 70.5 105 153.5l-4 5q-70 -51 -143 -51q-68 0 -109 40t-41 107q0 44 18 90t61.5 78.5t116.5 32.5q80 0 122.5 -48t42.5 -134q0 -74 -33 -153t-110.5 -150t-204.5 -115h-5l-32 23v6q139 45 216 115.5zM369 256q5 25 5 60q0 70 -29.5 109t-93.5 39
q-80 0 -114 -48t-34 -110q0 -55 29.5 -84.5t83.5 -29.5q80 0 153 64z" />
    <glyph glyph-name="colon" unicode=":" horiz-adv-x="229" 
d="M113.5 53q8.5 -9 8.5 -23q0 -15 -8.5 -24t-23.5 -9t-23.5 8.5t-8.5 23.5q0 14 9 23.5t24 9.5q14 0 22.5 -9zM146.5 327q8.5 -9 8.5 -23q0 -15 -8.5 -24t-23.5 -9t-23.5 8.5t-8.5 23.5q0 14 9 23.5t24 9.5q14 0 22.5 -9z" />
    <glyph glyph-name="semicolon" unicode=";" horiz-adv-x="230" 
d="M129 6q0 -54 -79 -112l-18 17l1 5q54 42 54 82q0 24 -30 41v6q17 13 33 18q39 -22 39 -57zM145.5 327q8.5 -9 8.5 -23q0 -15 -8.5 -24t-23.5 -9t-23.5 8.5t-8.5 23.5q0 14 9 23.5t24 9.5q14 0 22.5 -9z" />
    <glyph glyph-name="less" unicode="&#x3c;" horiz-adv-x="499" 
d="M459 430l-4 -6l-374 -153l-1 -5l341 -143l-13 -30l-6 -4l-367 157l5 42l5 6l406 165z" />
    <glyph glyph-name="equal" unicode="=" horiz-adv-x="479" 
d="M463 359l-3 -33h-402l-5 5l4 32h401zM444 204l-3 -33h-402l-5 5l4 32h401z" />
    <glyph glyph-name="greater" unicode="&#x3e;" horiz-adv-x="502" 
d="M472 294l3 -6l-5 -42l-405 -157l-6 4l-5 30l376 143v5l-337 153l-2 6l16 29z" />
    <glyph glyph-name="question" unicode="?" horiz-adv-x="274" 
d="M227 465.5q50 -30.5 50 -81.5q0 -34 -21.5 -66t-61.5 -53l-83 -48l-1 -3l-6 -70l-32 -3l-4 5l4 79l4 8l88 52q32 18 50.5 42t18.5 52q0 38 -41.5 60.5t-122.5 26.5l-4 5l14 28l6 3q92 -6 142 -36.5zM95 46q8 -8 8 -21t-8.5 -21.5t-21.5 -8.5t-21 7.5t-8 20.5q0 14 8 22.5
t22 8.5q13 0 21 -8z" />
    <glyph glyph-name="at" unicode="@" horiz-adv-x="814" 
d="M695.5 79.5q-82.5 -75.5 -236.5 -83.5l33 243h-7q-87 -156 -183 -245h-13q-32 22 -47.5 56.5t-15.5 92.5q0 79 27 149t79.5 115.5t125.5 53.5h4l64 -14l30 15l7 -4l-48 -350l-5 -74q111 12 171 78t60 178q0 82 -35.5 145t-102 97.5t-156.5 34.5q-109 0 -193 -47
t-130.5 -131.5t-46.5 -192.5q0 -110 47.5 -189.5t134.5 -122t203 -42.5l1 -6l-18 -27q-121 2 -212.5 49t-142 132t-50.5 199q0 121 51 215t144 146t214 52q99 0 173.5 -39t115 -109.5t40.5 -162.5q0 -136 -82.5 -211.5zM347 85q33 37 76 104t84 154l2 17l4 48l-61 14
q-56 -1 -98 -38t-64 -97.5t-22 -131.5q0 -55 11.5 -81t24.5 -26q10 0 43 37z" />
    <glyph glyph-name="A" unicode="A" horiz-adv-x="536" 
d="M485 0h-50l-6 53l-29 142l-142 1l-129 -1l-68 -140l-22 -55h-50l311 639h55zM391 238l-70 344h-4l-167 -344l118 -2z" />
    <glyph glyph-name="B" unicode="B" horiz-adv-x="492" 
d="M447 199q0 -97 -65.5 -149.5t-189.5 -52.5q-69 0 -120 3h-1l28 194l53 445l141 1q72 0 111 -33.5t39 -96.5q0 -64 -29 -109t-83 -67q116 -26 116 -135zM366.5 573q-27.5 25 -80.5 25h-90l-33 -247l113 -2q57 12 87.5 51.5t30.5 101.5q0 46 -27.5 71zM346 79.5
q52 41.5 52 116.5q0 49 -30 78t-87 34h-123l-15 -111l-18 -156q38 -3 74 -3q95 0 147 41.5z" />
    <glyph glyph-name="C" unicode="C" horiz-adv-x="499" 
d="M443 630q42 -14 74 -40l-17 -44l-8 -1q-58 56 -143 56q-118 0 -183 -90t-65 -251q0 -108 44 -165.5t127 -57.5q44 0 89 16.5t85 47.5l8 -3l-10 -46q-90 -58 -178 -58q-104 0 -159.5 67.5t-55.5 191.5q0 121 36 209t104.5 135t163.5 47q46 0 88 -14z" />
    <glyph glyph-name="D" unicode="D" horiz-adv-x="615" 
d="M528 578q61 -65 61 -184q0 -122 -38 -212t-111.5 -138.5t-176.5 -48.5q-36 0 -91 1.5t-100 3.5h-1l28 194l53 445l202 4q113 0 174 -65zM468.5 128q70.5 92 70.5 257q0 106 -48.5 161t-141.5 55q-28 0 -72.5 -1t-81.5 -3l-52 -400l-18 -155q39 -2 80 -4t67 -2
q126 0 196.5 92z" />
    <glyph glyph-name="E" unicode="E" horiz-adv-x="447" 
d="M194 596l-31 -246l118 -1l101 2l4 -6l-10 -37l-105 1l-114 -1l-14 -111l-18 -155l123 -1l147 3l3 -6l-10 -38h-317l28 194l53 445h316l3 -6l-10 -38l-140 2z" />
    <glyph glyph-name="F" unicode="F" horiz-adv-x="405" 
d="M194 596l-33 -257l111 -1l98 1l3 -5l-10 -38l-102 2l-105 -1l-13 -100l-23 -197h-49l28 194l53 445h302l4 -6l-11 -39l-135 3z" />
    <glyph glyph-name="G" unicode="G" horiz-adv-x="575" 
d="M551 593l-17 -45h-7q-40 27 -77.5 40t-77.5 13q-131 0 -202 -90.5t-71 -257.5q0 -107 45.5 -161.5t135.5 -54.5q36 0 69 5.5t84 21.5l14 95l10 94l46 4l-11 -93l-16 -134q-62 -19 -105 -27t-93 -8q-111 0 -169.5 66t-58.5 188q0 124 39 213t113 135.5t178 46.5
q90 0 171 -51z" />
    <glyph glyph-name="H" unicode="H" horiz-adv-x="647" 
d="M600 639l-57 -442l-23 -197h-48l26 194l13 108l-185 2l-169 -2l-14 -105l-23 -197h-49l27 194l53 445h49l-38 -293l175 -2l179 2l35 293h49z" />
    <glyph glyph-name="I" unicode="I" horiz-adv-x="247" 
d="M143 197l-23 -197h-49l27 194l53 445h49z" />
    <glyph glyph-name="J" unicode="J" horiz-adv-x="279" 
d="M171 212l-11 -96q-9 -73 -48 -121.5t-124 -94.5l-17 27v8q71 39 104.5 81t40.5 101l11 89l46 392l-121 -1l-6 6l8 36h173z" />
    <glyph glyph-name="K" unicode="K" horiz-adv-x="502" 
d="M143 197l-24 -197h-48l27 194l54 445h48zM235 339q105 -167 236 -328l-1 -7q-16 -6 -44 -12l-6 3q-136 175 -240 343l1 4l249 246l46 51h59z" />
    <glyph glyph-name="L" unicode="L" horiz-adv-x="391" 
d="M364 37l-10 -37h-282l27 194l53 445h49l-57 -442l-19 -155h235z" />
    <glyph glyph-name="M" unicode="M" horiz-adv-x="748" 
d="M652 0h-44l8 195l8 359h-5l-245 -476h-44l-119 476h-6l-80 -356l-43 -198h-43l145 639h55l22 -98l98 -399h5l209 407l44 90h55z" />
    <glyph glyph-name="N" unicode="N" horiz-adv-x="647" 
d="M540 182l-22 -182h-49l-277 557h-6l-45 -352l-24 -205h-46l27 190l55 449h49l277 -557h5l70 554l46 4z" />
    <glyph glyph-name="O" unicode="O" horiz-adv-x="605" 
d="M521.5 578.5q57.5 -66.5 57.5 -187.5q0 -122 -36 -211.5t-105.5 -137.5t-166.5 -48q-105 0 -162.5 68t-57.5 192q0 121 36 209t105 135t166 47q106 0 163.5 -66.5zM165.5 512.5q-64.5 -90.5 -64.5 -254.5q0 -108 44.5 -165t129.5 -57q123 0 188.5 91.5t65.5 256.5
q0 108 -44.5 163.5t-131.5 55.5q-123 0 -187.5 -90.5z" />
    <glyph glyph-name="P" unicode="P" horiz-adv-x="481" 
d="M426.5 599.5q42.5 -40.5 42.5 -116.5q0 -112 -64.5 -178.5t-178.5 -66.5h-78l-5 -41l-23 -197h-49l28 194l53 445l155 1q77 0 119.5 -40.5zM378 340.5q42 53.5 42 134.5q0 118 -119 124l-106 -2l-41 -317l110 -1q72 8 114 61.5z" />
    <glyph glyph-name="Q" unicode="Q" horiz-adv-x="600" 
d="M493 -95q83 -38 175 -52v-8q-12 -20 -22 -30l-5 -2q-99 17 -189 64t-160 118q-7 -1 -21 -1q-105 0 -162.5 68t-57.5 192q0 121 36 209t105 135t166 47q106 0 163.5 -66.5t57.5 -187.5q0 -161 -61.5 -263t-175.5 -127q68 -58 151 -96zM145.5 93q44.5 -57 129.5 -57
q123 0 188.5 91.5t65.5 256.5q0 108 -44.5 163.5t-131.5 55.5q-123 0 -187.5 -90.5t-64.5 -254.5q0 -108 44.5 -165z" />
    <glyph glyph-name="R" unicode="R" horiz-adv-x="512" 
d="M428 349q-42 -59 -117 -87q61 -133 133 -251l-2 -6q-15 -8 -42 -13l-7 4q-75 135 -125 255h-118l-7 -54l-23 -197h-49l27 194l54 445l156 1q78 0 120 -39.5t42 -112.5q0 -80 -42 -139zM155 294l124 -2q68 20 104.5 68t36.5 121q0 55 -30 85t-89 33l-106 -2z" />
    <glyph glyph-name="S" unicode="S" horiz-adv-x="437" 
d="M419 613l-14 -45l-10 -3q-49 37 -111 37q-43 0 -76 -18t-51.5 -47t-18.5 -60q0 -29 15 -51.5t36.5 -39t60.5 -40.5q45 -27 71 -47.5t45 -52t19 -73.5q0 -49 -27.5 -90t-75.5 -64.5t-106 -23.5q-40 0 -81 11.5t-72 33.5l11 49l9 3q27 -28 64 -42t74 -14q44 0 79.5 18
t55.5 47.5t20 63.5q0 31 -15 55t-37.5 41t-61.5 41q-43 26 -69 46.5t-44 51t-18 72.5q0 47 26 86.5t72 62t102 22.5q68 0 128 -30z" />
    <glyph glyph-name="T" unicode="T" horiz-adv-x="459" 
d="M486 633l-10 -37l-100 2h-75l-53 -401l-22 -197h-48l26 194l48 404h-73l-104 -2l-4 5l11 38h400z" />
    <glyph glyph-name="U" unicode="U" horiz-adv-x="590" 
d="M522 313l-9 -78q-12 -115 -75 -177.5t-169 -62.5q-92 0 -143 47.5t-51 135.5q0 29 4 54l13 90l39 317h47l-53 -403q-3 -24 -3 -47q0 -74 38 -112.5t111 -38.5q84 0 134.5 49.5t62.5 144.5l48 407h48z" />
    <glyph glyph-name="V" unicode="V" horiz-adv-x="521" 
d="M255 0h-55l-132 639h50l7 -54l108 -529h4l257 528l21 55h49z" />
    <glyph glyph-name="W" unicode="W" horiz-adv-x="842" 
d="M577 0h-50l-81 407h-5l-193 -407h-51l-124 639h49l5 -52l103 -528h6l196 416l-34 164h50l7 -55l103 -525h6l251 526l20 54h48z" />
    <glyph glyph-name="X" unicode="X" horiz-adv-x="549" 
d="M315 329l167 -329h-56l-18 44l-131 250l-194 -253l-28 -41h-54l252 330l-158 309h57l17 -43l120 -232l176 230l29 45h55z" />
    <glyph glyph-name="Y" unicode="Y" horiz-adv-x="486" 
d="M258 239l-7 -48l-22 -191h-48l26 191l6 47l-142 401h53l7 -31l109 -312h6l200 311l16 32h54z" />
    <glyph glyph-name="Z" unicode="Z" horiz-adv-x="493" 
d="M499 602l-431 -561h282l77 4l4 -5l-10 -41l-89 1h-284l-44 -2l5 37l430 562h-268l-73 -4l-4 6l11 41l82 -1h275l41 1z" />
    <glyph glyph-name="bracketleft" unicode="[" horiz-adv-x="285" 
d="M319 642l-3 -26l-126 -10l-85 -697l123 -10l-3 -26l-6 -4l-160 10l49 379l45 378l162 10z" />
    <glyph glyph-name="backslash" unicode="\" horiz-adv-x="325" 
d="M57 670l4 6h34l205 -782l-5 -5h-34z" />
    <glyph glyph-name="bracketright" unicode="]" horiz-adv-x="285" 
d="M-27 -127l3 26l126 10l85 697l-123 10l3 26l6 4l160 -10l-49 -379l-45 -378l-162 -10z" />
    <glyph glyph-name="asciicircum" unicode="^" horiz-adv-x="415" 
d="M380 127l-4 -6l-31 -8l-102 335h-5l-194 -332l-7 -3l-27 12l209 360l7 4h42z" />
    <glyph glyph-name="underscore" unicode="_" horiz-adv-x="453" 
d="M428 -91l-7 -31h-474l-4 4l7 31h475z" />
    <glyph glyph-name="grave" unicode="`" horiz-adv-x="403" 
d="M318 541l-16 -22l-7 -1q-98 80 -156 132l-2 6l20 25l6 1q76 -75 155 -141z" />
    <glyph glyph-name="a" unicode="a" horiz-adv-x="482" 
d="M417 0h-48l-4 44l-23 101l-118 1l-106 -1l-51 -99l-19 -46h-47l252 494h53zM274 444h-4l-133 -260h196z" />
    <glyph glyph-name="b" unicode="b" horiz-adv-x="446" 
d="M362 222q25 -27 25 -70q0 -75 -55 -114.5t-158 -39.5q-72 0 -105 2l21 150l42 344l122 1q61 0 95 -27t34 -77q0 -48 -24 -81.5t-68 -51.5q46 -9 71 -36zM311 439q-23 19 -68 19h-71l-23 -184l93 -2q45 9 68.5 37.5t23.5 74.5q0 36 -23 55zM298.5 64.5
q41.5 30.5 41.5 86.5q0 74 -96 85l-100 -1l-11 -81l-14 -117q30 -3 62 -3q76 0 117.5 30.5z" />
    <glyph glyph-name="c" unicode="c" horiz-adv-x="447" 
d="M377 488q35 -10 61 -29l-15 -42l-7 -2q-23 21 -53.5 32.5t-65.5 11.5q-94 0 -145.5 -66.5t-51.5 -188.5q0 -81 35.5 -125t102.5 -44q36 0 74 13t70 36l6 -3l-9 -42q-70 -44 -144 -44q-88 0 -135.5 53.5t-47.5 150.5q0 142 66 220.5t186 78.5q38 0 73 -10z" />
    <glyph glyph-name="d" unicode="d" horiz-adv-x="546" 
d="M448.5 446.5q52.5 -51.5 52.5 -144.5q0 -143 -70.5 -224.5t-199.5 -81.5q-31 0 -77 1t-84 3l20 150l42 344l170 4q94 0 146.5 -51.5zM397 102.5q56 68.5 56 191.5q0 80 -40 122t-116 42q-22 0 -58 -1t-66 -3l-40 -300l-13 -115q22 -2 60 -3.5t60 -1.5q101 0 157 68.5z
" />
    <glyph glyph-name="e" unicode="e" horiz-adv-x="408" 
d="M172 456l-24 -182h99l83 1l3 -5l-8 -36l-87 1h-95l-11 -81l-13 -115l98 -1l126 2l4 -4l-10 -36h-268l20 150l42 344h268l3 -5l-9 -36l-117 3h-104z" />
    <glyph glyph-name="f" unicode="f" horiz-adv-x="365" 
d="M167 456l-25 -192l90 -1l81 2l3 -5l-9 -36l-84 1l-87 -1l-9 -70l-18 -154h-45l20 150l42 344h256l3 -5l-10 -36l-113 3h-95z" />
    <glyph glyph-name="g" unicode="g" horiz-adv-x="511" 
d="M469 461l-21 -44h-6q-34 22 -64 32t-61 10q-106 0 -162 -66.5t-56 -188.5q0 -84 36 -126.5t111 -42.5q31 0 58 4.5t68 17.5l8 68l8 66l43 3l-9 -63l-13 -108q-55 -15 -91 -21t-75 -6q-94 0 -143 52t-49 153q0 139 71.5 218t200.5 79q72 0 146 -37z" />
    <glyph glyph-name="h" unicode="h" horiz-adv-x="571" 
d="M508 494l-44 -340l-18 -154h-46l21 150l10 80l-288 -1l-10 -75l-18 -154h-46l21 150l41 344h46l-29 -223l144 -1l143 1l27 223h46z" />
    <glyph glyph-name="i" unicode="i" horiz-adv-x="243" 
d="M133 154l-18 -154h-46l21 150l41 344h46z" />
    <glyph glyph-name="j" unicode="j" horiz-adv-x="274" 
d="M156 164l-9 -73q-7 -58 -35.5 -96t-92.5 -73l-17 27l1 6q49 30 72.5 61.5t28.5 76.5l8 65l36 299h-98l-4 4l8 33h144z" />
    <glyph glyph-name="k" unicode="k" horiz-adv-x="457" 
d="M134 154l-19 -154h-46l22 150l41 344h46zM213 262q88 -129 198 -252l-3 -6q-15 -6 -42 -10l-6 3q-112 135 -198 263v4l203 190l38 40h54z" />
    <glyph glyph-name="l" unicode="l" horiz-adv-x="361" 
d="M316 35l-9 -35h-237l21 150l42 344h45l-44 -340l-14 -114h193z" />
    <glyph glyph-name="m" unicode="m" horiz-adv-x="654" 
d="M556 0h-41l7 151l2 266h-4l-196 -358h-40l-99 358h-5l-63 -263l-34 -154h-41l116 494h53l18 -75l83 -299h4l165 305l35 69h51z" />
    <glyph glyph-name="n" unicode="n" horiz-adv-x="572" 
d="M461 143l-17 -143h-48l-229 418h-3l-34 -258l-19 -160h-42l20 146l43 348h47l230 -418h5l51 417l43 3z" />
    <glyph glyph-name="o" unicode="o" horiz-adv-x="536" 
d="M443.5 446.5q48.5 -52.5 48.5 -152.5q0 -90 -30 -157.5t-87.5 -104.5t-136.5 -37q-90 0 -138.5 53.5t-48.5 155.5q0 137 67 216t187 79q90 0 138.5 -52.5zM150.5 394q-51.5 -65 -51.5 -186q0 -88 35 -130.5t107 -42.5q98 0 150.5 66t52.5 187q0 86 -36 128.5t-109 42.5
q-97 0 -148.5 -65z" />
    <glyph glyph-name="p" unicode="p" horiz-adv-x="437" 
d="M367.5 461.5q36.5 -33.5 36.5 -92.5q0 -53 -24.5 -96t-69.5 -67.5t-103 -24.5h-70l-4 -27l-18 -154h-45l20 150l42 344l135 1q64 0 100.5 -33.5zM322.5 265.5q32.5 39.5 32.5 98.5q0 89 -97 94l-85 -1l-31 -237l90 -1q58 7 90.5 46.5z" />
    <glyph glyph-name="q" unicode="q" horiz-adv-x="533" 
d="M550 -117q-12 -19 -23 -28l-5 -1q-74 15 -143 51.5t-124 89.5h-17q-90 0 -138.5 53.5t-48.5 155.5q0 137 67 216t187 79q90 0 138.5 -52.5t48.5 -152.5q0 -118 -50 -195t-141 -97q51 -44 115 -73t133 -39zM134 77.5q35 -42.5 107 -42.5q98 0 150.5 66t52.5 187
q0 86 -36 128.5t-109 42.5q-97 0 -148.5 -65t-51.5 -186q0 -88 35 -130.5z" />
    <glyph glyph-name="r" unicode="r" horiz-adv-x="464" 
d="M370.5 269q-33.5 -44 -94.5 -66q49 -99 111 -192l-1 -7q-19 -7 -41 -10l-9 5q-54 93 -101 193h-97l-5 -38l-18 -154h-45l20 150l42 344l134 1q65 0 101.5 -32t36.5 -89q0 -61 -33.5 -105zM143 232l100 -2q54 14 83.5 49.5t29.5 88.5q0 84 -98 90l-85 -2z" />
    <glyph glyph-name="s" unicode="s" horiz-adv-x="398" 
d="M355 475l-13 -45l-10 -2q-42 32 -90 32q-34 0 -60 -14t-40 -36t-14 -46q0 -31 22.5 -50.5t68.5 -41.5q36 -18 59 -33t39 -39t16 -58q0 -38 -21 -71.5t-60 -54t-89 -20.5q-33 0 -68 9t-61 25l9 48l7 3q24 -23 55.5 -35t61.5 -12q34 0 61.5 14.5t43 37.5t15.5 49
q0 32 -22.5 51.5t-69.5 42.5q-37 18 -59 33t-38 38.5t-16 57.5q0 37 20.5 69t58.5 51.5t86 19.5q55 0 108 -23z" />
    <glyph glyph-name="t" unicode="t" horiz-adv-x="416" 
d="M413 489l-9 -38l-84 4h-60l-39 -301l-18 -154h-45l20 150l37 305h-60l-86 -4l-4 6l9 37h337z" />
    <glyph glyph-name="u" unicode="u" horiz-adv-x="526" 
d="M447 242l-9 -67q-9 -86 -61.5 -132.5t-140.5 -46.5q-79 0 -122 36.5t-43 105.5q0 18 3 37l11 73l30 246h46l-43 -313q-2 -22 -2 -31q0 -56 31.5 -85t91.5 -29q68 0 108 37t49 108l38 313h46z" />
    <glyph glyph-name="v" unicode="v" horiz-adv-x="470" 
d="M228 0h-52l-112 494h48l5 -44l90 -399h3l205 397l18 46h47z" />
    <glyph glyph-name="w" unicode="w" horiz-adv-x="734" 
d="M496 0h-47l-71 304h-4l-152 -304h-48l-106 494h47l3 -43l87 -397h3l158 314l-27 126h47l4 -46l87 -394h6l198 396l18 44h44z" />
    <glyph glyph-name="x" unicode="x" horiz-adv-x="492" 
d="M274 254l145 -254h-55l-16 36l-107 186l-153 -188l-24 -34h-52l207 256l-137 238h57l14 -34l98 -173l139 171l25 36h54z" />
    <glyph glyph-name="y" unicode="y" horiz-adv-x="443" 
d="M231 180l-5 -34l-18 -146h-45l21 146l4 35l-121 313h51l6 -24l90 -235h5l161 233l14 26h50z" />
    <glyph glyph-name="z" unicode="z" horiz-adv-x="444" 
d="M422 459l-347 -421h227l68 4l4 -4l-10 -39l-79 1h-231l-40 -1l5 34l348 423h-220l-61 -4l-3 5l10 38l69 -1h230l35 1z" />
    <glyph glyph-name="braceleft" unicode="{" horiz-adv-x="285" 
d="M311 648l3 -5l-9 -29q-25 5 -38 5q-41 0 -60 -28.5t-19 -93.5q0 -17 2 -55l1 -48q0 -55 -20 -87.5t-61 -48.5v-3q27 -11 41 -33.5t14 -53.5q0 -18 -5.5 -41t-16.5 -60q-12 -40 -17.5 -64.5t-5.5 -44.5q0 -64 59 -64q13 0 38 5l3 -29l-5 -4q-21 -6 -45 -6q-45 0 -68 23
t-23 67q0 24 5.5 48t18.5 73q2 5 8 27.5t9 38.5t3 27q0 34 -18.5 53t-58.5 25l3 29q53 8 77 37t24 90q0 31 -1 48l-1 52q0 81 30.5 118.5t90.5 37.5q16 0 42 -6z" />
    <glyph glyph-name="bar" unicode="|" horiz-adv-x="317" 
d="M248 790l-62 -504l-68 -548l-35 -2l-4 6l67 542l62 507l37 3z" />
    <glyph glyph-name="braceright" unicode="}" horiz-adv-x="285" 
d="M-19 -134l-3 5l9 29q25 -5 38 -5q41 0 60 28.5t19 93.5q0 17 -2 55l-1 48q0 55 20 87.5t61 48.5v3q-27 11 -41 33.5t-14 53.5q0 18 5.5 41t16.5 60q12 40 17.5 64.5t5.5 44.5q0 64 -59 64q-13 0 -38 -5l-3 29l5 4q21 6 45 6q45 0 68 -23t23 -67q0 -24 -5.5 -48t-18.5 -73
q-2 -5 -8 -27.5t-9 -38.5t-3 -27q0 -34 18.5 -53t58.5 -25l-3 -29q-53 -8 -77 -37t-24 -90q0 -31 1 -48l1 -52q0 -81 -30.5 -118.5t-90.5 -37.5q-16 0 -42 6z" />
    <glyph glyph-name="asciitilde" unicode="~" horiz-adv-x="480" 
d="M130 261.5q-11 -7.5 -30 -25.5l-19 -16h-7l-12 18v6l72 63l8 4q20 -3 93 -23q31 -9 60 -16.5t40 -7.5q9 0 20 7.5t33 27.5l15 13h8l12 -18l-1 -6l-72 -64l-9 -2q-17 2 -51.5 11.5t-46.5 12.5q-77 23 -94 23q-8 0 -19 -7.5z" />
    <glyph glyph-name="uni00A0" unicode="&#xa0;" horiz-adv-x="154" 
 />
    <glyph glyph-name="exclamdown" unicode="&#xa1;" horiz-adv-x="226" 
d="M122 452q-8 8 -8 21q0 14 8 22.5t22 8.5q13 0 21 -8t8 -21q0 -14 -8 -22.5t-22 -8.5q-13 0 -21 8zM53 2l55 351l29 2l6 -7l-47 -345l-5 -6l-33 -1z" />
    <glyph glyph-name="cent" unicode="&#xa2;" horiz-adv-x="384" 
d="M354 476l-12 -32l-9 -3q-39 28 -71 28h-5l-67 -390q57 16 100 94l8 -1l14 -19q-28 -48 -59 -73.5t-69 -35.5l-27 -161h-27l-4 6l25 150q-34 6 -55.5 20t-34 47t-12.5 91q0 119 45 200t134 101l26 153h27l6 -6l-24 -142q7 1 21 1l64 -20zM222 464q-64 -17 -99 -86
t-35 -176q0 -64 17 -94.5t52 -32.5z" />
    <glyph glyph-name="sterling" unicode="&#xa3;" horiz-adv-x="401" 
d="M392 574l-8 -39l-4 -3q-42 25 -93 25q-100 0 -114 -113l-14 -113h126l3 -4l-7 -27h-126l-20 -155q-5 -38 -17.5 -63t-35.5 -42v-2h178l79 3l3 -6l-9 -36l-84 1h-243l-3 5l7 27q35 5 56.5 33t27.5 76l19 159h-68l-3 5l6 26h69l13 108q9 74 50 113.5t111 39.5q47 0 101 -18
z" />
    <glyph glyph-name="currency" unicode="&#xa4;" horiz-adv-x="436" 
d="M426 515l-1 -6l-73 -64q20 -32 20 -69q0 -52 -40 -94l59 -64l-1 -7l-25 -22l-6 1l-56 66q-18 -14 -40.5 -22t-44.5 -8q-46 0 -78 29l-72 -67l-7 1l-19 22l2 6l73 64q-20 28 -20 69q0 52 40 94l-59 64l2 7l23 22h7l57 -67q39 29 84 29q44 0 77 -28l72 66h7zM190 451.5
q-27 -15.5 -43.5 -42t-16.5 -57.5q0 -39 26 -66t66 -27q31 0 58 15.5t43.5 41.5t16.5 57q0 39 -26.5 66.5t-66.5 27.5q-30 0 -57 -15.5z" />
    <glyph glyph-name="yen" unicode="&#xa5;" horiz-adv-x="488" 
d="M460 286l3 -3l-6 -26h-153l-54 -78l-3 -24h196l4 -4l-6 -25h-197l-16 -126h-41l17 126h-180l-3 4l5 25h182l3 28l-30 74h-141l-3 4l5 25h127l-85 208h47l6 -24l98 -238h5l169 237l15 25h46l-145 -208h135z" />
    <glyph glyph-name="brokenbar" unicode="&#xa6;" horiz-adv-x="317" 
d="M248 790l-52 -420l-35 -4l-5 4l52 421l37 3zM170 153l-52 -415l-35 -2l-4 6l51 413l35 5z" />
    <glyph glyph-name="section" unicode="&#xa7;" horiz-adv-x="388" 
d="M372 622l-11 -42l-9 -1q-45 28 -88 28q-31 0 -55.5 -13.5t-38 -34t-13.5 -42.5q0 -28 20 -51t65 -59q53 -43 80 -75t27 -76q0 -42 -28 -78t-79 -59q37 -42 37 -85q0 -36 -22.5 -67.5t-61 -50.5t-85.5 -19q-31 0 -63 8.5t-56 24.5l11 41l7 5q23 -21 51.5 -32.5t57.5 -11.5
q34 0 61 13.5t41.5 35t14.5 44.5q0 29 -21.5 53.5t-66.5 60.5q-53 42 -79.5 74t-26.5 74t29.5 78.5t78.5 60.5q-36 41 -36 83q0 36 21.5 66.5t59 49t81.5 18.5q49 0 97 -21zM283.5 304q-22.5 26 -69.5 64l-40 33q-43 -21 -66.5 -48.5t-23.5 -55.5q0 -31 22.5 -56.5
t68.5 -61.5q9 -7 19.5 -15.5t22.5 -19.5q89 40 89 101q0 33 -22.5 59z" />
    <glyph glyph-name="dieresis" unicode="&#xa8;" horiz-adv-x="398" 
d="M188 623.5q8 -7.5 8 -21.5t-8.5 -22.5t-22.5 -8.5t-21.5 8t-7.5 22t8.5 22t22.5 8q13 0 21 -7.5zM345 623q8 -8 8 -21q0 -14 -8.5 -22.5t-22.5 -8.5t-21.5 8t-7.5 22t8 22t22 8t22 -8z" />
    <glyph glyph-name="copyright" unicode="&#xa9;" horiz-adv-x="689" 
d="M506 560q67 -38 103.5 -107t36.5 -160t-36.5 -160t-103.5 -107t-154 -38t-153.5 38t-103 107t-36.5 160t36.5 160t103 107t153.5 38t154 -38zM211.5 537q-60.5 -35 -93.5 -98t-33 -146t33 -146t93.5 -98t140.5 -35q79 0 139.5 35t94 98t33.5 146t-33.5 146t-94 98
t-139.5 35q-80 0 -140.5 -35zM460 439l-8 -31l-5 -1q-17 12 -39 18.5t-45 6.5q-57 0 -87 -34t-30 -101q0 -68 29.5 -103.5t84.5 -35.5q49 0 93 28l5 -1l-4 -32q-48 -28 -96 -28q-73 0 -111.5 44t-38.5 126t40 126t116 44q51 0 96 -26z" />
    <glyph glyph-name="ordfeminine" unicode="&#xaa;" horiz-adv-x="305" 
d="M300 643l-30 -229l-5 -70l-42 -4l19 152h-5q-54 -100 -112 -152h-9q-27 13 -38 35t-11 62q0 80 40 138.5t112 68.5h3l47 -6l26 9zM154.5 402.5q19.5 22.5 45 62.5t50.5 92l3 20l3 30l-41 6q-50 -1 -80 -48t-30 -114q0 -35 8 -53t16 -18q6 0 25.5 22.5z" />
    <glyph glyph-name="guillemotleft" unicode="&#xab;" horiz-adv-x="377" 
d="M216 220l2 14l170 167l23 -15l-1 -8l-153 -154l116 -153l-2 -8l-26 -15zM61 220l2 14l170 167l23 -15l-1 -8l-153 -154l116 -153l-2 -8l-26 -15z" />
    <glyph glyph-name="logicalnot" unicode="&#xac;" horiz-adv-x="480" 
d="M426 280l-26 -214l-32 -3l-5 4l22 182h-346l-3 5l7 32h378z" />
    <glyph glyph-name="uni00AD" unicode="&#xad;" horiz-adv-x="310" 
d="M286 285l-4 -33l-247 -33l-5 5l4 33l247 33z" />
    <glyph glyph-name="registered" unicode="&#xae;" horiz-adv-x="435" 
d="M348 653q49 -49 49 -129q0 -81 -49 -130.5t-130 -49.5t-130 49.5t-49 130.5q0 80 49 129t130 49t130 -49zM332 410q43 43 43 114q0 70 -43 113t-113 43q-71 0 -114 -43t-43 -113q0 -71 43 -114t114 -43q70 0 113 43zM273.5 535.5q-10.5 -15.5 -29.5 -24.5q24 -35 53 -71
l-1 -4q-5 -2 -27 -5l-3 2q-19 24 -47 72h-35v-10l1 -61h-28v193h65q62 0 62 -56q0 -20 -10.5 -35.5zM185 529l37 -1q34 11 34 40q0 17 -11 26.5t-31 10.5l-28 -1z" />
    <glyph glyph-name="macron" unicode="&#xaf;" horiz-adv-x="388" 
d="M386 616l-3 -32h-285l-4 5l3 31h285z" />
    <glyph glyph-name="degree" unicode="&#xb0;" horiz-adv-x="294" 
d="M277 613.5q31 -31.5 31 -78.5q0 -36 -19.5 -67t-51.5 -49t-68 -18q-48 0 -79.5 31t-31.5 78q0 36 19.5 67t52 49.5t69.5 18.5q47 0 78 -31.5zM143 602q-25 -14 -40 -38t-15 -50q0 -35 24 -59.5t60 -24.5q27 0 51.5 14t39.5 37.5t15 49.5q0 35 -24 60t-59 25
q-27 0 -52 -14z" />
    <glyph glyph-name="plusminus" unicode="&#xb1;" horiz-adv-x="478" 
d="M287 468l-22 -182h181l4 -4l-7 -33h-183l-22 -183l-33 -3l-4 4l22 182h-182l-4 5l8 32h182l23 183l33 4zM409 -45l-3 -33h-402l-5 5l4 32h401z" />
    <glyph glyph-name="uni00B2" unicode="&#xb2;" horiz-adv-x="342" 
d="M292 682.5q26 -20.5 26 -53.5q0 -31 -24 -65t-85 -99l-95 -101l2 -2h153l63 2l1 -5l-9 -34l-72 2h-168l-28 -1l-3 2l4 27l118 123q54 57 76.5 87t22.5 55q0 21 -15 34t-42 13t-55.5 -14t-53.5 -40h-6l-3 33q62 57 127 57q40 0 66 -20.5z" />
    <glyph glyph-name="uni00B3" unicode="&#xb3;" horiz-adv-x="301" 
d="M256 683q27 -21 27 -54q0 -29 -21.5 -56.5t-58.5 -42.5v-2q36 -9 55 -30t19 -52q0 -53 -46.5 -87.5t-117.5 -34.5q-35 0 -63 7l1 31l3 2q44 -6 64 -6q53 0 85.5 23.5t32.5 61.5q0 30 -22 46t-64 18h-37l-3 3l5 29h30q20 1 42 12t37 29.5t15 40.5t-16 35t-42 13
q-40 0 -88 -36h-5l-3 31q29 21 53 30.5t50 9.5q41 0 68 -21z" />
    <glyph glyph-name="acute" unicode="&#xb4;" horiz-adv-x="376" 
d="M305 681l20 -25l-2 -6q-58 -52 -156 -132l-7 1l-16 22q79 66 155 141z" />
    <glyph glyph-name="uni00B5" unicode="&#xb5;" horiz-adv-x="654" 
d="M556 0h-41l7 151l2 266h-4l-196 -358h-40l-99 358h-5l-63 -263l-34 -154h-41l116 494h53l18 -75l83 -299h4l165 305l35 69h51z" />
    <glyph glyph-name="paragraph" unicode="&#xb6;" horiz-adv-x="466" 
d="M485 633l-9 -34h-78l-53 -424l-6 -50q-8 -61 -47 -108.5t-118 -88.5l-13 23l1 7q62 37 93.5 76t37.5 87l5 43l53 435h-65q-78 -5 -121 -50.5t-43 -121.5q0 -60 35 -100t101 -55l-18 -32q-81 15 -124.5 61.5t-43.5 120.5q0 101 62.5 159t171.5 58h174z" />
    <glyph glyph-name="periodcentered" unicode="&#xb7;" horiz-adv-x="230" 
d="M139.5 265q8.5 -9 8.5 -23q0 -15 -8.5 -24t-23.5 -9t-23.5 8.5t-8.5 23.5q0 14 9 23.5t24 9.5q14 0 22.5 -9z" />
    <glyph glyph-name="cedilla" unicode="&#xb8;" horiz-adv-x="387" 
d="M147 -53l33 -20q19 -11 27 -23.5t8 -29.5q0 -27 -20 -43t-50 -16q-21 0 -38 9t-27 23l7 28l4 1q12 -15 24 -23t29 -8q16 0 26 8t10 22q0 10 -5.5 16t-17.5 13l-45 29l24 82h32z" />
    <glyph glyph-name="uni00B9" unicode="&#xb9;" horiz-adv-x="249" 
d="M211 700l-31 -241l-15 -132h-42l16 126l25 203l-95 -24l-4 3l4 32l137 38z" />
    <glyph glyph-name="ordmasculine" unicode="&#xba;" horiz-adv-x="289" 
d="M215 646q36 -5 53.5 -28.5t17.5 -68.5q0 -92 -38.5 -149t-104.5 -61h-5q-72 6 -72 100q0 90 39 147t105 60h5zM131.5 565.5q-26.5 -48.5 -26.5 -125.5q0 -37 10.5 -53.5t33.5 -16.5q46 0 72 48t26 127q0 36 -10 52.5t-33 16.5q-46 0 -72.5 -48.5z" />
    <glyph glyph-name="guillemotright" unicode="&#xbb;" horiz-adv-x="377" 
d="M315 229l-2 -14l-170 -167l-23 15l1 8l153 154l-116 153l2 8l26 15zM160 229l-2 -14l-170 -167l-23 15l1 8l153 154l-116 153l2 8l26 15z" />
    <glyph glyph-name="onequarter" unicode="&#xbc;" horiz-adv-x="677" 
d="M204 639l-31 -241l-15 -132h-42l16 126l25 203l-95 -24l-4 3l4 32l137 38zM592 661l3 -11l-571 -740l-19 11l-3 11l570 741zM630 140l-7 -31l-58 2h-7l-11 -108l-3 -3l-34 -2l-2 2l14 111h-130l-40 -2l-3 5l3 28l200 231h39l-29 -229h64zM393 144h133l23 177h-4z" />
    <glyph glyph-name="onehalf" unicode="&#xbd;" horiz-adv-x="681" 
d="M204 639l-31 -241l-15 -132h-42l16 126l25 203l-95 -24l-4 3l4 32l137 38zM592 661l3 -11l-571 -740l-19 11l-3 11l570 741zM591 355.5q26 -20.5 26 -53.5q0 -31 -24 -65t-85 -99l-95 -101l2 -2h153l63 2l1 -5l-9 -34l-72 2h-168l-28 -1l-3 2l4 27l118 123q54 57 76.5 87
t22.5 55q0 21 -15 34t-42 13t-55.5 -14t-53.5 -40h-6l-3 33q62 57 127 57q40 0 66 -20.5z" />
    <glyph glyph-name="threequarters" unicode="&#xbe;" horiz-adv-x="713" 
d="M249 622q27 -21 27 -54q0 -29 -21.5 -56.5t-58.5 -42.5v-2q36 -9 55 -30t19 -52q0 -53 -46.5 -87.5t-117.5 -34.5q-35 0 -63 7l1 31l3 2q44 -6 64 -6q53 0 85.5 23.5t32.5 61.5q0 30 -22 46t-64 18h-37l-3 3l5 29h30q20 1 42 12t37 29.5t15 40.5t-16 35t-42 13
q-40 0 -88 -36h-5l-3 31q29 21 53 30.5t50 9.5q41 0 68 -21zM628 661l3 -11l-571 -740l-19 11l-3 11l570 741zM666 140l-7 -31l-58 2h-7l-11 -108l-3 -3l-34 -2l-2 2l14 111h-130l-40 -2l-3 5l3 28l200 231h39l-29 -229h64zM429 144h133l23 177h-4z" />
    <glyph glyph-name="questiondown" unicode="&#xbf;" horiz-adv-x="274" 
d="M179 451q-8 8 -8 21t8.5 21.5t21.5 8.5t21 -7.5t8 -20.5q0 -14 -8 -22.5t-22 -8.5q-13 0 -21 8zM47 31.5q-50 30.5 -50 81.5q0 34 21.5 66t61.5 53l83 48l1 3l6 70l32 3l4 -5l-4 -79l-4 -8l-88 -52q-32 -18 -50.5 -42t-18.5 -52q0 -38 41.5 -60.5t122.5 -26.5l4 -5
l-14 -28l-6 -3q-92 6 -142 36.5z" />
    <glyph glyph-name="Agrave" unicode="&#xc0;" horiz-adv-x="536" 
d="M485 0h-50l-6 53l-29 142l-142 1l-129 -1l-68 -140l-22 -55h-50l311 639h55zM391 238l-70 344h-4l-167 -344l118 -2zM425 751l-11 -25l-7 -3q-104 48 -184 89l-2 7l13 28l7 2q99 -58 184 -98z" />
    <glyph glyph-name="Aacute" unicode="&#xc1;" horiz-adv-x="536" 
d="M485 0h-50l-6 53l-29 142l-142 1l-129 -1l-68 -140l-22 -55h-50l311 639h55zM391 238l-70 344h-4l-167 -344l118 -2zM433 847l13 -28l-2 -7q-80 -41 -184 -89l-7 3l-11 25q85 40 184 98z" />
    <glyph glyph-name="Acircumflex" unicode="&#xc2;" horiz-adv-x="536" 
d="M485 0h-50l-6 53l-29 142l-142 1l-129 -1l-68 -140l-22 -55h-50l311 639h55zM391 238l-70 344h-4l-167 -344l118 -2zM222 750q48 32 113 83h19q44 -39 100 -83l-13 -23h-7q-45 33 -90 68q-42 -28 -107 -68h-7z" />
    <glyph glyph-name="Atilde" unicode="&#xc3;" horiz-adv-x="536" 
d="M485 0h-50l-6 53l-29 142l-142 1l-129 -1l-68 -140l-22 -55h-50l311 639h55zM391 238l-70 344h-4l-167 -344l118 -2zM490 814v-5l-56 -58l-8 -3q-19 2 -79 20q-64 18 -77 18q-7 0 -14.5 -6t-20.5 -20l-18 -18h-6l-17 18v6l57 57l7 3q22 -2 81 -20q60 -17 75 -17q7 0 14 6
t22 20l18 17h6z" />
    <glyph glyph-name="Adieresis" unicode="&#xc4;" horiz-adv-x="536" 
d="M485 0h-50l-6 53l-29 142l-142 1l-129 -1l-68 -140l-22 -55h-50l311 639h55zM391 238l-70 344h-4l-167 -344l118 -2zM286 807.5q8 -7.5 8 -21.5t-8.5 -22.5t-22.5 -8.5t-21.5 8t-7.5 22t8.5 22t22.5 8q13 0 21 -7.5zM443 807q8 -8 8 -21q0 -14 -8.5 -22.5t-22.5 -8.5
t-21.5 8t-7.5 22t8 22t22 8t22 -8z" />
    <glyph glyph-name="Aring" unicode="&#xc5;" horiz-adv-x="536" 
d="M485 0h-50l-6 53l-29 142l-142 1l-129 -1l-68 -140l-22 -55h-50l311 639h55zM391 238l-70 344h-4l-167 -344l118 -2zM399 844.5q20 -21.5 20 -53.5q0 -35 -23 -56t-55 -21q-31 0 -53 20.5t-22 55.5q0 33 21 54.5t56 21.5q36 0 56 -21.5zM307 824.5q-13 -12.5 -13 -33.5
q0 -23 13.5 -35.5t34.5 -12.5t35 12t14 34q0 21 -12.5 34.5t-36.5 13.5q-22 0 -35 -12.5z" />
    <glyph glyph-name="AE" unicode="&#xc6;" horiz-adv-x="755" 
d="M713 38l-10 -38h-308l2 53l-6 223l-240 -48l-111 -173l-30 -55h-52l413 639h319l4 -6l-11 -38l-154 2h-98l6 -272l219 42l3 -5l-3 -36l-218 -40l5 -245h112l155 3zM391 316l-7 265h-5l-197 -306z" />
    <glyph glyph-name="Ccedilla" unicode="&#xc7;" horiz-adv-x="499" 
d="M443 630q42 -14 74 -40l-17 -44l-8 -1q-58 56 -143 56q-118 0 -183 -90t-65 -251q0 -108 44 -165.5t127 -57.5q44 0 89 16.5t85 47.5l8 -3l-10 -46q-90 -58 -178 -58q-104 0 -159.5 67.5t-55.5 191.5q0 121 36 209t104.5 135t163.5 47q46 0 88 -14zM285 -53l33 -20
q19 -11 27 -23.5t8 -29.5q0 -27 -20 -43t-50 -16q-21 0 -38 9t-27 23l7 28l4 1q12 -15 24 -23t29 -8q16 0 26 8t10 22q0 10 -5.5 16t-17.5 13l-45 29l24 82h32z" />
    <glyph glyph-name="Egrave" unicode="&#xc8;" horiz-adv-x="447" 
d="M194 596l-31 -246l118 -1l101 2l4 -6l-10 -37l-105 1l-114 -1l-14 -111l-18 -155l123 -1l147 3l3 -6l-10 -38h-317l28 194l53 445h316l3 -6l-10 -38l-140 2zM412 751l-11 -25l-7 -3q-104 48 -184 89l-2 7l13 28l7 2q99 -58 184 -98z" />
    <glyph glyph-name="Eacute" unicode="&#xc9;" horiz-adv-x="447" 
d="M194 596l-31 -246l118 -1l101 2l4 -6l-10 -37l-105 1l-114 -1l-14 -111l-18 -155l123 -1l147 3l3 -6l-10 -38h-317l28 194l53 445h316l3 -6l-10 -38l-140 2zM420 847l13 -28l-2 -7q-80 -41 -184 -89l-7 3l-11 25q85 40 184 98z" />
    <glyph glyph-name="Ecircumflex" unicode="&#xca;" horiz-adv-x="447" 
d="M194 596l-31 -246l118 -1l101 2l4 -6l-10 -37l-105 1l-114 -1l-14 -111l-18 -155l123 -1l147 3l3 -6l-10 -38h-317l28 194l53 445h316l3 -6l-10 -38l-140 2zM209 750q48 32 113 83h19q44 -39 100 -83l-13 -23h-7q-45 33 -90 68q-42 -28 -107 -68h-7z" />
    <glyph glyph-name="Edieresis" unicode="&#xcb;" horiz-adv-x="447" 
d="M194 596l-31 -246l118 -1l101 2l4 -6l-10 -37l-105 1l-114 -1l-14 -111l-18 -155l123 -1l147 3l3 -6l-10 -38h-317l28 194l53 445h316l3 -6l-10 -38l-140 2zM273 807.5q8 -7.5 8 -21.5t-8.5 -22.5t-22.5 -8.5t-21.5 8t-7.5 22t8.5 22t22.5 8q13 0 21 -7.5zM430 807
q8 -8 8 -21q0 -14 -8.5 -22.5t-22.5 -8.5t-21.5 8t-7.5 22t8 22t22 8t22 -8z" />
    <glyph glyph-name="Igrave" unicode="&#xcc;" horiz-adv-x="247" 
d="M143 197l-23 -197h-49l27 194l53 445h49zM275 751l-11 -25l-7 -3q-104 48 -184 89l-2 7l13 28l7 2q99 -58 184 -98z" />
    <glyph glyph-name="Iacute" unicode="&#xcd;" horiz-adv-x="247" 
d="M143 197l-23 -197h-49l27 194l53 445h49zM283 847l13 -28l-2 -7q-80 -41 -184 -89l-7 3l-11 25q85 40 184 98z" />
    <glyph glyph-name="Icircumflex" unicode="&#xce;" horiz-adv-x="247" 
d="M143 197l-23 -197h-49l27 194l53 445h49zM72 750q48 32 113 83h19q44 -39 100 -83l-13 -23h-7q-45 33 -90 68q-42 -28 -107 -68h-7z" />
    <glyph glyph-name="Eth" unicode="&#xd0;" horiz-adv-x="637" 
d="M550 578q61 -65 61 -184q0 -122 -38 -212t-111.5 -138.5t-176.5 -48.5q-36 0 -91 1.5t-100 3.5h-1l28 194l53 445l202 4q113 0 174 -65zM490.5 128q70.5 92 70.5 257q0 106 -48.5 161t-141.5 55q-28 0 -72.5 -1t-81.5 -3l-52 -400l-18 -155q39 -2 80 -4t67 -2
q126 0 196.5 92zM353.67 341l-4.3623 -33h-316.539l-1.86914 5l4.3623 32h316.538z" />
    <glyph glyph-name="Ntilde" unicode="&#xd1;" horiz-adv-x="647" 
d="M540 182l-22 -182h-49l-277 557h-6l-45 -352l-24 -205h-46l27 190l55 449h49l277 -557h5l70 554l46 4zM541 814v-5l-56 -58l-8 -3q-19 2 -79 20q-64 18 -77 18q-7 0 -14.5 -6t-20.5 -20l-18 -18h-6l-17 18v6l57 57l7 3q22 -2 81 -20q60 -17 75 -17q7 0 14 6t22 20l18 17
h6z" />
    <glyph glyph-name="Ograve" unicode="&#xd2;" horiz-adv-x="605" 
d="M521.5 578.5q57.5 -66.5 57.5 -187.5q0 -122 -36 -211.5t-105.5 -137.5t-166.5 -48q-105 0 -162.5 68t-57.5 192q0 121 36 209t105 135t166 47q106 0 163.5 -66.5zM165.5 512.5q-64.5 -90.5 -64.5 -254.5q0 -108 44.5 -165t129.5 -57q123 0 188.5 91.5t65.5 256.5
q0 108 -44.5 163.5t-131.5 55.5q-123 0 -187.5 -90.5zM454 751l-11 -25l-7 -3q-104 48 -184 89l-2 7l13 28l7 2q99 -58 184 -98z" />
    <glyph glyph-name="Oacute" unicode="&#xd3;" horiz-adv-x="605" 
d="M521.5 578.5q57.5 -66.5 57.5 -187.5q0 -122 -36 -211.5t-105.5 -137.5t-166.5 -48q-105 0 -162.5 68t-57.5 192q0 121 36 209t105 135t166 47q106 0 163.5 -66.5zM165.5 512.5q-64.5 -90.5 -64.5 -254.5q0 -108 44.5 -165t129.5 -57q123 0 188.5 91.5t65.5 256.5
q0 108 -44.5 163.5t-131.5 55.5q-123 0 -187.5 -90.5zM462 847l13 -28l-2 -7q-80 -41 -184 -89l-7 3l-11 25q85 40 184 98z" />
    <glyph glyph-name="Ocircumflex" unicode="&#xd4;" horiz-adv-x="605" 
d="M521.5 578.5q57.5 -66.5 57.5 -187.5q0 -122 -36 -211.5t-105.5 -137.5t-166.5 -48q-105 0 -162.5 68t-57.5 192q0 121 36 209t105 135t166 47q106 0 163.5 -66.5zM165.5 512.5q-64.5 -90.5 -64.5 -254.5q0 -108 44.5 -165t129.5 -57q123 0 188.5 91.5t65.5 256.5
q0 108 -44.5 163.5t-131.5 55.5q-123 0 -187.5 -90.5zM251 750q48 32 113 83h19q44 -39 100 -83l-13 -23h-7q-45 33 -90 68q-42 -28 -107 -68h-7z" />
    <glyph glyph-name="Otilde" unicode="&#xd5;" horiz-adv-x="605" 
d="M521.5 578.5q57.5 -66.5 57.5 -187.5q0 -122 -36 -211.5t-105.5 -137.5t-166.5 -48q-105 0 -162.5 68t-57.5 192q0 121 36 209t105 135t166 47q106 0 163.5 -66.5zM165.5 512.5q-64.5 -90.5 -64.5 -254.5q0 -108 44.5 -165t129.5 -57q123 0 188.5 91.5t65.5 256.5
q0 108 -44.5 163.5t-131.5 55.5q-123 0 -187.5 -90.5zM519 814v-5l-56 -58l-8 -3q-19 2 -79 20q-64 18 -77 18q-7 0 -14.5 -6t-20.5 -20l-18 -18h-6l-17 18v6l57 57l7 3q22 -2 81 -20q60 -17 75 -17q7 0 14 6t22 20l18 17h6z" />
    <glyph glyph-name="multiply" unicode="&#xd7;" horiz-adv-x="481" 
d="M417 403l-1 -7l-144 -128l112 -129l-1 -6l-27 -21l-114 129l-146 -129l-22 21v6l146 129l-114 128l1 7l27 21l114 -130l146 130z" />
    <glyph glyph-name="Oslash" unicode="&#xd8;" horiz-adv-x="606" 
d="M558.5 516q20.5 -53 20.5 -125q0 -122 -36 -211.5t-105.5 -137.5t-166.5 -48q-57 0 -104 22l-62 -110l-30 10l-2 5l64 114q-42 32 -64 87.5t-22 131.5q0 121 36 209t105 135t166 47q63 0 110 -24l54 95l30 -10l2 -7l-56 -98q40 -32 60.5 -85zM161 76l285 505
q-41 22 -93 22q-123 0 -187.5 -90.5t-64.5 -254.5q0 -126 60 -182zM463.5 127.5q65.5 91.5 65.5 256.5q0 120 -55 174l-284 -503q36 -19 85 -19q123 0 188.5 91.5z" />
    <glyph glyph-name="Ugrave" unicode="&#xd9;" horiz-adv-x="590" 
d="M522 313l-9 -78q-12 -115 -75 -177.5t-169 -62.5q-92 0 -143 47.5t-51 135.5q0 29 4 54l13 90l39 317h47l-53 -403q-3 -24 -3 -47q0 -74 38 -112.5t111 -38.5q84 0 134.5 49.5t62.5 144.5l48 407h48zM447 751l-11 -25l-7 -3q-104 48 -184 89l-2 7l13 28l7 2
q99 -58 184 -98z" />
    <glyph glyph-name="Uacute" unicode="&#xda;" horiz-adv-x="590" 
d="M522 313l-9 -78q-12 -115 -75 -177.5t-169 -62.5q-92 0 -143 47.5t-51 135.5q0 29 4 54l13 90l39 317h47l-53 -403q-3 -24 -3 -47q0 -74 38 -112.5t111 -38.5q84 0 134.5 49.5t62.5 144.5l48 407h48zM455 847l13 -28l-2 -7q-80 -41 -184 -89l-7 3l-11 25q85 40 184 98z
" />
    <glyph glyph-name="Ucircumflex" unicode="&#xdb;" horiz-adv-x="590" 
d="M522 313l-9 -78q-12 -115 -75 -177.5t-169 -62.5q-92 0 -143 47.5t-51 135.5q0 29 4 54l13 90l39 317h47l-53 -403q-3 -24 -3 -47q0 -74 38 -112.5t111 -38.5q84 0 134.5 49.5t62.5 144.5l48 407h48zM244 750q48 32 113 83h19q44 -39 100 -83l-13 -23h-7q-45 33 -90 68
q-42 -28 -107 -68h-7z" />
    <glyph glyph-name="Udieresis" unicode="&#xdc;" horiz-adv-x="590" 
d="M522 313l-9 -78q-12 -115 -75 -177.5t-169 -62.5q-92 0 -143 47.5t-51 135.5q0 29 4 54l13 90l39 317h47l-53 -403q-3 -24 -3 -47q0 -74 38 -112.5t111 -38.5q84 0 134.5 49.5t62.5 144.5l48 407h48zM312 807.5q8 -7.5 8 -21.5t-8.5 -22.5t-22.5 -8.5t-21.5 8t-7.5 22
t8.5 22t22.5 8q13 0 21 -7.5zM469 807q8 -8 8 -21q0 -14 -8.5 -22.5t-22.5 -8.5t-21.5 8t-7.5 22t8 22t22 8t22 -8z" />
    <glyph glyph-name="Thorn" unicode="&#xde;" horiz-adv-x="485" 
d="M413.5 482.5q42.5 -40.5 42.5 -117.5q0 -112 -64.5 -178.5t-178.5 -66.5h-79l-14 -120h-48l26 194l54 445h48l-15 -117l109 1q77 0 119.5 -40.5zM365 223q42 54 42 135q0 117 -119 123l-109 -2l-36 -282l-4 -34l112 -2q72 8 114 62z" />
    <glyph glyph-name="germandbls" unicode="&#xdf;" horiz-adv-x="523" 
d="M382.5 487q39.5 -11 86.5 -34l1 -11l-156 -164q76 -19 114 -51t38 -83q0 -44 -22.5 -77.5t-61 -52t-84.5 -18.5q-33 0 -67 9t-58 26l11 45l6 2q22 -21 53 -32.5t58 -11.5q50 0 83.5 31t33.5 74q0 42 -41.5 68.5t-123.5 41.5l-1 13l158 165q-58 32 -115 32q-64 0 -106 -35
t-50 -94l-23 -176l-18 -154h-45l20 146l22 184q10 76 66.5 122t141.5 46q40 0 79.5 -11z" />
    <glyph glyph-name="agrave" unicode="&#xe0;" horiz-adv-x="482" 
d="M168 689l-2 6l20 25l6 1q76 -75 155 -141l-16 -22l-7 -1q-98 80 -156 132zM417 0h-48l-4 44l-23 101l-118 1l-106 -1l-51 -99l-19 -46h-47l252 494h53zM274 444h-4l-133 -260h196z" />
    <glyph glyph-name="aacute" unicode="&#xe1;" horiz-adv-x="482" 
d="M223 558l-16 22q79 66 155 141l6 -1l20 -25l-2 -6q-58 -52 -156 -132zM417 0h-48l-4 44l-23 101l-118 1l-106 -1l-51 -99l-19 -46h-47l252 494h53zM274 444h-4l-133 -260h196z" />
    <glyph glyph-name="acircumflex" unicode="&#xe2;" horiz-adv-x="482" 
d="M180 560l-12 21q42 41 124 130h20q56 -82 97 -130l-18 -21h-6q-43 49 -85 111q-49 -51 -113 -111h-7zM417 0h-48l-4 44l-23 101l-118 1l-106 -1l-51 -99l-19 -46h-47l252 494h53zM274 444h-4l-133 -260h196z" />
    <glyph glyph-name="atilde" unicode="&#xe3;" horiz-adv-x="482" 
d="M442 669v-5l-56 -58l-8 -3q-19 2 -79 20q-64 18 -77 18q-7 0 -14.5 -6t-20.5 -20l-18 -18h-6l-17 18v6l57 57l7 3q22 -2 81 -20q60 -17 75 -17q7 0 14.5 6t21.5 20l18 17h6zM306 494l111 -494h-48l-4 44l-23 101l-118 1l-106 -1l-51 -99l-19 -46h-47l252 494h53zM274 444
h-4l-133 -260h196z" />
    <glyph glyph-name="adieresis" unicode="&#xe4;" horiz-adv-x="482" 
d="M194.5 618q-7.5 8 -7.5 22t8.5 22t22.5 8t21.5 -7.5t7.5 -21.5t-8.5 -22.5t-22.5 -8.5t-21.5 8zM351.5 618q-7.5 8 -7.5 22t8 22t22 8t22 -8t8 -21q0 -14 -8.5 -22.5t-22.5 -8.5t-21.5 8zM417 0h-48l-4 44l-23 101l-118 1l-106 -1l-51 -99l-19 -46h-47l252 494h53z
M274 444h-4l-133 -260h196z" />
    <glyph glyph-name="aring" unicode="&#xe5;" horiz-adv-x="482" 
d="M240 589.5q-22 20.5 -22 55.5q0 33 21 54.5t56 21.5q36 0 56 -21.5t20 -53.5q0 -35 -23 -56t-55 -21q-31 0 -53 20.5zM259 679.5q-13 -12.5 -13 -33.5q0 -23 13.5 -35.5t34.5 -12.5t35 12t14 34q0 21 -12.5 34.5t-36.5 13.5q-22 0 -35 -12.5zM417 0h-48l-4 44l-23 101
l-118 1l-106 -1l-51 -99l-19 -46h-47l252 494h53zM274 444h-4l-133 -260h196z" />
    <glyph glyph-name="ae" unicode="&#xe6;" horiz-adv-x="664" 
d="M609 37l-9 -37h-261l3 44l-6 162l-204 -40l-83 -121l-24 -45h-49l339 494h271l3 -5l-10 -36l-129 4h-79l7 -204l179 33l4 -3l-3 -37l-179 -32l6 -175h92l129 2zM334 245l-7 199h-4l-160 -232z" />
    <glyph glyph-name="ccedilla" unicode="&#xe7;" horiz-adv-x="447" 
d="M377 488q35 -10 61 -29l-15 -42l-7 -2q-23 21 -53.5 32.5t-65.5 11.5q-94 0 -145.5 -66.5t-51.5 -188.5q0 -81 35.5 -125t102.5 -44q36 0 74 13t70 36l6 -3l-9 -42q-56 -35 -118 -43l-16 -51l33 -20q19 -11 27 -23.5t8 -29.5q0 -27 -20 -43t-50 -16q-21 0 -38 9t-27 23
l7 28l4 1q12 -15 24 -23t29 -8q16 0 26 8t10 22q0 10 -5.5 16t-17.5 13l-45 29l19 64q-85 2 -131 55t-46 149q0 142 66 220.5t186 78.5q38 0 73 -10z" />
    <glyph glyph-name="egrave" unicode="&#xe8;" horiz-adv-x="408" 
d="M156 689l-2 6l20 25l6 1q76 -75 155 -141l-16 -22l-7 -1q-98 80 -156 132zM172 456l-24 -182h99l83 1l3 -5l-8 -36l-87 1h-95l-11 -81l-13 -115l98 -1l126 2l4 -4l-10 -36h-268l20 150l42 344h268l3 -5l-9 -36l-117 3h-104z" />
    <glyph glyph-name="eacute" unicode="&#xe9;" horiz-adv-x="408" 
d="M210 558l-16 22q79 66 155 141l6 -1l20 -25l-2 -6q-58 -52 -156 -132zM172 456l-24 -182h99l83 1l3 -5l-8 -36l-87 1h-95l-11 -81l-13 -115l98 -1l126 2l4 -4l-10 -36h-268l20 150l42 344h268l3 -5l-9 -36l-117 3h-104z" />
    <glyph glyph-name="ecircumflex" unicode="&#xea;" horiz-adv-x="408" 
d="M167 560l-12 21q42 41 124 130h20q56 -82 97 -130l-18 -21h-6q-43 49 -85 111q-49 -51 -113 -111h-7zM172 456l-24 -182h99l83 1l3 -5l-8 -36l-87 1h-95l-11 -81l-13 -115l98 -1l126 2l4 -4l-10 -36h-268l20 150l42 344h268l3 -5l-9 -36l-117 3h-104z" />
    <glyph glyph-name="edieresis" unicode="&#xeb;" horiz-adv-x="408" 
d="M181.5 618q-7.5 8 -7.5 22t8.5 22t22.5 8t21.5 -7.5t7.5 -21.5t-8.5 -22.5t-22.5 -8.5t-21.5 8zM338.5 618q-7.5 8 -7.5 22t8 22t22 8t22 -8t8 -21q0 -14 -8.5 -22.5t-22.5 -8.5t-21.5 8zM172 456l-24 -182h99l83 1l3 -5l-8 -36l-87 1h-95l-11 -81l-13 -115l98 -1l126 2
l4 -4l-10 -36h-268l20 150l42 344h268l3 -5l-9 -36l-117 3h-104z" />
    <glyph glyph-name="igrave" unicode="&#xec;" horiz-adv-x="243" 
d="M222 580l-16 -22l-7 -1q-98 80 -156 132l-2 6l20 25l6 1q76 -75 155 -141zM133 154l-18 -154h-46l21 150l41 344h46z" />
    <glyph glyph-name="iacute" unicode="&#xed;" horiz-adv-x="243" 
d="M243 720l20 -25l-2 -6q-58 -52 -156 -132l-7 1l-16 22q79 66 155 141zM133 154l-18 -154h-46l21 150l41 344h46z" />
    <glyph glyph-name="icircumflex" unicode="&#xee;" horiz-adv-x="243" 
d="M43 581q42 41 124 130h20q56 -82 97 -130l-18 -21h-6q-43 49 -85 111q-49 -51 -113 -111h-7zM133 154l-18 -154h-46l21 150l41 344h46z" />
    <glyph glyph-name="eth" unicode="&#xf0;" horiz-adv-x="548" 
d="M450.5 446.5q52.5 -51.5 52.5 -144.5q0 -143 -70.5 -224.5t-199.5 -81.5q-31 0 -77 1t-84 3l20 150l9 77h-92l-3 5l6 31h94l28 231l170 4q94 0 146.5 -51.5zM399 102.5q56 68.5 56 191.5q0 80 -40 122t-116 42q-22 0 -58.5 -1t-66.5 -3l-25 -191h129l3 -5l-6 -31h-131
l-9 -73l-13 -115q22 -2 60 -3.5t60 -1.5q101 0 157 68.5z" />
    <glyph glyph-name="ntilde" unicode="&#xf1;" horiz-adv-x="572" 
d="M483 669v-5l-56 -58l-8 -3q-19 2 -79 20q-64 18 -77 18q-7 0 -14.5 -6t-20.5 -20l-18 -18h-6l-17 18v6l57 57l7 3q22 -2 81 -20q60 -17 75 -17q7 0 14 5.5t22 20.5l18 17h6zM461 143l-17 -143h-48l-229 418h-3l-34 -258l-19 -160h-42l20 146l43 348h47l230 -418h5l51 417
l43 3z" />
    <glyph glyph-name="ograve" unicode="&#xf2;" horiz-adv-x="536" 
d="M369 580l-16 -22l-7 -1q-98 80 -156 132l-2 6l20 25l6 1q76 -75 155 -141zM443.5 446.5q48.5 -52.5 48.5 -152.5q0 -90 -30 -157.5t-87.5 -104.5t-136.5 -37q-90 0 -138.5 53.5t-48.5 155.5q0 137 67 216t187 79q90 0 138.5 -52.5zM150.5 394q-51.5 -65 -51.5 -186
q0 -88 35 -130.5t107 -42.5q98 0 150.5 66t52.5 187q0 86 -36 128.5t-109 42.5q-97 0 -148.5 -65z" />
    <glyph glyph-name="oacute" unicode="&#xf3;" horiz-adv-x="536" 
d="M390 720l20 -25l-2 -6q-58 -52 -156 -132l-7 1l-16 22q79 66 155 141zM443.5 446.5q48.5 -52.5 48.5 -152.5q0 -90 -30 -157.5t-87.5 -104.5t-136.5 -37q-90 0 -138.5 53.5t-48.5 155.5q0 137 67 216t187 79q90 0 138.5 -52.5zM150.5 394q-51.5 -65 -51.5 -186
q0 -88 35 -130.5t107 -42.5q98 0 150.5 66t52.5 187q0 86 -36 128.5t-109 42.5q-97 0 -148.5 -65z" />
    <glyph glyph-name="ocircumflex" unicode="&#xf4;" horiz-adv-x="536" 
d="M190 581q42 41 124 130h20q56 -82 97 -130l-18 -21h-6q-43 49 -85 111q-49 -51 -113 -111h-7zM443.5 446.5q48.5 -52.5 48.5 -152.5q0 -90 -30 -157.5t-87.5 -104.5t-136.5 -37q-90 0 -138.5 53.5t-48.5 155.5q0 137 67 216t187 79q90 0 138.5 -52.5zM150.5 394
q-51.5 -65 -51.5 -186q0 -88 35 -130.5t107 -42.5q98 0 150.5 66t52.5 187q0 86 -36 128.5t-109 42.5q-97 0 -148.5 -65z" />
    <glyph glyph-name="otilde" unicode="&#xf5;" horiz-adv-x="536" 
d="M465 669v-5l-56 -58l-8 -3q-19 2 -79 20q-64 18 -77 18q-7 0 -14.5 -6t-20.5 -20l-18 -18h-6l-17 18v6l57 57l7 3q22 -2 81 -20q60 -17 75 -17q7 0 14 5.5t22 20.5l18 17h6zM443.5 446.5q48.5 -52.5 48.5 -152.5q0 -90 -30 -157.5t-87.5 -104.5t-136.5 -37
q-90 0 -138.5 53.5t-48.5 155.5q0 137 67 216t187 79q90 0 138.5 -52.5zM150.5 394q-51.5 -65 -51.5 -186q0 -88 35 -130.5t107 -42.5q98 0 150.5 66t52.5 187q0 86 -36 128.5t-109 42.5q-97 0 -148.5 -65z" />
    <glyph glyph-name="divide" unicode="&#xf7;" horiz-adv-x="478" 
d="M448 282l-3 -33h-402l-5 5l4 32h401zM244.285 113.499q8.25977 -8.74512 8.25977 -22.3486q0 -14.5752 -8.25977 -23.3203q-8.25879 -8.74512 -22.834 -8.74512t-22.834 8.25879q-8.25977 8.25977 -8.25977 22.835q0 13.6035 8.74512 22.835
q8.74512 9.23047 23.3203 9.23047q13.6035 0 21.8623 -8.74512zM288.285 470.499q8.25977 -8.74512 8.25977 -22.3486q0 -14.5752 -8.25977 -23.3203q-8.25879 -8.74512 -22.834 -8.74512t-22.834 8.25879q-8.25977 8.25977 -8.25977 22.835q0 13.6035 8.74512 22.835
q8.74512 9.23047 23.3203 9.23047q13.6035 0 21.8623 -8.74512z" />
    <glyph glyph-name="oslash" unicode="&#xf8;" horiz-adv-x="536" 
d="M492 294q0 -90 -30 -157.5t-87.5 -104.5t-136.5 -37q-48 0 -84 15l-57 -98l-30 16l-2 6l55 95q-69 52 -69 175q0 137 67 216t187 79q45 0 78 -13l47 83l30 -16l3 -6l-45 -78q74 -51 74 -175zM142 69l219 380q-26 10 -62 10q-97 0 -148.5 -65t-51.5 -186q0 -97 43 -139z
M391.5 101q52.5 66 52.5 187q0 101 -49 141l-220 -382q27 -12 66 -12q98 0 150.5 66z" />
    <glyph glyph-name="ugrave" unicode="&#xf9;" horiz-adv-x="526" 
d="M365 580l-16 -22l-7 -1q-98 80 -156 132l-2 6l20 25l6 1q76 -75 155 -141zM447 242l-9 -67q-9 -86 -61.5 -132.5t-140.5 -46.5q-79 0 -122 36.5t-43 105.5q0 18 3 37l11 73l30 246h46l-43 -313q-2 -22 -2 -31q0 -56 31.5 -85t91.5 -29q68 0 108 37t49 108l38 313h46z" />
    <glyph glyph-name="uacute" unicode="&#xfa;" horiz-adv-x="526" 
d="M385 720l20 -25l-2 -6q-58 -52 -156 -132l-7 1l-16 22q79 66 155 141zM447 242l-9 -67q-9 -86 -61.5 -132.5t-140.5 -46.5q-79 0 -122 36.5t-43 105.5q0 18 3 37l11 73l30 246h46l-43 -313q-2 -22 -2 -31q0 -56 31.5 -85t91.5 -29q68 0 108 37t49 108l38 313h46z" />
    <glyph glyph-name="ucircumflex" unicode="&#xfb;" horiz-adv-x="526" 
d="M185 581q42 41 124 130h20q56 -82 97 -130l-18 -21h-6q-43 49 -85 111q-49 -51 -113 -111h-7zM447 242l-9 -67q-9 -86 -61.5 -132.5t-140.5 -46.5q-79 0 -122 36.5t-43 105.5q0 18 3 37l11 73l30 246h46l-43 -313q-2 -22 -2 -31q0 -56 31.5 -85t91.5 -29q68 0 108 37
t49 108l38 313h46z" />
    <glyph glyph-name="udieresis" unicode="&#xfc;" horiz-adv-x="526" 
d="M256.5 662.5q7.5 -7.5 7.5 -21.5t-8.5 -22.5t-22.5 -8.5t-21.5 8t-7.5 22t8.5 22t22.5 8t21.5 -7.5zM413 662q8 -8 8 -21q0 -14 -8.5 -22.5t-22.5 -8.5t-21.5 8t-7.5 22t8 22t22 8t22 -8zM447 242l-9 -67q-9 -86 -61.5 -132.5t-140.5 -46.5q-79 0 -122 36.5t-43 105.5
q0 18 3 37l11 73l30 246h46l-43 -313q-2 -22 -2 -31q0 -56 31.5 -85t91.5 -29q68 0 108 37t49 108l38 313h46z" />
    <glyph glyph-name="thorn" unicode="&#xfe;" horiz-adv-x="441" 
d="M360.5 373.5q36.5 -33.5 36.5 -92.5q0 -54 -25 -96.5t-70 -67t-103 -24.5h-73l-11 -93h-46l21 150l42 344h46l-12 -88l93 1q65 0 101.5 -33.5zM315.5 177.5q32.5 39.5 32.5 98.5q0 88 -98 94l-89 -2l-28 -214l-3 -22l95 -2q58 8 90.5 47.5z" />
    <glyph glyph-name="ydieresis" unicode="&#xff;" horiz-adv-x="443" 
d="M170.5 618q-7.5 8 -7.5 22t8.5 22t22.5 8t21.5 -7.5t7.5 -21.5t-8.5 -22.5t-22.5 -8.5t-21.5 8zM327.5 618q-7.5 8 -7.5 22t8 22t22 8t22 -8t8 -21q0 -14 -8.5 -22.5t-22.5 -8.5t-21.5 8zM231 180l-5 -34l-18 -146h-45l21 146l4 35l-121 313h51l6 -24l90 -235h5l161 233
l14 26h50z" />
    <glyph glyph-name="Amacron" unicode="&#x100;" horiz-adv-x="536" 
d="M485 0h-50l-6 53l-29 142l-142 1l-129 -1l-68 -140l-22 -55h-50l311 639h55zM391 238l-70 344h-4l-167 -344l118 -2zM488 800l-3 -32h-285l-4 5l3 31h285z" />
    <glyph glyph-name="amacron" unicode="&#x101;" horiz-adv-x="482" 
d="M441 655l-3 -32h-285l-4 5l3 31h285zM306 494l111 -494h-48l-4 44l-23 101l-118 1l-106 -1l-51 -99l-19 -46h-47l252 494h53zM274 444h-4l-133 -260h196z" />
    <glyph glyph-name="Abreve" unicode="&#x102;" horiz-adv-x="536" 
d="M485 0h-50l-6 53l-29 142l-142 1l-129 -1l-68 -140l-22 -55h-50l311 639h55zM391 238l-70 344h-4l-167 -344l118 -2zM452 808q-18 -39 -48.5 -60t-72.5 -21t-69.5 21t-34.5 60l19 19h8q12 -63 80 -63q33 0 57 16.5t37 46.5h8z" />
    <glyph glyph-name="abreve" unicode="&#x103;" horiz-adv-x="482" 
d="M210 590.5q-24 27.5 -29 82.5l20 21h8q2 -48 21 -70.5t55 -22.5t60.5 22.5t37.5 70.5h8l15 -21q-34 -110 -123 -110q-49 0 -73 27.5zM417 0h-48l-4 44l-23 101l-118 1l-106 -1l-51 -99l-19 -46h-47l252 494h53zM274 444h-4l-133 -260h196z" />
    <glyph glyph-name="Aogonek" unicode="&#x104;" horiz-adv-x="536" 
d="M485 0h-50l-6 53l-29 142l-142 1l-129 -1l-68 -140l-22 -55h-50l311 639h55zM391 238l-70 344h-4l-167 -344l118 -2zM422 -76q-24 -30 -30.5 -41.5t-6.5 -22.5q0 -10 6.5 -16t17.5 -6q14 0 26 8.5t27 28.5h3l14 -26q-19 -24 -36.5 -35t-38.5 -11q-26 0 -41.5 13.5
t-15.5 35.5q0 23 18.5 50t81.5 98h38q-39 -46 -63 -76z" />
    <glyph glyph-name="aogonek" unicode="&#x105;" horiz-adv-x="482" 
d="M397 -125l14 -26q-19 -24 -36.5 -35t-38.5 -11q-26 0 -41.5 13.5t-15.5 35.5q0 23 18.5 50t81.5 98h-10l-4 44l-23 101l-118 1l-106 -1l-51 -99l-19 -46h-47l252 494h53l111 -494q-39 -46 -63 -76t-30.5 -41.5t-6.5 -22.5q0 -10 6.5 -16t17.5 -6q14 0 26 8.5t27 28.5h3z
M274 444h-4l-133 -260h196z" />
    <glyph glyph-name="Cacute" unicode="&#x106;" horiz-adv-x="499" 
d="M443 630q42 -14 74 -40l-17 -44l-8 -1q-58 56 -143 56q-118 0 -183 -90t-65 -251q0 -108 44 -165.5t127 -57.5q44 0 89 16.5t85 47.5l8 -3l-10 -46q-90 -58 -178 -58q-104 0 -159.5 67.5t-55.5 191.5q0 121 36 209t104.5 135t163.5 47q46 0 88 -14zM445 847l13 -28l-2 -7
q-80 -41 -184 -89l-7 3l-11 25q85 40 184 98z" />
    <glyph glyph-name="cacute" unicode="&#x107;" horiz-adv-x="447" 
d="M364 720l20 -25l-2 -6q-58 -52 -156 -132l-7 1l-16 22q79 66 155 141zM377 488q35 -10 61 -29l-15 -42l-7 -2q-23 21 -53.5 32.5t-65.5 11.5q-94 0 -145.5 -66.5t-51.5 -188.5q0 -81 35.5 -125t102.5 -44q36 0 74 13t70 36l6 -3l-9 -42q-70 -44 -144 -44
q-88 0 -135.5 53.5t-47.5 150.5q0 142 66 220.5t186 78.5q38 0 73 -10z" />
    <glyph glyph-name="Ccircumflex" unicode="&#x108;" horiz-adv-x="499" 
d="M443 630q42 -14 74 -40l-17 -44l-8 -1q-58 56 -143 56q-118 0 -183 -90t-65 -251q0 -108 44 -165.5t127 -57.5q44 0 89 16.5t85 47.5l8 -3l-10 -46q-90 -58 -178 -58q-104 0 -159.5 67.5t-55.5 191.5q0 121 36 209t104.5 135t163.5 47q46 0 88 -14zM234 750q48 32 113 83
h19q44 -39 100 -83l-13 -23h-7q-45 33 -90 68q-42 -28 -107 -68h-7z" />
    <glyph glyph-name="ccircumflex" unicode="&#x109;" horiz-adv-x="447" 
d="M164 581q42 41 124 130h20q56 -82 97 -130l-18 -21h-6q-43 49 -85 111q-49 -51 -113 -111h-7zM377 488q35 -10 61 -29l-15 -42l-7 -2q-23 21 -53.5 32.5t-65.5 11.5q-94 0 -145.5 -66.5t-51.5 -188.5q0 -81 35.5 -125t102.5 -44q36 0 74 13t70 36l6 -3l-9 -42
q-70 -44 -144 -44q-88 0 -135.5 53.5t-47.5 150.5q0 142 66 220.5t186 78.5q38 0 73 -10z" />
    <glyph glyph-name="Cdotaccent" unicode="&#x10a;" horiz-adv-x="499" 
d="M443 630q42 -14 74 -40l-17 -44l-8 -1q-58 56 -143 56q-118 0 -183 -90t-65 -251q0 -108 44 -165.5t127 -57.5q44 0 89 16.5t85 47.5l8 -3l-10 -46q-90 -58 -178 -58q-104 0 -159.5 67.5t-55.5 191.5q0 121 36 209t104.5 135t163.5 47q46 0 88 -14zM379.5 821
q8.5 -9 8.5 -23q0 -15 -8.5 -24t-23.5 -9t-23.5 8.5t-8.5 23.5q0 14 9 23.5t24 9.5q14 0 22.5 -9z" />
    <glyph glyph-name="cdotaccent" unicode="&#x10b;" horiz-adv-x="447" 
d="M316.5 676q8.5 -9 8.5 -23q0 -15 -8.5 -24t-23.5 -9t-23.5 8.5t-8.5 23.5q0 14 9 23.5t24 9.5q14 0 22.5 -9zM377 488q35 -10 61 -29l-15 -42l-7 -2q-23 21 -53.5 32.5t-65.5 11.5q-94 0 -145.5 -66.5t-51.5 -188.5q0 -81 35.5 -125t102.5 -44q36 0 74 13t70 36l6 -3
l-9 -42q-70 -44 -144 -44q-88 0 -135.5 53.5t-47.5 150.5q0 142 66 220.5t186 78.5q38 0 73 -10z" />
    <glyph glyph-name="Ccaron" unicode="&#x10c;" horiz-adv-x="499" 
d="M443 630q42 -14 74 -40l-17 -44l-8 -1q-58 56 -143 56q-118 0 -183 -90t-65 -251q0 -108 44 -165.5t127 -57.5q44 0 89 16.5t85 47.5l8 -3l-10 -46q-90 -58 -178 -58q-104 0 -159.5 67.5t-55.5 191.5q0 121 36 209t104.5 135t163.5 47q46 0 88 -14zM471 810
q-48 -32 -113 -83h-19q-44 39 -100 83l13 23h7q45 -33 90 -68q42 28 107 68h7z" />
    <glyph glyph-name="ccaron" unicode="&#x10d;" horiz-adv-x="447" 
d="M411 690q-42 -41 -124 -130h-20q-56 82 -97 130l18 21h6q43 -49 85 -111q49 51 113 111h7zM377 488q35 -10 61 -29l-15 -42l-7 -2q-23 21 -53.5 32.5t-65.5 11.5q-94 0 -145.5 -66.5t-51.5 -188.5q0 -81 35.5 -125t102.5 -44q36 0 74 13t70 36l6 -3l-9 -42
q-70 -44 -144 -44q-88 0 -135.5 53.5t-47.5 150.5q0 142 66 220.5t186 78.5q38 0 73 -10z" />
    <glyph glyph-name="Dcaron" unicode="&#x10e;" horiz-adv-x="615" 
d="M528 578q61 -65 61 -184q0 -122 -38 -212t-111.5 -138.5t-176.5 -48.5q-36 0 -91 1.5t-100 3.5h-1l28 194l53 445l202 4q113 0 174 -65zM468.5 128q70.5 92 70.5 257q0 106 -48.5 161t-141.5 55q-28 0 -72.5 -1t-81.5 -3l-52 -400l-18 -155q39 -2 80 -4t67 -2
q126 0 196.5 92zM467 810q-48 -32 -113 -83h-19q-44 39 -100 83l13 23h7q45 -33 90 -68q42 28 107 68h7z" />
    <glyph glyph-name="dcaron" unicode="&#x10f;" horiz-adv-x="546" 
d="M284 560q-56 82 -97 130l18 21h6q43 -49 85 -111q49 51 113 111h7l12 -21q-42 -41 -124 -130h-20zM448.5 446.5q52.5 -51.5 52.5 -144.5q0 -143 -70.5 -224.5t-199.5 -81.5q-31 0 -77 1t-84 3l20 150l42 344l170 4q94 0 146.5 -51.5zM397 102.5q56 68.5 56 191.5
q0 80 -40 122t-116 42q-22 0 -58 -1t-66 -3l-40 -300l-13 -115q22 -2 60 -3.5t60 -1.5q101 0 157 68.5z" />
    <glyph glyph-name="Dcroat" unicode="&#x110;" horiz-adv-x="637" 
d="M550 578q61 -65 61 -184q0 -122 -38 -212t-111.5 -138.5t-176.5 -48.5q-36 0 -91 1.5t-100 3.5h-1l28 194l53 445l202 4q113 0 174 -65zM490.5 128q70.5 92 70.5 257q0 106 -48.5 161t-141.5 55q-28 0 -72.5 -1t-81.5 -3l-52 -400l-18 -155q39 -2 80 -4t67 -2
q126 0 196.5 92zM353.67 341l-4.3623 -33h-316.539l-1.86914 5l4.3623 32h316.538z" />
    <glyph glyph-name="dcroat" unicode="&#x111;" horiz-adv-x="548" 
d="M450.5 446.5q52.5 -51.5 52.5 -144.5q0 -143 -70.5 -224.5t-199.5 -81.5q-31 0 -77 1t-84 3l20 150l9 77h-92l-3 5l6 31h94l28 231l170 4q94 0 146.5 -51.5zM399 102.5q56 68.5 56 191.5q0 80 -40 122t-116 42q-22 0 -58.5 -1t-66.5 -3l-25 -191h129l3 -5l-6 -31h-131
l-9 -73l-13 -115q22 -2 60 -3.5t60 -1.5q101 0 157 68.5z" />
    <glyph glyph-name="Emacron" unicode="&#x112;" horiz-adv-x="447" 
d="M194 596l-31 -246l118 -1l101 2l4 -6l-10 -37l-105 1l-114 -1l-14 -111l-18 -155l123 -1l147 3l3 -6l-10 -38h-317l28 194l53 445h316l3 -6l-10 -38l-140 2zM475 800l-3 -32h-285l-4 5l3 31h285z" />
    <glyph glyph-name="emacron" unicode="&#x113;" horiz-adv-x="408" 
d="M429 655l-3 -32h-285l-4 5l3 31h285zM402 489l-9 -36l-117 3h-104l-24 -182h99l83 1l3 -5l-8 -36l-87 1h-95l-11 -81l-13 -115l98 -1l126 2l4 -4l-10 -36h-268l20 150l42 344h268z" />
    <glyph glyph-name="Ebreve" unicode="&#x114;" horiz-adv-x="447" 
d="M194 596l-31 -246l118 -1l101 2l4 -6l-10 -37l-105 1l-114 -1l-14 -111l-18 -155l123 -1l147 3l3 -6l-10 -38h-317l28 194l53 445h316l3 -6l-10 -38l-140 2zM439 808q-18 -39 -48.5 -60t-72.5 -21t-69.5 21t-34.5 60l19 19h8q12 -63 80 -63q33 0 57 16.5t37 46.5h8z" />
    <glyph glyph-name="ebreve" unicode="&#x115;" horiz-adv-x="408" 
d="M198 590.5q-24 27.5 -29 82.5l20 21h8q2 -48 21 -70.5t55 -22.5t60.5 22.5t37.5 70.5h8l15 -21q-34 -110 -123 -110q-49 0 -73 27.5zM172 456l-24 -182h99l83 1l3 -5l-8 -36l-87 1h-95l-11 -81l-13 -115l98 -1l126 2l4 -4l-10 -36h-268l20 150l42 344h268l3 -5l-9 -36
l-117 3h-104z" />
    <glyph glyph-name="Edotaccent" unicode="&#x116;" horiz-adv-x="447" 
d="M194 596l-31 -246l118 -1l101 2l4 -6l-10 -37l-105 1l-114 -1l-14 -111l-18 -155l123 -1l147 3l3 -6l-10 -38h-317l28 194l53 445h316l3 -6l-10 -38l-140 2zM354.5 821q8.5 -9 8.5 -23q0 -15 -8.5 -24t-23.5 -9t-23.5 8.5t-8.5 23.5q0 14 9 23.5t24 9.5q14 0 22.5 -9z
" />
    <glyph glyph-name="edotaccent" unicode="&#x117;" horiz-adv-x="408" 
d="M260.5 628.5q-8.5 8.5 -8.5 23.5q0 14 9 23.5t24 9.5q14 0 22.5 -9t8.5 -23q0 -15 -8.5 -24t-23.5 -9t-23.5 8.5zM172 456l-24 -182h99l83 1l3 -5l-8 -36l-87 1h-95l-11 -81l-13 -115l98 -1l126 2l4 -4l-10 -36h-268l20 150l42 344h268l3 -5l-9 -36l-117 3h-104z" />
    <glyph glyph-name="Eogonek" unicode="&#x118;" horiz-adv-x="447" 
d="M194 596l-31 -246l118 -1l101 2l4 -6l-10 -37l-105 1l-114 -1l-14 -111l-18 -155l123 -1l147 3l3 -6l-10 -38h-317l28 194l53 445h316l3 -6l-10 -38l-140 2zM257 -193q-20 19 -20 51q0 17 7 32t22.5 35.5t56.5 68.5l14 16h37q-14 -18 -20 -24q-54 -67 -66.5 -85.5
t-12.5 -35.5q0 -19 10.5 -30t29.5 -11q39 0 79 46h4l11 -29q-47 -53 -99 -53q-33 0 -53 19z" />
    <glyph glyph-name="eogonek" unicode="&#x119;" horiz-adv-x="408" 
d="M172 456l-24 -182h99l83 1l3 -5l-8 -36l-87 1h-95l-11 -81l-13 -115l98 -1l126 2l4 -4l-10 -36h-67q-56 -67 -69.5 -87.5t-13.5 -37.5q0 -19 10.5 -30t29.5 -11q39 0 79 46h4l11 -29q-47 -53 -99 -53q-33 0 -53 19t-20 51q0 24 14.5 46.5t68.5 85.5h-163l20 150l42 344
h268l3 -5l-9 -36l-117 3h-104z" />
    <glyph glyph-name="Ecaron" unicode="&#x11a;" horiz-adv-x="447" 
d="M194 596l-31 -246l118 -1l101 2l4 -6l-10 -37l-105 1l-114 -1l-14 -111l-18 -155l123 -1l147 3l3 -6l-10 -38h-317l28 194l53 445h316l3 -6l-10 -38l-140 2zM446 810q-48 -32 -113 -83h-19q-44 39 -100 83l13 23h7q45 -33 90 -68q42 28 107 68h7z" />
    <glyph glyph-name="ecaron" unicode="&#x11b;" horiz-adv-x="408" 
d="M258 560q-56 82 -97 130l18 21h6q43 -49 85 -111q49 51 113 111h7l12 -21q-42 -41 -124 -130h-20zM402 489l-9 -36l-117 3h-104l-24 -182h99l83 1l3 -5l-8 -36l-87 1h-95l-11 -81l-13 -115l98 -1l126 2l4 -4l-10 -36h-268l20 150l42 344h268z" />
    <glyph glyph-name="Gcircumflex" unicode="&#x11c;" horiz-adv-x="575" 
d="M551 593l-17 -45h-7q-40 27 -77.5 40t-77.5 13q-131 0 -202 -90.5t-71 -257.5q0 -107 45.5 -161.5t135.5 -54.5q36 0 69 5.5t84 21.5l14 95l10 94l46 4l-11 -93l-16 -134q-62 -19 -105 -27t-93 -8q-111 0 -169.5 66t-58.5 188q0 124 39 213t113 135.5t178 46.5
q90 0 171 -51zM245 750q48 32 113 83h19q44 -39 100 -83l-13 -23h-7q-45 33 -90 68q-42 -28 -107 -68h-7z" />
    <glyph glyph-name="gcircumflex" unicode="&#x11d;" horiz-adv-x="511" 
d="M188 581q42 41 124 130h20q56 -82 97 -130l-18 -21h-6q-43 49 -85 111q-49 -51 -113 -111h-7zM469 461l-21 -44h-6q-34 22 -64 32t-61 10q-106 0 -162 -66.5t-56 -188.5q0 -84 36 -126.5t111 -42.5q31 0 58 4.5t68 17.5l8 68l8 66l43 3l-9 -63l-13 -108q-55 -15 -91 -21
t-75 -6q-94 0 -143 52t-49 153q0 139 71.5 218t200.5 79q72 0 146 -37z" />
    <glyph glyph-name="Gbreve" unicode="&#x11e;" horiz-adv-x="575" 
d="M551 593l-17 -45h-7q-40 27 -77.5 40t-77.5 13q-131 0 -202 -90.5t-71 -257.5q0 -107 45.5 -161.5t135.5 -54.5q36 0 69 5.5t84 21.5l14 95l10 94l46 4l-11 -93l-16 -134q-62 -19 -105 -27t-93 -8q-111 0 -169.5 66t-58.5 188q0 124 39 213t113 135.5t178 46.5
q90 0 171 -51zM475 808q-18 -39 -48.5 -60t-72.5 -21t-69.5 21t-34.5 60l19 19h8q12 -63 80 -63q33 0 57 16.5t37 46.5h8z" />
    <glyph glyph-name="gbreve" unicode="&#x11f;" horiz-adv-x="511" 
d="M426 673q-34 -110 -123 -110q-49 0 -73 27.5t-29 82.5l20 21h8q2 -48 21 -70.5t55 -22.5t60.5 22.5t37.5 70.5h8zM469 461l-21 -44h-6q-34 22 -64 32t-61 10q-106 0 -162 -66.5t-56 -188.5q0 -84 36 -126.5t111 -42.5q31 0 58 4.5t68 17.5l8 68l8 66l43 3l-9 -63
l-13 -108q-55 -15 -91 -21t-75 -6q-94 0 -143 52t-49 153q0 139 71.5 218t200.5 79q72 0 146 -37z" />
    <glyph glyph-name="Gdotaccent" unicode="&#x120;" horiz-adv-x="575" 
d="M551 593l-17 -45h-7q-40 27 -77.5 40t-77.5 13q-131 0 -202 -90.5t-71 -257.5q0 -107 45.5 -161.5t135.5 -54.5q36 0 69 5.5t84 21.5l14 95l10 94l46 4l-11 -93l-16 -134q-62 -19 -105 -27t-93 -8q-111 0 -169.5 66t-58.5 188q0 124 39 213t113 135.5t178 46.5
q90 0 171 -51zM390.5 821q8.5 -9 8.5 -23q0 -15 -8.5 -24t-23.5 -9t-23.5 8.5t-8.5 23.5q0 14 9 23.5t24 9.5q14 0 22.5 -9z" />
    <glyph glyph-name="gdotaccent" unicode="&#x121;" horiz-adv-x="511" 
d="M340.5 676q8.5 -9 8.5 -23q0 -15 -8.5 -24t-23.5 -9t-23.5 8.5t-8.5 23.5q0 14 9 23.5t24 9.5q14 0 22.5 -9zM469 461l-21 -44h-6q-34 22 -64 32t-61 10q-106 0 -162 -66.5t-56 -188.5q0 -84 36 -126.5t111 -42.5q31 0 58 4.5t68 17.5l8 68l8 66l43 3l-9 -63l-13 -108
q-55 -15 -91 -21t-75 -6q-94 0 -143 52t-49 153q0 139 71.5 218t200.5 79q72 0 146 -37z" />
    <glyph glyph-name="Gcommaaccent" unicode="&#x122;" horiz-adv-x="575" 
d="M551 593l-17 -45h-7q-40 27 -77.5 40t-77.5 13q-131 0 -202 -90.5t-71 -257.5q0 -107 45.5 -161.5t135.5 -54.5q36 0 69 5.5t84 21.5l14 95l10 94l46 4l-11 -93l-16 -134q-62 -19 -105 -27t-93 -8q-111 0 -169.5 66t-58.5 188q0 124 39 213t113 135.5t178 46.5
q90 0 171 -51zM358 -115q0 -54 -78 -111l-17 17l1 5q53 42 53 81q0 24 -30 40v6q17 13 33 18q38 -22 38 -56z" />
    <glyph glyph-name="gcommaaccent" unicode="&#x123;" horiz-adv-x="511" 
d="M469 461l-21 -44h-6q-34 22 -64 32t-61 10q-106 0 -162 -66.5t-56 -188.5q0 -84 36 -126.5t111 -42.5q31 0 58 4.5t68 17.5l8 68l8 66l43 3l-9 -63l-13 -108q-55 -15 -91 -21t-75 -6q-94 0 -143 52t-49 153q0 139 71.5 218t200.5 79q72 0 146 -37zM314 -115
q0 -54 -78 -111l-17 17l1 5q53 42 53 81q0 24 -30 40v6q17 13 33 18q38 -22 38 -56z" />
    <glyph glyph-name="Hcircumflex" unicode="&#x124;" horiz-adv-x="647" 
d="M600 639l-57 -442l-23 -197h-48l26 194l13 108l-185 2l-169 -2l-14 -105l-23 -197h-49l27 194l53 445h49l-38 -293l175 -2l179 2l35 293h49zM273 750q48 32 113 83h19q44 -39 100 -83l-13 -23h-7q-45 33 -90 68q-42 -28 -107 -68h-7z" />
    <glyph glyph-name="hcircumflex" unicode="&#x125;" horiz-adv-x="571" 
d="M220 560l-12 21q42 41 124 130h20q56 -82 97 -130l-18 -21h-6q-43 49 -85 111q-49 -51 -113 -111h-7zM508 494l-44 -340l-18 -154h-46l21 150l10 80l-288 -1l-10 -75l-18 -154h-46l21 150l41 344h46l-29 -223l144 -1l143 1l27 223h46z" />
    <glyph glyph-name="Hbar" unicode="&#x126;" horiz-adv-x="671" 
d="M656 481h-66l-37 -284l-23 -197h-48l27 194l13 108l-185 2l-170 -2l-14 -105l-23 -197h-48l26 194l35 287h-60l-3 4l3 33h64l15 121h48l-16 -121h354l14 121h48l-16 -121h61l4 -4zM543 481h-353l-18 -135l175 -2l180 2z" />
    <glyph glyph-name="hbar" unicode="&#x127;" horiz-adv-x="571" 
d="M543 364h-52l-27 -210l-18 -154h-46l21 150l10 80l-288 -1l-10 -75l-18 -154h-46l21 150l26 214h-54l-3 4l7 28h53l12 98h46l-13 -98h286l12 98h46l-13 -98h50l4 -3zM447 364h-287l-12 -93l144 -1l143 1z" />
    <glyph glyph-name="Imacron" unicode="&#x12a;" horiz-adv-x="247" 
d="M143 197l-23 -197h-49l27 194l53 445h49zM302 800l-3 -32h-212l-4 5l3 31h212z" />
    <glyph glyph-name="imacron" unicode="&#x12b;" horiz-adv-x="243" 
d="M280 655l-3 -32h-212l-4 5l3 31h212zM133 154l-18 -154h-46l21 150l41 344h46z" />
    <glyph glyph-name="Ibreve" unicode="&#x12c;" horiz-adv-x="247" 
d="M143 197l-23 -197h-49l27 194l53 445h49zM302 808q-18 -39 -48.5 -60t-72.5 -21t-69.5 21t-34.5 60l19 19h8q12 -63 80 -63q33 0 57 16.5t37 46.5h8z" />
    <glyph glyph-name="ibreve" unicode="&#x12d;" horiz-adv-x="243" 
d="M281 673q-34 -110 -123 -110q-49 0 -73 27.5t-29 82.5l20 21h8q2 -48 21 -70.5t55 -22.5t60.5 22.5t37.5 70.5h8zM133 154l-18 -154h-46l21 150l41 344h46z" />
    <glyph glyph-name="Iogonek" unicode="&#x12e;" horiz-adv-x="247" 
d="M143 197l-23 -197h-49l27 194l53 445h49zM57 -76q-24 -30 -30.5 -41.5t-6.5 -22.5q0 -10 6.5 -16t17.5 -6q14 0 26 8.5t27 28.5h3l14 -26q-19 -24 -36.5 -35t-38.5 -11q-26 0 -41.5 13.5t-15.5 35.5q0 23 18.5 50t81.5 98h38q-39 -46 -63 -76z" />
    <glyph glyph-name="iogonek" unicode="&#x12f;" horiz-adv-x="243" 
d="M177 494l-44 -340l-18 -154q-39 -46 -63 -76t-30.5 -41.5t-6.5 -22.5q0 -10 6.5 -16t17.5 -6q14 0 26 8.5t27 28.5h3l14 -26q-19 -24 -36.5 -35t-38.5 -11q-26 0 -41.5 13.5t-15.5 35.5q0 23 18.5 50t81.5 98h-8l21 150l41 344h46z" />
    <glyph glyph-name="Idotaccent" unicode="&#x130;" horiz-adv-x="247" 
d="M143 197l-23 -197h-49l27 194l53 445h49zM217.5 821q8.5 -9 8.5 -23q0 -15 -8.5 -24t-23.5 -9t-23.5 8.5t-8.5 23.5q0 14 9 23.5t24 9.5q14 0 22.5 -9z" />
    <glyph glyph-name="dotlessi" unicode="&#x131;" horiz-adv-x="243" 
d="M133 154l-18 -154h-46l21 150l41 344h46z" />
    <glyph glyph-name="IJ" unicode="&#x132;" horiz-adv-x="526" 
d="M143 197l-23 -197h-49l27 194l53 445h49zM418 212l-11 -96q-9 -73 -48 -121.5t-124 -94.5l-17 27v8q71 39 104.5 81t40.5 101l11 89l46 392l-121 -1l-6 6l8 36h173z" />
    <glyph glyph-name="ij" unicode="&#x133;" horiz-adv-x="517" 
d="M131 494h46l-44 -340l-18 -154h-46l21 150zM399 164l-9 -73q-7 -58 -35.5 -96t-92.5 -73l-17 27l1 6q49 30 72.5 61.5t28.5 76.5l8 65l36 299h-98l-4 4l8 33h144z" />
    <glyph glyph-name="Jcircumflex" unicode="&#x134;" horiz-adv-x="279" 
d="M171 212l-11 -96q-9 -73 -48 -121.5t-124 -94.5l-17 27v8q71 39 104.5 81t40.5 101l11 89l46 392l-121 -1l-6 6l8 36h173zM49 750q48 32 113 83h19q44 -39 100 -83l-13 -23h-7q-45 33 -90 68q-42 -28 -107 -68h-7z" />
    <glyph glyph-name="jcircumflex" unicode="&#x135;" horiz-adv-x="274" 
d="M267 581l-18 -21h-6q-43 49 -85 111q-49 -51 -113 -111h-7l-12 21q42 41 124 130h20q56 -82 97 -130zM156 164l-9 -73q-7 -58 -35.5 -96t-92.5 -73l-17 27l1 6q49 30 72.5 61.5t28.5 76.5l8 65l36 299h-98l-4 4l8 33h144z" />
    <glyph glyph-name="Kcommaaccent" unicode="&#x136;" horiz-adv-x="502" 
d="M143 197l-24 -197h-48l27 194l54 445h48zM235 339q105 -167 236 -328l-1 -7q-16 -6 -44 -12l-6 3q-136 175 -240 343l1 4l249 246l46 51h59zM314 -115q0 -54 -78 -111l-17 17l1 5q53 42 53 81q0 24 -30 40v6q17 13 33 18q38 -22 38 -56z" />
    <glyph glyph-name="kcommaaccent" unicode="&#x137;" horiz-adv-x="457" 
d="M134 154l-19 -154h-46l22 150l41 344h46zM213 262q88 -129 198 -252l-3 -6q-15 -6 -42 -10l-6 3q-112 135 -198 263v4l203 190l38 40h54zM262 -115q0 -54 -78 -111l-17 17l1 5q53 42 53 81q0 24 -30 40v6q17 13 33 18q38 -22 38 -56z" />
    <glyph glyph-name="kgreenlandic" unicode="&#x138;" horiz-adv-x="457" 
d="M134 154l-19 -154h-46l22 150l41 344h46zM213 262q88 -129 198 -252l-3 -6q-15 -6 -42 -10l-6 3q-112 135 -198 263v4l203 190l38 40h54z" />
    <glyph glyph-name="Lacute" unicode="&#x139;" horiz-adv-x="391" 
d="M364 37l-10 -37h-282l27 194l53 445h49l-57 -442l-19 -155h235zM288 847l13 -28l-2 -7q-80 -41 -184 -89l-7 3l-11 25q85 40 184 98z" />
    <glyph glyph-name="lacute" unicode="&#x13a;" horiz-adv-x="361" 
d="M101 558l-16 22q79 66 155 141l6 -1l20 -25l-2 -6q-58 -52 -156 -132zM316 35l-9 -35h-237l21 150l42 344h45l-44 -340l-14 -114h193z" />
    <glyph glyph-name="Lcommaaccent" unicode="&#x13b;" horiz-adv-x="391" 
d="M364 37l-10 -37h-282l27 194l53 445h49l-57 -442l-19 -155h235zM246 -115q0 -54 -78 -111l-17 17l1 5q53 42 53 81q0 24 -30 40v6q17 13 33 18q38 -22 38 -56z" />
    <glyph glyph-name="lcommaaccent" unicode="&#x13c;" horiz-adv-x="361" 
d="M316 35l-9 -35h-237l21 150l42 344h45l-44 -340l-14 -114h193zM241 -115q0 -54 -78 -111l-17 17l1 5q53 42 53 81q0 24 -30 40v6q17 13 33 18q38 -22 38 -56z" />
    <glyph glyph-name="Lcaron" unicode="&#x13d;" horiz-adv-x="435" 
d="M364 37l-10 -37h-282l27 194l53 445h49l-57 -442l-19 -155h235zM415 583l-36 -158l-29 -3l-3 4l28 159l37 3z" />
    <glyph glyph-name="lcaron" unicode="&#x13e;" horiz-adv-x="386" 
d="M313 40l3 -5l-9 -35h-237l21 150l42 344h45l-44 -340l-14 -114h193zM367 467l-36 -158l-29 -3l-3 4l28 159l37 3z" />
    <glyph glyph-name="Ldot" unicode="&#x13f;" horiz-adv-x="391" 
d="M364 37l-10 -37h-282l27 194l53 445h49l-57 -442l-19 -155h235zM337.5 396q8.5 -9 8.5 -23q0 -15 -8.5 -24t-23.5 -9t-23.5 8.5t-8.5 23.5q0 14 9 23.5t24 9.5q14 0 22.5 -9z" />
    <glyph glyph-name="ldot" unicode="&#x140;" horiz-adv-x="371" 
d="M316 35l-9 -35h-237l21 150l42 344h45l-44 -340l-14 -114h193zM245.5 252.5q-8.5 8.5 -8.5 23.5q0 14 9 23.5t24 9.5q14 0 22.5 -9t8.5 -23q0 -15 -9 -24t-23 -9q-15 0 -23.5 8.5z" />
    <glyph glyph-name="Lslash" unicode="&#x141;" horiz-adv-x="397" 
d="M370 37l-10 -37h-282l27 194l14 118l-82 -43l-6 4l-6 31l99 52l34 283h49l-33 -257l145 76l6 -3l7 -30l-164 -87l-18 -141l-19 -155h235z" />
    <glyph glyph-name="lslash" unicode="&#x142;" horiz-adv-x="364" 
d="M315 35l-9 -35h-237l20 150l11 87l-73 -33l-6 4l-1 28l84 38l27 220h46l-26 -199l131 59l5 -2v-29l-141 -65l-14 -104l-13 -114h193z" />
    <glyph glyph-name="Nacute" unicode="&#x143;" horiz-adv-x="647" 
d="M540 182l-22 -182h-49l-277 557h-6l-45 -352l-24 -205h-46l27 190l55 449h49l277 -557h5l70 554l46 4zM484 847l13 -28l-2 -7q-80 -41 -184 -89l-7 3l-11 25q85 40 184 98z" />
    <glyph glyph-name="nacute" unicode="&#x144;" horiz-adv-x="572" 
d="M408 720l20 -25l-2 -6q-58 -52 -156 -132l-7 1l-16 22q79 66 155 141zM461 143l-17 -143h-48l-229 418h-3l-34 -258l-19 -160h-42l20 146l43 348h47l230 -418h5l51 417l43 3z" />
    <glyph glyph-name="Ncommaaccent" unicode="&#x145;" horiz-adv-x="647" 
d="M540 182l-22 -182h-49l-277 557h-6l-45 -352l-24 -205h-46l27 190l55 449h49l277 -557h5l70 554l46 4zM339 -115q0 -54 -78 -111l-17 17l1 5q53 42 53 81q0 24 -30 40v6q17 13 33 18q38 -22 38 -56z" />
    <glyph glyph-name="ncommaaccent" unicode="&#x146;" horiz-adv-x="572" 
d="M461 143l-17 -143h-48l-229 418h-3l-34 -258l-19 -160h-42l20 146l43 348h47l230 -418h5l51 417l43 3zM299 -115q0 -54 -78 -111l-17 17l1 5q53 42 53 81q0 24 -30 40v6q17 13 33 18q38 -22 38 -56z" />
    <glyph glyph-name="Ncaron" unicode="&#x147;" horiz-adv-x="647" 
d="M540 182l-22 -182h-49l-277 557h-6l-45 -352l-24 -205h-46l27 190l55 449h49l277 -557h5l70 554l46 4zM510 810q-48 -32 -113 -83h-19q-44 39 -100 83l13 23h7q45 -33 90 -68q42 28 107 68h7z" />
    <glyph glyph-name="ncaron" unicode="&#x148;" horiz-adv-x="572" 
d="M455 690q-42 -41 -124 -130h-20q-56 82 -97 130l18 21h6q43 -49 85 -111q49 51 113 111h7zM461 143l-17 -143h-48l-229 418h-3l-34 -258l-19 -160h-42l20 146l43 348h47l230 -418h5l51 417l43 3z" />
    <glyph glyph-name="Eng" unicode="&#x14a;" horiz-adv-x="655" 
d="M544 182l-16 -135q-8 -66 -46 -110.5t-122 -88.5l-18 27l2 8q55 31 84.5 58.5t43.5 61.5l-282 553h-5l-43 -351l-24 -205h-46l26 190l54 449h50l282 -556h5l68 553l47 4z" />
    <glyph glyph-name="eng" unicode="&#x14b;" horiz-adv-x="572" 
d="M461 143l-13 -107q-7 -53 -31 -88t-78 -68l-14 21l1 7q30 21 47.5 43t24.5 50l-230 417h-4l-33 -258l-19 -160h-43l21 146l42 348h48l229 -414h5l51 413l43 3z" />
    <glyph glyph-name="Omacron" unicode="&#x14c;" horiz-adv-x="605" 
d="M521.5 578.5q57.5 -66.5 57.5 -187.5q0 -122 -36 -211.5t-105.5 -137.5t-166.5 -48q-105 0 -162.5 68t-57.5 192q0 121 36 209t105 135t166 47q106 0 163.5 -66.5zM165.5 512.5q-64.5 -90.5 -64.5 -254.5q0 -108 44.5 -165t129.5 -57q123 0 188.5 91.5t65.5 256.5
q0 108 -44.5 163.5t-131.5 55.5q-123 0 -187.5 -90.5zM517 800l-3 -32h-285l-4 5l3 31h285z" />
    <glyph glyph-name="omacron" unicode="&#x14d;" horiz-adv-x="536" 
d="M464 655l-3 -32h-285l-4 5l3 31h285zM443.5 446.5q48.5 -52.5 48.5 -152.5q0 -90 -30 -157.5t-87.5 -104.5t-136.5 -37q-90 0 -138.5 53.5t-48.5 155.5q0 137 67 216t187 79q90 0 138.5 -52.5zM150.5 394q-51.5 -65 -51.5 -186q0 -88 35 -130.5t107 -42.5q98 0 150.5 66
t52.5 187q0 86 -36 128.5t-109 42.5q-97 0 -148.5 -65z" />
    <glyph glyph-name="Obreve" unicode="&#x14e;" horiz-adv-x="605" 
d="M521.5 578.5q57.5 -66.5 57.5 -187.5q0 -122 -36 -211.5t-105.5 -137.5t-166.5 -48q-105 0 -162.5 68t-57.5 192q0 121 36 209t105 135t166 47q106 0 163.5 -66.5zM165.5 512.5q-64.5 -90.5 -64.5 -254.5q0 -108 44.5 -165t129.5 -57q123 0 188.5 91.5t65.5 256.5
q0 108 -44.5 163.5t-131.5 55.5q-123 0 -187.5 -90.5zM481 808q-18 -39 -48.5 -60t-72.5 -21t-69.5 21t-34.5 60l19 19h8q12 -63 80 -63q33 0 57 16.5t37 46.5h8z" />
    <glyph glyph-name="obreve" unicode="&#x14f;" horiz-adv-x="536" 
d="M428 673q-34 -110 -123 -110q-49 0 -73 27.5t-29 82.5l20 21h8q2 -48 21 -70.5t55 -22.5t60.5 22.5t37.5 70.5h8zM443.5 446.5q48.5 -52.5 48.5 -152.5q0 -90 -30 -157.5t-87.5 -104.5t-136.5 -37q-90 0 -138.5 53.5t-48.5 155.5q0 137 67 216t187 79q90 0 138.5 -52.5z
M150.5 394q-51.5 -65 -51.5 -186q0 -88 35 -130.5t107 -42.5q98 0 150.5 66t52.5 187q0 86 -36 128.5t-109 42.5q-97 0 -148.5 -65z" />
    <glyph glyph-name="Ohungarumlaut" unicode="&#x150;" horiz-adv-x="605" 
d="M521.5 578.5q57.5 -66.5 57.5 -187.5q0 -122 -36 -211.5t-105.5 -137.5t-166.5 -48q-105 0 -162.5 68t-57.5 192q0 121 36 209t105 135t166 47q106 0 163.5 -66.5zM165.5 512.5q-64.5 -90.5 -64.5 -254.5q0 -108 44.5 -165t129.5 -57q123 0 188.5 91.5t65.5 256.5
q0 108 -44.5 163.5t-131.5 55.5q-123 0 -187.5 -90.5zM374 852l7 -1l22 -17l-1 -7q-48 -47 -115 -107h-6l-19 18q76 74 112 114zM510 852l6 -1l23 -17l-1 -7q-27 -27 -85 -79l-30 -28h-6l-19 18q76 74 112 114z" />
    <glyph glyph-name="ohungarumlaut" unicode="&#x151;" horiz-adv-x="536" 
d="M344 720h6l22 -18v-6q-66 -67 -144 -139h-7l-18 18q61 59 141 145zM479 720h6l23 -18l-1 -6q-66 -67 -144 -139h-6l-19 18q78 76 141 145zM443.5 446.5q48.5 -52.5 48.5 -152.5q0 -90 -30 -157.5t-87.5 -104.5t-136.5 -37q-90 0 -138.5 53.5t-48.5 155.5q0 137 67 216
t187 79q90 0 138.5 -52.5zM150.5 394q-51.5 -65 -51.5 -186q0 -88 35 -130.5t107 -42.5q98 0 150.5 66t52.5 187q0 86 -36 128.5t-109 42.5q-97 0 -148.5 -65z" />
    <glyph glyph-name="OE" unicode="&#x152;" horiz-adv-x="801" 
d="M471 645q48 -6 74 -6h276l4 -6l-10 -38l-132 2h-135l-31 -247l110 -1l109 2l3 -6l-10 -37l-111 1l-108 -1l-14 -117l-18 -149l123 -1l147 3l4 -6l-10 -38h-277q-28 0 -86 -6q-56 -6 -81 -6q-118 0 -182.5 72t-64.5 200q0 119 41 207.5t119 136t184 47.5q26 0 76 -6z
M175 517.5q-75 -91.5 -75 -253.5q0 -113 53 -173.5t157 -60.5q25 0 53 3t43 7q16 4 22.5 9.5t8.5 19.5l58 493q1 8 1 19q0 8 -2 11.5t-7 4.5q-15 4 -44.5 8t-56.5 4q-136 0 -211 -91.5z" />
    <glyph glyph-name="oe" unicode="&#x153;" horiz-adv-x="700" 
d="M397 498q44 -4 65 -4h231l3 -5l-9 -36l-111 3h-111l-23 -182h91l90 1l3 -5l-9 -36l-92 1h-88l-10 -86l-15 -111h104l121 2l2 -4l-8 -36h-231q-31 0 -68 -5q-46 -4 -69 -4q-100 0 -155.5 56.5t-55.5 155.5q0 140 73 220t205 80q30 0 67 -5zM157 397q-58 -66 -58 -190
q0 -86 42.5 -131t127.5 -45q41 0 81 8q12 3 16 8t6 16l43 364q1 5 1 13q0 7 -1.5 9.5t-6.5 3.5q-3 1 -28.5 5.5t-53.5 4.5q-111 0 -169 -66z" />
    <glyph glyph-name="Racute" unicode="&#x154;" horiz-adv-x="512" 
d="M428 349q-42 -59 -117 -87q61 -133 133 -251l-2 -6q-15 -8 -42 -13l-7 4q-75 135 -125 255h-118l-7 -54l-23 -197h-49l27 194l54 445l156 1q78 0 120 -39.5t42 -112.5q0 -80 -42 -139zM155 294l124 -2q68 20 104.5 68t36.5 121q0 55 -30 85t-89 33l-106 -2zM397 865
l20 -25l-2 -6q-58 -52 -156 -132l-7 1l-16 22q79 66 155 141z" />
    <glyph glyph-name="racute" unicode="&#x155;" horiz-adv-x="464" 
d="M208 558l-16 22q79 66 155 141l6 -1l20 -25l-2 -6q-58 -52 -156 -132zM370.5 269q-33.5 -44 -94.5 -66q49 -99 111 -192l-1 -7q-19 -7 -41 -10l-9 5q-54 93 -101 193h-97l-5 -38l-18 -154h-45l20 150l42 344l134 1q65 0 101.5 -32t36.5 -89q0 -61 -33.5 -105zM143 232
l100 -2q54 14 83.5 49.5t29.5 88.5q0 84 -98 90l-85 -2z" />
    <glyph glyph-name="Rcommaaccent" unicode="&#x156;" horiz-adv-x="512" 
d="M428 349q-42 -59 -117 -87q61 -133 133 -251l-2 -6q-15 -8 -42 -13l-7 4q-75 135 -125 255h-118l-7 -54l-23 -197h-49l27 194l54 445l156 1q78 0 120 -39.5t42 -112.5q0 -80 -42 -139zM155 294l124 -2q68 20 104.5 68t36.5 121q0 55 -30 85t-89 33l-106 -2zM271 -115
q0 -54 -78 -111l-17 17l1 5q53 42 53 81q0 24 -30 40v6q17 13 33 18q38 -22 38 -56z" />
    <glyph glyph-name="rcommaaccent" unicode="&#x157;" horiz-adv-x="464" 
d="M370.5 269q-33.5 -44 -94.5 -66q49 -99 111 -192l-1 -7q-19 -7 -41 -10l-9 5q-54 93 -101 193h-97l-5 -38l-18 -154h-45l20 150l42 344l134 1q65 0 101.5 -32t36.5 -89q0 -61 -33.5 -105zM143 232l100 -2q54 14 83.5 49.5t29.5 88.5q0 84 -98 90l-85 -2zM262 -115
q0 -54 -78 -111l-17 17l1 5q53 42 53 81q0 24 -30 40v6q17 13 33 18q38 -22 38 -56z" />
    <glyph glyph-name="Rcaron" unicode="&#x158;" horiz-adv-x="512" 
d="M428 349q-42 -59 -117 -87q61 -133 133 -251l-2 -6q-15 -8 -42 -13l-7 4q-75 135 -125 255h-118l-7 -54l-23 -197h-49l27 194l54 445l156 1q78 0 120 -39.5t42 -112.5q0 -80 -42 -139zM155 294l124 -2q68 20 104.5 68t36.5 121q0 55 -30 85t-89 33l-106 -2zM444 835
q-42 -41 -124 -130h-20q-56 82 -97 130l18 21h6q43 -49 85 -111q49 51 113 111h7z" />
    <glyph glyph-name="rcaron" unicode="&#x159;" horiz-adv-x="464" 
d="M256 560q-56 82 -97 130l18 21h6q43 -49 85 -111q49 51 113 111h7l12 -21q-42 -41 -124 -130h-20zM370.5 269q-33.5 -44 -94.5 -66q49 -99 111 -192l-1 -7q-19 -7 -41 -10l-9 5q-54 93 -101 193h-97l-5 -38l-18 -154h-45l20 150l42 344l134 1q65 0 101.5 -32t36.5 -89
q0 -61 -33.5 -105zM143 232l100 -2q54 14 83.5 49.5t29.5 88.5q0 84 -98 90l-85 -2z" />
    <glyph glyph-name="Sacute" unicode="&#x15a;" horiz-adv-x="437" 
d="M419 613l-14 -45l-10 -3q-49 37 -111 37q-43 0 -76 -18t-51.5 -47t-18.5 -60q0 -29 15 -51.5t36.5 -39t60.5 -40.5q45 -27 71 -47.5t45 -52t19 -73.5q0 -49 -27.5 -90t-75.5 -64.5t-106 -23.5q-40 0 -81 11.5t-72 33.5l11 49l9 3q27 -28 64 -42t74 -14q44 0 79.5 18
t55.5 47.5t20 63.5q0 31 -15 55t-37.5 41t-61.5 41q-43 26 -69 46.5t-44 51t-18 72.5q0 47 26 86.5t72 62t102 22.5q68 0 128 -30zM361 865l20 -25l-2 -6q-58 -52 -156 -132l-7 1l-16 22q79 66 155 141z" />
    <glyph glyph-name="sacute" unicode="&#x15b;" horiz-adv-x="398" 
d="M320 720l20 -25l-2 -6q-58 -52 -156 -132l-7 1l-16 22q79 66 155 141zM355 475l-13 -45l-10 -2q-42 32 -90 32q-34 0 -60 -14t-40 -36t-14 -46q0 -31 22.5 -50.5t68.5 -41.5q36 -18 59 -33t39 -39t16 -58q0 -38 -21 -71.5t-60 -54t-89 -20.5q-33 0 -68 9t-61 25l9 48l7 3
q24 -23 55.5 -35t61.5 -12q34 0 61.5 14.5t43 37.5t15.5 49q0 32 -22.5 51.5t-69.5 42.5q-37 18 -59 33t-38 38.5t-16 57.5q0 37 20.5 69t58.5 51.5t86 19.5q55 0 108 -23z" />
    <glyph glyph-name="Scircumflex" unicode="&#x15c;" horiz-adv-x="437" 
d="M419 613l-14 -45l-10 -3q-49 37 -111 37q-43 0 -76 -18t-51.5 -47t-18.5 -60q0 -29 15 -51.5t36.5 -39t60.5 -40.5q45 -27 71 -47.5t45 -52t19 -73.5q0 -49 -27.5 -90t-75.5 -64.5t-106 -23.5q-40 0 -81 11.5t-72 33.5l11 49l9 3q27 -28 64 -42t74 -14q44 0 79.5 18
t55.5 47.5t20 63.5q0 31 -15 55t-37.5 41t-61.5 41q-43 26 -69 46.5t-44 51t-18 72.5q0 47 26 86.5t72 62t102 22.5q68 0 128 -30zM160 726q42 41 124 130h20q56 -82 97 -130l-18 -21h-6q-43 49 -85 111q-49 -51 -113 -111h-7z" />
    <glyph glyph-name="scircumflex" unicode="&#x15d;" horiz-adv-x="398" 
d="M120 581q42 41 124 130h20q56 -82 97 -130l-18 -21h-6q-43 49 -85 111q-49 -51 -113 -111h-7zM355 475l-13 -45l-10 -2q-42 32 -90 32q-34 0 -60 -14t-40 -36t-14 -46q0 -31 22.5 -50.5t68.5 -41.5q36 -18 59 -33t39 -39t16 -58q0 -38 -21 -71.5t-60 -54t-89 -20.5
q-33 0 -68 9t-61 25l9 48l7 3q24 -23 55.5 -35t61.5 -12q34 0 61.5 14.5t43 37.5t15.5 49q0 32 -22.5 51.5t-69.5 42.5q-37 18 -59 33t-38 38.5t-16 57.5q0 37 20.5 69t58.5 51.5t86 19.5q55 0 108 -23z" />
    <glyph glyph-name="Scedilla" unicode="&#x15e;" horiz-adv-x="437" 
d="M419 613l-14 -45l-10 -3q-49 37 -111 37q-43 0 -76 -18t-51.5 -47t-18.5 -60q0 -29 15 -51.5t36.5 -39t60.5 -40.5q45 -27 71 -47.5t45 -52t19 -73.5q0 -49 -27.5 -90t-75.5 -64.5t-106 -23.5q-40 0 -81 11.5t-72 33.5l11 49l9 3q27 -28 64 -42t74 -14q44 0 79.5 18
t55.5 47.5t20 63.5q0 31 -15 55t-37.5 41t-61.5 41q-43 26 -69 46.5t-44 51t-18 72.5q0 47 26 86.5t72 62t102 22.5q68 0 128 -30zM188 -53l33 -20q19 -11 27 -23.5t8 -29.5q0 -27 -20 -43t-50 -16q-21 0 -38 9t-27 23l7 28l4 1q12 -15 24 -23t29 -8q16 0 26 8t10 22
q0 10 -5.5 16t-17.5 13l-45 29l24 82h32z" />
    <glyph glyph-name="scedilla" unicode="&#x15f;" horiz-adv-x="398" 
d="M182 446q-26 -14 -40 -36t-14 -46q0 -31 22.5 -50.5t68.5 -41.5q36 -18 59 -33t39 -39t16 -58q0 -51 -37 -92t-98 -51l-16 -52l33 -20q19 -11 27 -23.5t8 -29.5q0 -27 -20 -43t-50 -16q-21 0 -38 9t-27 23l7 28l4 1q12 -15 24 -23t29 -8q16 0 26 8t10 22q0 10 -5.5 16
t-17.5 13l-45 29l18 63h-2q-33 0 -68 9t-61 25l9 48l7 3q24 -23 55.5 -35t61.5 -12q34 0 61.5 14.5t43 37.5t15.5 49q0 32 -22.5 51.5t-69.5 42.5q-37 18 -59 33t-38 38.5t-16 57.5q0 37 20.5 69t58.5 51.5t86 19.5q55 0 108 -23l-13 -45l-10 -2q-42 32 -90 32
q-34 0 -60 -14z" />
    <glyph glyph-name="Scaron" unicode="&#x160;" horiz-adv-x="437" 
d="M419 613l-14 -45l-10 -3q-49 37 -111 37q-43 0 -76 -18t-51.5 -47t-18.5 -60q0 -29 15 -51.5t36.5 -39t60.5 -40.5q45 -27 71 -47.5t45 -52t19 -73.5q0 -49 -27.5 -90t-75.5 -64.5t-106 -23.5q-40 0 -81 11.5t-72 33.5l11 49l9 3q27 -28 64 -42t74 -14q44 0 79.5 18
t55.5 47.5t20 63.5q0 31 -15 55t-37.5 41t-61.5 41q-43 26 -69 46.5t-44 51t-18 72.5q0 47 26 86.5t72 62t102 22.5q68 0 128 -30zM405 810q-48 -32 -113 -83h-19q-44 39 -100 83l13 23h7q45 -33 90 -68q42 28 107 68h7z" />
    <glyph glyph-name="scaron" unicode="&#x161;" horiz-adv-x="398" 
d="M367 690q-42 -41 -124 -130h-20q-56 82 -97 130l18 21h6q43 -49 85 -111q49 51 113 111h7zM355 475l-13 -45l-10 -2q-42 32 -90 32q-34 0 -60 -14t-40 -36t-14 -46q0 -31 22.5 -50.5t68.5 -41.5q36 -18 59 -33t39 -39t16 -58q0 -38 -21 -71.5t-60 -54t-89 -20.5
q-33 0 -68 9t-61 25l9 48l7 3q24 -23 55.5 -35t61.5 -12q34 0 61.5 14.5t43 37.5t15.5 49q0 32 -22.5 51.5t-69.5 42.5q-37 18 -59 33t-38 38.5t-16 57.5q0 37 20.5 69t58.5 51.5t86 19.5q55 0 108 -23z" />
    <glyph glyph-name="uni0162" unicode="&#x162;" horiz-adv-x="459" 
d="M486 633l-10 -37l-100 2h-75l-53 -401l-22 -197h-8l-18 -53l32 -20q19 -11 27 -23.5t8 -29.5q0 -27 -19.5 -43t-49.5 -16q-40 0 -66 32l7 28l4 1q13 -16 24.5 -23.5t28.5 -7.5q16 0 26 8t10 22q0 10 -5.5 16t-17.5 13l-45 29l21 67h-7l26 194l48 404h-73l-104 -2l-4 5
l11 38h400z" />
    <glyph glyph-name="uni0163" unicode="&#x163;" horiz-adv-x="418" 
d="M413 489l-9 -38l-84 4h-60l-39 -301l-18 -154h-7l-22 -53l28 -20q27 -18 27 -46t-21.5 -46t-51.5 -18q-37 0 -58 32l9 27h5q9 -15 19.5 -23t25.5 -8q17 0 28 9t11 25q0 8 -4 14t-13 13l-40 28l27 66h-8l20 150l37 305h-60l-86 -4l-4 6l9 37h337z" />
    <glyph glyph-name="Tcaron" unicode="&#x164;" horiz-adv-x="459" 
d="M486 633l-10 -37l-100 2h-75l-53 -401l-22 -197h-48l26 194l48 404h-73l-104 -2l-4 5l11 38h400zM419 835q-42 -41 -124 -130h-20q-56 82 -97 130l18 21h6q43 -49 85 -111q49 51 113 111h7z" />
    <glyph glyph-name="tcaron" unicode="&#x165;" horiz-adv-x="416" 
d="M235 560q-56 82 -97 130l18 21h6q43 -49 85 -111q49 51 113 111h7l12 -21q-42 -41 -124 -130h-20zM413 489l-9 -38l-84 4h-60l-39 -301l-18 -154h-45l20 150l37 305h-60l-86 -4l-4 6l9 37h337z" />
    <glyph glyph-name="Tbar" unicode="&#x166;" horiz-adv-x="459" 
d="M486 633l-10 -37l-100 2h-75l-33 -250h94l4 -4l-3 -30h-100l-15 -117l-22 -197h-48l26 194l14 120h-91l-4 4l2 30h97l30 250h-73l-104 -2l-4 5l11 38h400z" />
    <glyph glyph-name="tbar" unicode="&#x167;" horiz-adv-x="415" 
d="M260 455l-25 -197h90l4 -4l-7 -30h-92l-9 -70l-18 -154h-45l20 150l9 74h-94l-3 4l6 30h95l24 197h-60l-86 -4l-4 6l9 37h337l2 -5l-9 -38l-84 4h-60z" />
    <glyph glyph-name="Umacron" unicode="&#x16a;" horiz-adv-x="590" 
d="M522 313l-9 -78q-12 -115 -75 -177.5t-169 -62.5q-92 0 -143 47.5t-51 135.5q0 29 4 54l13 90l39 317h47l-53 -403q-3 -24 -3 -47q0 -74 38 -112.5t111 -38.5q84 0 134.5 49.5t62.5 144.5l48 407h48zM510 800l-3 -32h-285l-4 5l3 31h285z" />
    <glyph glyph-name="umacron" unicode="&#x16b;" horiz-adv-x="526" 
d="M459 655l-3 -32h-285l-4 5l3 31h285zM447 242l-9 -67q-9 -86 -61.5 -132.5t-140.5 -46.5q-79 0 -122 36.5t-43 105.5q0 18 3 37l11 73l30 246h46l-43 -313q-2 -22 -2 -31q0 -56 31.5 -85t91.5 -29q68 0 108 37t49 108l38 313h46z" />
    <glyph glyph-name="Ubreve" unicode="&#x16c;" horiz-adv-x="590" 
d="M522 313l-9 -78q-12 -115 -75 -177.5t-169 -62.5q-92 0 -143 47.5t-51 135.5q0 29 4 54l13 90l39 317h47l-53 -403q-3 -24 -3 -47q0 -74 38 -112.5t111 -38.5q84 0 134.5 49.5t62.5 144.5l48 407h48zM475 818q-34 -110 -123 -110q-49 0 -73 27.5t-29 82.5l20 21h8
q2 -48 21 -70.5t55 -22.5t60.5 22.5t37.5 70.5h8z" />
    <glyph glyph-name="ubreve" unicode="&#x16d;" horiz-adv-x="526" 
d="M424 673q-34 -110 -123 -110q-49 0 -73 27.5t-29 82.5l20 21h8q2 -48 21 -70.5t55 -22.5t60.5 22.5t37.5 70.5h8zM447 242l-9 -67q-9 -86 -61.5 -132.5t-140.5 -46.5q-79 0 -122 36.5t-43 105.5q0 18 3 37l11 73l30 246h46l-43 -313q-2 -22 -2 -31q0 -56 31.5 -85
t91.5 -29q68 0 108 37t49 108l38 313h46z" />
    <glyph glyph-name="Uring" unicode="&#x16e;" horiz-adv-x="590" 
d="M522 313l-9 -78q-12 -115 -75 -177.5t-169 -62.5q-92 0 -143 47.5t-51 135.5q0 29 4 54l13 90l39 317h47l-53 -403q-3 -24 -3 -47q0 -74 38 -112.5t111 -38.5q84 0 134.5 49.5t62.5 144.5l48 407h48zM421 844.5q20 -21.5 20 -53.5q0 -35 -23 -56t-55 -21q-31 0 -53 20.5
t-22 55.5q0 33 21 54.5t56 21.5q36 0 56 -21.5zM329 824.5q-13 -12.5 -13 -33.5q0 -23 13.5 -35.5t34.5 -12.5t35 12t14 34q0 21 -12.5 34.5t-36.5 13.5q-22 0 -35 -12.5z" />
    <glyph glyph-name="uring" unicode="&#x16f;" horiz-adv-x="526" 
d="M369 699.5q20 -21.5 20 -53.5q0 -35 -23 -56t-55 -21q-31 0 -53 20.5t-22 55.5q0 33 21 54.5t56 21.5q36 0 56 -21.5zM277 679.5q-13 -12.5 -13 -33.5q0 -23 13.5 -35.5t34.5 -12.5t35 12t14 34q0 21 -12.5 34.5t-36.5 13.5q-22 0 -35 -12.5zM447 242l-9 -67
q-9 -86 -61.5 -132.5t-140.5 -46.5q-79 0 -122 36.5t-43 105.5q0 18 3 37l11 73l30 246h46l-43 -313q-2 -22 -2 -31q0 -56 31.5 -85t91.5 -29q68 0 108 37t49 108l38 313h46z" />
    <glyph glyph-name="Uhungarumlaut" unicode="&#x170;" horiz-adv-x="590" 
d="M522 313l-9 -78q-12 -115 -75 -177.5t-169 -62.5q-92 0 -143 47.5t-51 135.5q0 29 4 54l13 90l39 317h47l-53 -403q-3 -24 -3 -47q0 -74 38 -112.5t111 -38.5q84 0 134.5 49.5t62.5 144.5l48 407h48zM367 852l7 -1l22 -17l-1 -7q-48 -47 -115 -107h-6l-19 18
q76 74 112 114zM503 852l6 -1l23 -17l-1 -7q-27 -27 -85 -79l-30 -28h-6l-19 18q76 74 112 114z" />
    <glyph glyph-name="uhungarumlaut" unicode="&#x171;" horiz-adv-x="526" 
d="M340 720h6l22 -18v-6q-66 -67 -144 -139h-7l-18 18q61 59 141 145zM475 720h6l23 -18l-1 -6q-66 -67 -144 -139h-6l-19 18q78 76 141 145zM447 242l-9 -67q-9 -86 -61.5 -132.5t-140.5 -46.5q-79 0 -122 36.5t-43 105.5q0 18 3 37l11 73l30 246h46l-43 -313
q-2 -22 -2 -31q0 -56 31.5 -85t91.5 -29q68 0 108 37t49 108l38 313h46z" />
    <glyph glyph-name="Uogonek" unicode="&#x172;" horiz-adv-x="590" 
d="M522 313l-9 -78q-12 -115 -75 -177.5t-169 -62.5q-92 0 -143 47.5t-51 135.5q0 29 4 54l13 90l39 317h47l-53 -403q-3 -24 -3 -47q0 -74 38 -112.5t111 -38.5q84 0 134.5 49.5t62.5 144.5l48 407h48zM244 -193q-20 19 -20 51q0 17 7 32t22.5 35.5t56.5 68.5l14 16h37
q-14 -18 -20 -24q-54 -67 -66.5 -85.5t-12.5 -35.5q0 -19 10.5 -30t29.5 -11q39 0 79 46h4l11 -29q-47 -53 -99 -53q-33 0 -53 19z" />
    <glyph glyph-name="uogonek" unicode="&#x173;" horiz-adv-x="526" 
d="M480 494l-33 -252l-9 -67q-12 -109 -90 -153q-34 -41 -56 -69t-28.5 -40.5t-6.5 -25.5q0 -19 10.5 -30t29.5 -11q39 0 79 46h4l11 -29q-47 -53 -99 -53q-33 0 -53 19t-20 51q0 23 13 44t61 78q-25 -6 -57 -6q-79 0 -122 36.5t-43 105.5q0 18 3 37l11 73l30 246h46
l-43 -313q-2 -22 -2 -31q0 -56 31.5 -85t91.5 -29q68 0 108 37t49 108l38 313h46z" />
    <glyph glyph-name="Wcircumflex" unicode="&#x174;" horiz-adv-x="842" 
d="M577 0h-50l-81 407h-5l-193 -407h-51l-124 639h49l5 -52l103 -528h6l196 416l-34 164h50l7 -55l103 -525h6l251 526l20 54h48zM349 750q48 32 113 83h19q44 -39 100 -83l-13 -23h-7q-45 33 -90 68q-42 -28 -107 -68h-7z" />
    <glyph glyph-name="wcircumflex" unicode="&#x175;" horiz-adv-x="734" 
d="M270 581q42 41 124 130h20q56 -82 97 -130l-18 -21h-6q-43 49 -85 111q-49 -51 -113 -111h-7zM496 0h-47l-71 304h-4l-152 -304h-48l-106 494h47l3 -43l87 -397h3l158 314l-27 126h47l4 -46l87 -394h6l198 396l18 44h44z" />
    <glyph glyph-name="Ycircumflex" unicode="&#x176;" horiz-adv-x="486" 
d="M258 239l-7 -48l-22 -191h-48l26 191l6 47l-142 401h53l7 -31l109 -312h6l200 311l16 32h54zM192 750q48 32 113 83h19q44 -39 100 -83l-13 -23h-7q-45 33 -90 68q-42 -28 -107 -68h-7z" />
    <glyph glyph-name="ycircumflex" unicode="&#x177;" horiz-adv-x="443" 
d="M156 560l-12 21q42 41 124 130h20q56 -82 97 -130l-18 -21h-6q-43 49 -85 111q-49 -51 -113 -111h-7zM231 180l-5 -34l-18 -146h-45l21 146l4 35l-121 313h51l6 -24l90 -235h5l161 233l14 26h50z" />
    <glyph glyph-name="Ydieresis" unicode="&#x178;" horiz-adv-x="486" 
d="M258 239l-7 -48l-22 -191h-48l26 191l6 47l-142 401h53l7 -31l109 -312h6l200 311l16 32h54zM260 807.5q8 -7.5 8 -21.5t-8.5 -22.5t-22.5 -8.5t-21.5 8t-7.5 22t8.5 22t22.5 8q13 0 21 -7.5zM417 807q8 -8 8 -21q0 -14 -8.5 -22.5t-22.5 -8.5t-21.5 8t-7.5 22t8 22t22 8
t22 -8z" />
    <glyph glyph-name="Zacute" unicode="&#x179;" horiz-adv-x="493" 
d="M499 602l-431 -561h282l77 4l4 -5l-10 -41l-89 1h-284l-44 -2l5 37l430 562h-268l-73 -4l-4 6l11 41l82 -1h275l41 1zM375 847l13 -28l-2 -7q-80 -41 -184 -89l-7 3l-11 25q85 40 184 98z" />
    <glyph glyph-name="zacute" unicode="&#x17a;" horiz-adv-x="444" 
d="M344 720l20 -25l-2 -6q-58 -52 -156 -132l-7 1l-16 22q79 66 155 141zM422 459l-347 -421h227l68 4l4 -4l-10 -39l-79 1h-231l-40 -1l5 34l348 423h-220l-61 -4l-3 5l10 38l69 -1h230l35 1z" />
    <glyph glyph-name="Zdotaccent" unicode="&#x17b;" horiz-adv-x="493" 
d="M499 602l-431 -561h282l77 4l4 -5l-10 -41l-89 1h-284l-44 -2l5 37l430 562h-268l-73 -4l-4 6l11 41l82 -1h275l41 1zM309.5 821q8.5 -9 8.5 -23q0 -15 -8.5 -24t-23.5 -9t-23.5 8.5t-8.5 23.5q0 14 9 23.5t24 9.5q14 0 22.5 -9z" />
    <glyph glyph-name="zdotaccent" unicode="&#x17c;" horiz-adv-x="444" 
d="M296.5 676q8.5 -9 8.5 -23q0 -15 -8.5 -24t-23.5 -9t-23.5 8.5t-8.5 23.5q0 14 9 23.5t24 9.5q14 0 22.5 -9zM422 459l-347 -421h227l68 4l4 -4l-10 -39l-79 1h-231l-40 -1l5 34l348 423h-220l-61 -4l-3 5l10 38l69 -1h230l35 1z" />
    <glyph glyph-name="Zcaron" unicode="&#x17d;" horiz-adv-x="493" 
d="M499 602l-431 -561h282l77 4l4 -5l-10 -41l-89 1h-284l-44 -2l5 37l430 562h-268l-73 -4l-4 6l11 41l82 -1h275l41 1zM401 810q-48 -32 -113 -83h-19q-44 39 -100 83l13 23h7q45 -33 90 -68q42 28 107 68h7z" />
    <glyph glyph-name="zcaron" unicode="&#x17e;" horiz-adv-x="444" 
d="M392 690q-42 -41 -124 -130h-20q-56 82 -97 130l18 21h6q43 -49 85 -111q49 51 113 111h7zM422 459l-347 -421h227l68 4l4 -4l-10 -39l-79 1h-231l-40 -1l5 34l348 423h-220l-61 -4l-3 5l10 38l69 -1h230l35 1z" />
    <glyph glyph-name="uni018F" unicode="&#x18f;" horiz-adv-x="593" 
d="M505 573.5q61 -70.5 61 -196.5q0 -113 -39.5 -200t-110.5 -135t-163 -48q-98 0 -155.5 54.5t-57.5 147.5q0 20 3 37.5t10 43.5l11 10l447 5q6 38 6 79q0 109 -51 168.5t-147 59.5q-51 0 -103.5 -16t-93.5 -44l-8 5l14 45q99 55 203 55q113 0 174 -70.5zM412 93
q65 58 91 158l-407 -5l-5 -27q-2 -20 -2 -28q0 -72 46 -114t123 -42q89 0 154 58z" />
    <glyph glyph-name="florin" unicode="&#x192;" horiz-adv-x="256" 
d="M350 605l-8 -35l-5 -2q-28 11 -57 11q-94 0 -107 -105l-14 -105h113l3 -5l-3 -26h-116l-20 -153l-17 -141q-7 -66 -29.5 -105.5t-79.5 -87.5l-21 19l1 6q46 43 64 77t25 89l17 140l19 156h-64l-4 5l3 26h68l13 101q7 69 47 106t105 37q25 0 67 -8z" />
    <glyph glyph-name="Ohorn" unicode="&#x1a0;" horiz-adv-x="630" 
d="M593 607q-27 -26 -69 -28q29 -33 43 -80.5t14 -116.5q0 -117 -37.5 -204.5t-107.5 -135.5t-163 -48q-109 0 -165 68.5t-56 204.5q0 115 38 200.5t108 131.5t163 46q36 0 59.5 -6t49.5 -16q16 -7 27 -10t24 -3q25 0 41 14.5t16 38.5q0 34 -23 63l2 7q15 10 25 10
q15 0 26.5 -22t11.5 -49q0 -39 -27 -65zM412 74.5q57 40.5 88.5 117t31.5 181.5q0 116 -44 173t-135 57q-76 0 -133 -40t-88 -115.5t-31 -180.5q0 -117 44 -175t134 -58q76 0 133 40.5z" />
    <glyph glyph-name="ohorn" unicode="&#x1a1;" horiz-adv-x="551" 
d="M502 469.5q-22 -20.5 -57 -24.5q25 -25 36 -62t11 -91q0 -89 -31 -156.5t-88.5 -104t-134.5 -36.5q-92 0 -139.5 54.5t-47.5 161.5q0 88 31.5 153t89 100.5t133.5 35.5q30 0 50 -4.5t41 -12.5q2 -1 15 -5.5t27 -4.5q21 0 34 11.5t13 29.5q0 27 -21 49l3 6q14 9 24 9
q13 0 23 -17.5t10 -39.5q0 -31 -22 -51.5zM389 99.5q54 66.5 54 185.5q0 89 -35 132t-109 43q-92 0 -145.5 -65.5t-53.5 -183.5q0 -90 35 -134t108 -44q92 0 146 66.5z" />
    <glyph glyph-name="Uhorn" unicode="&#x1af;" horiz-adv-x="612" 
d="M618 638.5q-21 -22.5 -58 -28.5l-38 -297l-9 -78q-12 -115 -75 -177.5t-169 -62.5q-92 0 -143 47.5t-51 135.5q0 29 4 54l13 90l39 317h47l-53 -403q-3 -24 -3 -47q0 -74 38 -112.5t111 -38.5q84 0 134.5 49.5t62.5 144.5l48 407h20q30 0 47 13.5t17 38.5q0 28 -31 60
l3 7q13 10 24 10q8 0 18.5 -10t17.5 -27.5t7 -37.5q0 -32 -21 -54.5z" />
    <glyph glyph-name="uhorn" unicode="&#x1b0;" horiz-adv-x="537" 
d="M522.5 494.5q-17.5 -18.5 -47.5 -24.5l-29 -227l-8 -62q-9 -89 -61.5 -137t-140.5 -48q-78 0 -121 37t-43 106q0 20 3 39l10 71l30 246h47l-41 -312q-4 -24 -4 -34q0 -55 31 -83.5t90 -28.5q68 0 107.5 36.5t48.5 106.5l38 315h18q25 0 38.5 10.5t13.5 29.5q0 22 -26 47
l3 5q13 10 23 10q12 0 25 -17.5t13 -41.5q0 -25 -17.5 -43.5z" />
    <glyph glyph-name="uni01C4" unicode="&#x1c4;" horiz-adv-x="1108" 
d="M528 578q61 -65 61 -184q0 -122 -38 -212t-111.5 -138.5t-176.5 -48.5q-36 0 -91 1.5t-100 3.5h-1l28 194l53 445l202 4q113 0 174 -65zM468.5 128q70.5 92 70.5 257q0 106 -48.5 161t-141.5 55q-28 0 -72.5 -1t-81.5 -3l-52 -400l-18 -155q39 -2 80 -4t67 -2
q126 0 196.5 92zM1114 602l-431 -561h282l77 4l4 -5l-10 -41l-89 1h-284l-44 -2l5 37l430 562h-268l-73 -4l-4 6l11 41l82 -1h275l41 1zM1016 810q-48 -32 -113 -83h-19q-44 39 -100 83l13 23h7q45 -33 90 -68q42 28 107 68h7z" />
    <glyph glyph-name="uni01C5" unicode="&#x1c5;" horiz-adv-x="1059" 
d="M528 578q61 -65 61 -184q0 -122 -38 -212t-111.5 -138.5t-176.5 -48.5q-36 0 -91 1.5t-100 3.5h-1l28 194l53 445l202 4q113 0 174 -65zM468.5 128q70.5 92 70.5 257q0 106 -48.5 161t-141.5 55q-28 0 -72.5 -1t-81.5 -3l-52 -400l-18 -155q39 -2 80 -4t67 -2
q126 0 196.5 92zM1007 690q-42 -41 -124 -130h-20q-56 82 -97 130l18 21h6q43 -49 85 -111q49 51 113 111h7zM1037 459l-347 -421h227l68 4l4 -4l-10 -39l-79 1h-231l-40 -1l5 34l348 423h-220l-61 -4l-3 5l10 38l69 -1h230l35 1z" />
    <glyph glyph-name="uni01C6" unicode="&#x1c6;" horiz-adv-x="990" 
d="M794 560q-56 82 -97 130l18 21h6q43 -49 85 -111q49 51 113 111h7l12 -21q-42 -41 -124 -130h-20zM448.5 446.5q52.5 -51.5 52.5 -144.5q0 -143 -70.5 -224.5t-199.5 -81.5q-31 0 -77 1t-84 3l20 150l42 344l170 4q94 0 146.5 -51.5zM968 459l-347 -421h227l68 4l4 -4
l-10 -39l-79 1h-231l-40 -1l5 34l348 423h-220l-61 -4l-3 5l10 38l69 -1h230l35 1zM397 102.5q56 68.5 56 191.5q0 80 -40 122t-116 42q-22 0 -58 -1t-66 -3l-40 -300l-13 -115q22 -2 60 -3.5t60 -1.5q101 0 157 68.5z" />
    <glyph glyph-name="uni01C7" unicode="&#x1c7;" horiz-adv-x="670" 
d="M364 37l-10 -37h-282l27 194l53 445h49l-57 -442l-19 -155h235zM562 212l-11 -96q-9 -73 -48 -121.5t-124 -94.5l-17 27v8q71 39 104.5 81t40.5 101l11 89l46 392l-121 -1l-6 6l8 36h173z" />
    <glyph glyph-name="uni01C8" unicode="&#x1c8;" horiz-adv-x="665" 
d="M364 37l-10 -37h-282l27 194l53 445h49l-57 -442l-19 -155h235zM547 164l-9 -73q-7 -58 -35.5 -96t-92.5 -73l-17 27l1 6q49 30 72.5 61.5t28.5 76.5l8 65l36 299h-98l-4 4l8 33h144z" />
    <glyph glyph-name="uni01C9" unicode="&#x1c9;" horiz-adv-x="635" 
d="M313 40l3 -5l-9 -35h-237l21 150l42 344h45l-44 -340l-14 -114h193zM517 164l-9 -73q-7 -58 -35.5 -96t-92.5 -73l-17 27l1 6q49 30 72.5 61.5t28.5 76.5l8 65l36 299h-98l-4 4l8 33h144z" />
    <glyph glyph-name="uni01CA" unicode="&#x1ca;" horiz-adv-x="926" 
d="M540 182l-22 -182h-49l-277 557h-6l-45 -352l-24 -205h-46l27 190l55 449h49l277 -557h5l70 554l46 4zM818 212l-11 -96q-9 -73 -48 -121.5t-124 -94.5l-17 27v8q71 39 104.5 81t40.5 101l11 89l46 392l-121 -1l-6 6l8 36h173z" />
    <glyph glyph-name="uni01CB" unicode="&#x1cb;" horiz-adv-x="921" 
d="M540 182l-22 -182h-49l-277 557h-6l-45 -352l-24 -205h-46l27 190l55 449h49l277 -557h5l70 554l46 4zM803 164l-9 -73q-7 -58 -35.5 -96t-92.5 -73l-17 27l1 6q49 30 72.5 61.5t28.5 76.5l8 65l36 299h-98l-4 4l8 33h144z" />
    <glyph glyph-name="uni01CC" unicode="&#x1cc;" horiz-adv-x="846" 
d="M465 493l43 3l-47 -353l-17 -143h-48l-229 418h-3l-34 -258l-19 -160h-42l20 146l43 348h47l230 -418h5zM728 164l-9 -73q-7 -58 -35.5 -96t-92.5 -73l-17 27l1 6q49 30 72.5 61.5t28.5 76.5l8 65l36 299h-98l-4 4l8 33h144z" />
    <glyph glyph-name="uni01CD" unicode="&#x1cd;" horiz-adv-x="536" 
d="M485 0h-50l-6 53l-29 142l-142 1l-129 -1l-68 -140l-22 -55h-50l311 639h55zM391 238l-70 344h-4l-167 -344l118 -2zM459 810q-48 -32 -113 -83h-19q-44 39 -100 83l13 23h7q45 -33 90 -68q42 28 107 68h7z" />
    <glyph glyph-name="uni01CE" unicode="&#x1ce;" horiz-adv-x="482" 
d="M271 560q-56 82 -97 130l18 21h6q43 -49 85 -111q49 51 113 111h7l12 -21q-42 -41 -124 -130h-20zM417 0h-48l-4 44l-23 101l-118 1l-106 -1l-51 -99l-19 -46h-47l252 494h53zM274 444h-4l-133 -260h196z" />
    <glyph glyph-name="uni01CF" unicode="&#x1cf;" horiz-adv-x="247" 
d="M143 197l-23 -197h-49l27 194l53 445h49zM309 810q-48 -32 -113 -83h-19q-44 39 -100 83l13 23h7q45 -33 90 -68q42 28 107 68h7z" />
    <glyph glyph-name="uni01D0" unicode="&#x1d0;" horiz-adv-x="243" 
d="M290 690q-42 -41 -124 -130h-20q-56 82 -97 130l18 21h6q43 -49 85 -111q49 51 113 111h7zM133 154l-18 -154h-46l21 150l41 344h46z" />
    <glyph glyph-name="uni01D1" unicode="&#x1d1;" horiz-adv-x="605" 
d="M521.5 578.5q57.5 -66.5 57.5 -187.5q0 -122 -36 -211.5t-105.5 -137.5t-166.5 -48q-105 0 -162.5 68t-57.5 192q0 121 36 209t105 135t166 47q106 0 163.5 -66.5zM165.5 512.5q-64.5 -90.5 -64.5 -254.5q0 -108 44.5 -165t129.5 -57q123 0 188.5 91.5t65.5 256.5
q0 108 -44.5 163.5t-131.5 55.5q-123 0 -187.5 -90.5zM488 810q-48 -32 -113 -83h-19q-44 39 -100 83l13 23h7q45 -33 90 -68q42 28 107 68h7z" />
    <glyph glyph-name="uni01D2" unicode="&#x1d2;" horiz-adv-x="536" 
d="M437 690q-42 -41 -124 -130h-20q-56 82 -97 130l18 21h6q43 -49 85 -111q49 51 113 111h7zM443.5 446.5q48.5 -52.5 48.5 -152.5q0 -90 -30 -157.5t-87.5 -104.5t-136.5 -37q-90 0 -138.5 53.5t-48.5 155.5q0 137 67 216t187 79q90 0 138.5 -52.5zM150.5 394
q-51.5 -65 -51.5 -186q0 -88 35 -130.5t107 -42.5q98 0 150.5 66t52.5 187q0 86 -36 128.5t-109 42.5q-97 0 -148.5 -65z" />
    <glyph glyph-name="uni01D3" unicode="&#x1d3;" horiz-adv-x="590" 
d="M522 313l-9 -78q-12 -115 -75 -177.5t-169 -62.5q-92 0 -143 47.5t-51 135.5q0 29 4 54l13 90l39 317h47l-53 -403q-3 -24 -3 -47q0 -74 38 -112.5t111 -38.5q84 0 134.5 49.5t62.5 144.5l48 407h48zM484 835q-42 -41 -124 -130h-20q-56 82 -97 130l18 21h6
q43 -49 85 -111q49 51 113 111h7z" />
    <glyph glyph-name="uni01D4" unicode="&#x1d4;" horiz-adv-x="526" 
d="M432 690q-42 -41 -124 -130h-20q-56 82 -97 130l18 21h6q43 -49 85 -111q49 51 113 111h7zM447 242l-9 -67q-9 -86 -61.5 -132.5t-140.5 -46.5q-79 0 -122 36.5t-43 105.5q0 18 3 37l11 73l30 246h46l-43 -313q-2 -22 -2 -31q0 -56 31.5 -85t91.5 -29q68 0 108 37t49 108
l38 313h46z" />
    <glyph glyph-name="uni01D5" unicode="&#x1d5;" horiz-adv-x="590" 
d="M522 313l-9 -78q-12 -115 -75 -177.5t-169 -62.5q-92 0 -143 47.5t-51 135.5q0 29 4 54l13 90l39 317h47l-53 -403q-3 -24 -3 -47q0 -74 38 -112.5t111 -38.5q84 0 134.5 49.5t62.5 144.5l48 407h48zM508 897l-3 -31h-247l-5 5l3 31h247zM319 787q8 -8 8 -22t-8.5 -22.5
t-21.5 -8.5q-14 0 -22 8t-8 22t8.5 22.5t22.5 8.5q13 0 21 -8zM467 787q8 -8 8 -22t-8 -22.5t-22 -8.5t-22 8.5t-8 21.5q0 14 8.5 22.5t22.5 8.5q13 0 21 -8z" />
    <glyph glyph-name="uni01D6" unicode="&#x1d6;" horiz-adv-x="526" 
d="M456 752l-3 -31h-247l-5 5l3 31h247zM267 642q8 -8 8 -22t-8.5 -22.5t-21.5 -8.5q-14 0 -22 8t-8 22t8.5 22.5t22.5 8.5q13 0 21 -8zM415 642q8 -8 8 -22t-8 -22.5t-22 -8.5q-13 0 -21.5 8.5t-8.5 21.5q0 14 8.5 22.5t22.5 8.5q13 0 21 -8zM447 242l-9 -67
q-9 -86 -61.5 -132.5t-140.5 -46.5q-79 0 -122 36.5t-43 105.5q0 18 3 37l11 73l30 246h46l-43 -313q-2 -22 -2 -31q0 -56 31.5 -85t91.5 -29q68 0 108 37t49 108l38 313h46z" />
    <glyph glyph-name="uni01D7" unicode="&#x1d7;" horiz-adv-x="590" 
d="M522 313l-9 -78q-12 -115 -75 -177.5t-169 -62.5q-92 0 -143 47.5t-51 135.5q0 29 4 54l13 90l39 317h47l-53 -403q-3 -24 -3 -47q0 -74 38 -112.5t111 -38.5q84 0 134.5 49.5t62.5 144.5l48 407h48zM455 934l9 -30l-4 -6q-99 -31 -196 -56l-7 5l-5 26q104 30 198 65z
M293 787q8 -8 8 -22t-8.5 -22.5t-21.5 -8.5q-14 0 -22 8t-8 22t8.5 22.5t22.5 8.5q13 0 21 -8zM441 787q8 -8 8 -22t-8.5 -22.5t-21.5 -8.5q-14 0 -22 8t-8 22t8.5 22.5t22.5 8.5q13 0 21 -8z" />
    <glyph glyph-name="uni01D8" unicode="&#x1d8;" horiz-adv-x="526" 
d="M416 789l8 -30l-4 -6q-99 -31 -196 -56l-6 5l-6 26q98 28 198 65zM265 642q8 -8 8 -22t-8.5 -22.5t-22.5 -8.5q-13 0 -21 8t-8 22t8.5 22.5t22.5 8.5q13 0 21 -8zM413 642q8 -8 8 -22t-8.5 -22.5t-21.5 -8.5q-14 0 -22 8t-8 22t8.5 22.5t22.5 8.5q13 0 21 -8zM447 242
l-9 -67q-9 -86 -61.5 -132.5t-140.5 -46.5q-79 0 -122 36.5t-43 105.5q0 18 3 37l11 73l30 246h46l-43 -313q-2 -22 -2 -31q0 -56 31.5 -85t91.5 -29q68 0 108 37t49 108l38 313h46z" />
    <glyph glyph-name="uni01D9" unicode="&#x1d9;" horiz-adv-x="590" 
d="M522 313l-9 -78q-12 -115 -75 -177.5t-169 -62.5q-92 0 -143 47.5t-51 135.5q0 29 4 54l13 90l39 317h47l-53 -403q-3 -24 -3 -47q0 -74 38 -112.5t111 -38.5q84 0 134.5 49.5t62.5 144.5l48 407h48zM304 788.5q8 -7.5 8 -21.5t-8.5 -22.5t-22.5 -8.5t-21.5 8t-7.5 22
t8.5 22t22.5 8q13 0 21 -7.5zM461 788q8 -8 8 -21q0 -14 -8.5 -22.5t-22.5 -8.5t-21.5 8t-7.5 22t8 22t22 8t22 -8zM489 909q-48 -32 -113 -83h-19q-44 39 -100 83l13 23h7q45 -33 90 -68q42 28 107 68h7z" />
    <glyph glyph-name="uni01DA" unicode="&#x1da;" horiz-adv-x="526" 
d="M435 761q-48 -32 -113 -83h-19q-44 39 -100 83l13 23h7q36 -25 74 -55l17 -13q49 34 106 68h7zM258 642q8 -8 8 -22t-8.5 -22.5t-21.5 -8.5q-14 0 -22 8t-8 22t8.5 22.5t22.5 8.5q13 0 21 -8zM406 642q8 -8 8 -22t-8.5 -22.5t-21.5 -8.5t-21 8t-8 22t8 22.5t22 8.5
q13 0 21 -8zM447 242l-9 -67q-9 -86 -61.5 -132.5t-140.5 -46.5q-79 0 -122 36.5t-43 105.5q0 18 3 37l11 73l30 246h46l-43 -313q-2 -22 -2 -31q0 -56 31.5 -85t91.5 -29q68 0 108 37t49 108l38 313h46z" />
    <glyph glyph-name="uni01DB" unicode="&#x1db;" horiz-adv-x="590" 
d="M522 313l-9 -78q-12 -115 -75 -177.5t-169 -62.5q-92 0 -143 47.5t-51 135.5q0 29 4 54l13 90l39 317h47l-53 -403q-3 -24 -3 -47q0 -74 38 -112.5t111 -38.5q84 0 134.5 49.5t62.5 144.5l48 407h48zM244 898l-4 6l9 30l6 4q94 -35 198 -65l-6 -26l-7 -5q-96 25 -196 56z
M249 742q-8 8 -8 22t8.5 22.5t22.5 8.5q13 0 21 -8t8 -22t-8.5 -22.5t-21.5 -8.5q-14 0 -22 8zM397 742.5q-8 8.5 -8 21.5q0 14 8.5 22.5t22.5 8.5q13 0 21 -8t8 -22t-8 -22.5t-22 -8.5t-22 8.5z" />
    <glyph glyph-name="uni01DC" unicode="&#x1dc;" horiz-adv-x="526" 
d="M216 753l-4 6l9 30l6 4q94 -35 198 -65l-6 -26l-7 -5q-96 25 -196 56zM221 597q-8 8 -8 22t8.5 22.5t22.5 8.5q13 0 21 -8t8 -22t-8.5 -22.5t-21.5 -8.5q-14 0 -22 8zM369.5 597.5q-8.5 8.5 -8.5 21.5q0 14 8.5 22.5t22.5 8.5q13 0 21 -8t8 -22t-8 -22.5t-22 -8.5
q-13 0 -21.5 8.5zM447 242l-9 -67q-9 -86 -61.5 -132.5t-140.5 -46.5q-79 0 -122 36.5t-43 105.5q0 18 3 37l11 73l30 246h46l-43 -313q-2 -22 -2 -31q0 -56 31.5 -85t91.5 -29q68 0 108 37t49 108l38 313h46z" />
    <glyph glyph-name="Gcaron" unicode="&#x1e6;" horiz-adv-x="575" 
d="M551 593l-17 -45h-7q-40 27 -77.5 40t-77.5 13q-131 0 -202 -90.5t-71 -257.5q0 -107 45.5 -161.5t135.5 -54.5q36 0 69 5.5t84 21.5l14 95l10 94l46 4l-11 -93l-16 -134q-62 -19 -105 -27t-93 -8q-111 0 -169.5 66t-58.5 188q0 124 39 213t113 135.5t178 46.5
q90 0 171 -51zM482 810q-48 -32 -113 -83h-19q-44 39 -100 83l13 23h7q45 -33 90 -68q42 28 107 68h7z" />
    <glyph glyph-name="gcaron" unicode="&#x1e7;" horiz-adv-x="511" 
d="M435 690q-42 -41 -124 -130h-20q-56 82 -97 130l18 21h6q43 -49 85 -111q49 51 113 111h7zM469 461l-21 -44h-6q-34 22 -64 32t-61 10q-106 0 -162 -66.5t-56 -188.5q0 -84 36 -126.5t111 -42.5q31 0 58 4.5t68 17.5l8 68l8 66l43 3l-9 -63l-13 -108q-55 -15 -91 -21
t-75 -6q-94 0 -143 52t-49 153q0 139 71.5 218t200.5 79q72 0 146 -37z" />
    <glyph glyph-name="uni01EA" unicode="&#x1ea;" horiz-adv-x="605" 
d="M521.5 578.5q57.5 -66.5 57.5 -187.5q0 -122 -36 -211.5t-105.5 -137.5t-166.5 -48q-105 0 -162.5 68t-57.5 192q0 121 36 209t105 135t166 47q106 0 163.5 -66.5zM165.5 512.5q-64.5 -90.5 -64.5 -254.5q0 -108 44.5 -165t129.5 -57q123 0 188.5 91.5t65.5 256.5
q0 108 -44.5 163.5t-131.5 55.5q-123 0 -187.5 -90.5zM251 -193q-20 19 -20 51q0 17 7 32t22.5 35.5t56.5 68.5l14 16h37q-14 -18 -20 -24q-54 -67 -66.5 -85.5t-12.5 -35.5q0 -19 10.5 -30t29.5 -11q39 0 79 46h4l11 -29q-47 -53 -99 -53q-33 0 -53 19z" />
    <glyph glyph-name="uni01EB" unicode="&#x1eb;" horiz-adv-x="536" 
d="M457.5 127q-34.5 -70 -98.5 -104q-35 -42 -58 -71t-29.5 -42t-6.5 -26q0 -19 10.5 -30t29.5 -11q39 0 79 46h4l11 -29q-47 -53 -99 -53q-33 0 -53 19t-20 51q0 23 14 44.5t64 80.5q-37 -7 -67 -7q-90 0 -138.5 53.5t-48.5 155.5q0 137 67 216t187 79q90 0 138.5 -52.5
t48.5 -152.5q0 -97 -34.5 -167zM134 77.5q35 -42.5 107 -42.5q98 0 150.5 66t52.5 187q0 86 -36 128.5t-109 42.5q-97 0 -148.5 -65t-51.5 -186q0 -88 35 -130.5z" />
    <glyph glyph-name="Aringacute" unicode="&#x1fa;" horiz-adv-x="538" 
d="M259 784l-7 26q105 36 194 75l6 -3l10 -30l-3 -6q-82 -30 -193 -67zM486 0h-50l-7 52l-29 142l-142 1l-128 -1l-69 -140l-21 -54h-50l305 619q-18 9 -29 26.5t-11 41.5q0 33 21 54t56 21q36 0 56.5 -21.5t20.5 -53.5q0 -27 -14 -45.5t-37 -26.5zM296.5 720.5
q-12.5 -12.5 -12.5 -33.5q0 -23 13.5 -35.5t34.5 -12.5t34.5 12.5t13.5 34.5q0 21 -12.5 34t-36.5 13q-22 0 -34.5 -12.5zM391 237l-69 342h-4l-168 -342l118 -1z" />
    <glyph glyph-name="aringacute" unicode="&#x1fb;" horiz-adv-x="482" 
d="M426 812l-3 -7q-68 -25 -193 -66l-7 4l-8 26q80 27 195 75l6 -3zM349 590q-23 -21 -55 -21q-31 0 -53 20.5t-22 55.5q0 33 21 54.5t56 21.5q36 0 56 -21.5t20 -53.5q0 -35 -23 -56zM260.5 610.5q13.5 -12.5 34.5 -12.5t35 12t14 34q0 21 -12.5 34.5t-36.5 13.5
q-22 0 -35 -12.5t-13 -33.5q0 -23 13.5 -35.5zM306 494l111 -494h-48l-4 44l-23 101l-118 1l-106 -1l-51 -99l-19 -46h-47l252 494h53zM274 444h-4l-133 -260h196z" />
    <glyph glyph-name="AEacute" unicode="&#x1fc;" horiz-adv-x="755" 
d="M713 38l-10 -38h-308l2 53l-6 223l-240 -48l-111 -173l-30 -55h-52l413 639h319l4 -6l-11 -38l-154 2h-98l6 -272l219 42l3 -5l-3 -36l-218 -40l5 -245h112l155 3zM391 316l-7 265h-5l-197 -306zM629 847l13 -28l-2 -7q-80 -41 -184 -89l-7 3l-11 25q85 40 184 98z" />
    <glyph glyph-name="aeacute" unicode="&#x1fd;" horiz-adv-x="664" 
d="M388 558l-16 22q79 66 155 141l6 -1l20 -25l-2 -6q-58 -52 -156 -132zM609 37l-9 -37h-261l3 44l-6 162l-204 -40l-83 -121l-24 -45h-49l339 494h271l3 -5l-10 -36l-129 4h-79l7 -204l179 33l4 -3l-3 -37l-179 -32l6 -175h92l129 2zM334 245l-7 199h-4l-160 -232z" />
    <glyph glyph-name="Oslashacute" unicode="&#x1fe;" horiz-adv-x="606" 
d="M558.5 516q20.5 -53 20.5 -125q0 -122 -36 -211.5t-105.5 -137.5t-166.5 -48q-57 0 -104 22l-62 -110l-30 10l-2 5l64 114q-42 32 -64 87.5t-22 131.5q0 121 36 209t105 135t166 47q63 0 110 -24l54 95l30 -10l2 -7l-56 -98q40 -32 60.5 -85zM161 76l285 505
q-41 22 -93 22q-123 0 -187.5 -90.5t-64.5 -254.5q0 -126 60 -182zM463.5 127.5q65.5 91.5 65.5 256.5q0 120 -55 174l-284 -503q36 -19 85 -19q123 0 188.5 91.5zM454 847l13 -28l-2 -7q-80 -41 -184 -89l-7 3l-11 25q85 40 184 98z" />
    <glyph glyph-name="oslashacute" unicode="&#x1ff;" horiz-adv-x="536" 
d="M228 559l-16 22q79 66 155 141l6 -1l20 -25l-2 -6q-58 -52 -156 -132zM492 294q0 -90 -30 -157.5t-87.5 -104.5t-136.5 -37q-48 0 -84 15l-57 -98l-30 16l-2 6l55 95q-69 52 -69 175q0 137 67 216t187 79q45 0 78 -13l47 83l30 -16l3 -6l-45 -78q74 -51 74 -175zM142 69
l219 380q-26 10 -62 10q-97 0 -148.5 -65t-51.5 -186q0 -97 43 -139zM391.5 101q52.5 66 52.5 187q0 101 -49 141l-220 -382q27 -12 66 -12q98 0 150.5 66z" />
    <glyph glyph-name="uni0200" unicode="&#x200;" horiz-adv-x="536" 
d="M485 0h-50l-6 53l-29 142l-142 1l-129 -1l-68 -140l-22 -55h-50l311 639h55zM391 238l-70 344h-4l-167 -344l118 -2zM296 727q-47 41 -111 103v6l20 19h6q57 -62 108 -110l-17 -18h-6zM429 727q-49 44 -110 103l-1 6l20 19h7q51 -56 107 -110l-17 -18h-6z" />
    <glyph glyph-name="uni0201" unicode="&#x201;" horiz-adv-x="482" 
d="M110 696l-1 6l23 18h6q63 -69 141 -145l-18 -18h-7q-78 72 -144 139zM245 696v6l22 18h7q72 -78 140 -145l-18 -18h-6q-88 81 -145 139zM417 0h-48l-4 44l-23 101l-118 1l-106 -1l-51 -99l-19 -46h-47l252 494h53zM274 444h-4l-133 -260h196z" />
    <glyph glyph-name="uni0202" unicode="&#x202;" horiz-adv-x="536" 
d="M485 0h-50l-6 53l-29 142l-142 1l-129 -1l-68 -140l-22 -55h-50l311 639h55zM391 238l-70 344h-4l-167 -344l118 -2zM229 728q34 110 123 110q49 0 73 -27.5t29 -82.5l-20 -21h-8q-2 48 -21 70.5t-55 22.5t-60.5 -22.5t-37.5 -70.5h-8z" />
    <glyph glyph-name="uni0203" unicode="&#x203;" horiz-adv-x="482" 
d="M197 563l-15 21q34 110 123 110q49 0 73 -27.5t29 -82.5l-20 -21h-8q-2 48 -21 70.5t-55 22.5t-60.5 -22.5t-37.5 -70.5h-8zM417 0h-48l-4 44l-23 101l-118 1l-106 -1l-51 -99l-19 -46h-47l252 494h53zM274 444h-4l-133 -260h196z" />
    <glyph glyph-name="uni0204" unicode="&#x204;" horiz-adv-x="447" 
d="M194 596l-31 -246l118 -1l101 2l4 -6l-10 -37l-105 1l-114 -1l-14 -111l-18 -155l123 -1l147 3l3 -6l-10 -38h-317l28 194l53 445h316l3 -6l-10 -38l-140 2zM283 727q-47 41 -111 103v6l20 19h6q57 -62 108 -110l-17 -18h-6zM416 727q-49 44 -110 103l-1 6l20 19h7
q51 -56 107 -110l-17 -18h-6z" />
    <glyph glyph-name="uni0205" unicode="&#x205;" horiz-adv-x="408" 
d="M97 696l-1 6l23 18h6q63 -69 141 -145l-18 -18h-7q-78 72 -144 139zM232 696v6l22 18h7q72 -78 140 -145l-18 -18h-6q-88 81 -145 139zM172 456l-24 -182h99l83 1l3 -5l-8 -36l-87 1h-95l-11 -81l-13 -115l98 -1l126 2l4 -4l-10 -36h-268l20 150l42 344h268l3 -5l-9 -36
l-117 3h-104z" />
    <glyph glyph-name="uni0206" unicode="&#x206;" horiz-adv-x="447" 
d="M194 596l-31 -246l118 -1l101 2l4 -6l-10 -37l-105 1l-114 -1l-14 -111l-18 -155l123 -1l147 3l3 -6l-10 -38h-317l28 194l53 445h316l3 -6l-10 -38l-140 2zM216 728q34 110 123 110q49 0 73 -27.5t29 -82.5l-20 -21h-8q-2 48 -21 70.5t-55 22.5t-60.5 -22.5t-37.5 -70.5
h-8z" />
    <glyph glyph-name="uni0207" unicode="&#x207;" horiz-adv-x="408" 
d="M184 563l-15 21q34 110 123 110q49 0 73 -27.5t29 -82.5l-20 -21h-8q-2 48 -21 70.5t-55 22.5t-60.5 -22.5t-37.5 -70.5h-8zM172 456l-24 -182h99l83 1l3 -5l-8 -36l-87 1h-95l-11 -81l-13 -115l98 -1l126 2l4 -4l-10 -36h-268l20 150l42 344h268l3 -5l-9 -36l-117 3
h-104z" />
    <glyph glyph-name="uni0208" unicode="&#x208;" horiz-adv-x="247" 
d="M143 197l-23 -197h-49l27 194l53 445h49zM146 727q-47 41 -111 103v6l20 19h6q57 -62 108 -110l-17 -18h-6zM279 727q-49 44 -110 103l-1 6l20 19h7q51 -56 107 -110l-17 -18h-6z" />
    <glyph glyph-name="uni0209" unicode="&#x209;" horiz-adv-x="243" 
d="M129 557q-78 72 -144 139l-1 6l23 18h6q63 -69 141 -145l-18 -18h-7zM265 557q-88 81 -145 139v6l22 18h7q72 -78 140 -145l-18 -18h-6zM133 154l-18 -154h-46l21 150l41 344h46z" />
    <glyph glyph-name="uni020A" unicode="&#x20a;" horiz-adv-x="247" 
d="M143 197l-23 -197h-49l27 194l53 445h49zM79 728q34 110 123 110q49 0 73 -27.5t29 -82.5l-20 -21h-8q-2 48 -21 70.5t-55 22.5t-60.5 -22.5t-37.5 -70.5h-8z" />
    <glyph glyph-name="uni020B" unicode="&#x20b;" horiz-adv-x="243" 
d="M57 584q34 110 123 110q49 0 73 -27.5t29 -82.5l-20 -21h-8q-2 48 -21 70.5t-55 22.5t-60.5 -22.5t-37.5 -70.5h-8zM133 154l-18 -154h-46l21 150l41 344h46z" />
    <glyph glyph-name="uni020C" unicode="&#x20c;" horiz-adv-x="605" 
d="M521.5 578.5q57.5 -66.5 57.5 -187.5q0 -122 -36 -211.5t-105.5 -137.5t-166.5 -48q-105 0 -162.5 68t-57.5 192q0 121 36 209t105 135t166 47q106 0 163.5 -66.5zM165.5 512.5q-64.5 -90.5 -64.5 -254.5q0 -108 44.5 -165t129.5 -57q123 0 188.5 91.5t65.5 256.5
q0 108 -44.5 163.5t-131.5 55.5q-123 0 -187.5 -90.5zM325 727q-47 41 -111 103v6l20 19h6q57 -62 108 -110l-17 -18h-6zM458 727q-49 44 -110 103l-1 6l20 19h7q51 -56 107 -110l-17 -18h-6z" />
    <glyph glyph-name="uni020D" unicode="&#x20d;" horiz-adv-x="536" 
d="M276 557q-78 72 -144 139l-1 6l23 18h6q63 -69 141 -145l-18 -18h-7zM412 557q-88 81 -145 139v6l22 18h7q72 -78 140 -145l-18 -18h-6zM443.5 446.5q48.5 -52.5 48.5 -152.5q0 -90 -30 -157.5t-87.5 -104.5t-136.5 -37q-90 0 -138.5 53.5t-48.5 155.5q0 137 67 216
t187 79q90 0 138.5 -52.5zM150.5 394q-51.5 -65 -51.5 -186q0 -88 35 -130.5t107 -42.5q98 0 150.5 66t52.5 187q0 86 -36 128.5t-109 42.5q-97 0 -148.5 -65z" />
    <glyph glyph-name="uni020E" unicode="&#x20e;" horiz-adv-x="605" 
d="M521.5 578.5q57.5 -66.5 57.5 -187.5q0 -122 -36 -211.5t-105.5 -137.5t-166.5 -48q-105 0 -162.5 68t-57.5 192q0 121 36 209t105 135t166 47q106 0 163.5 -66.5zM165.5 512.5q-64.5 -90.5 -64.5 -254.5q0 -108 44.5 -165t129.5 -57q123 0 188.5 91.5t65.5 256.5
q0 108 -44.5 163.5t-131.5 55.5q-123 0 -187.5 -90.5zM258 728q34 110 123 110q49 0 73 -27.5t29 -82.5l-20 -21h-8q-2 48 -21 70.5t-55 22.5t-60.5 -22.5t-37.5 -70.5h-8z" />
    <glyph glyph-name="uni020F" unicode="&#x20f;" horiz-adv-x="536" 
d="M204 584q34 110 123 110q49 0 73 -27.5t29 -82.5l-20 -21h-8q-2 48 -21 70.5t-55 22.5t-60.5 -22.5t-37.5 -70.5h-8zM443.5 446.5q48.5 -52.5 48.5 -152.5q0 -90 -30 -157.5t-87.5 -104.5t-136.5 -37q-90 0 -138.5 53.5t-48.5 155.5q0 137 67 216t187 79
q90 0 138.5 -52.5zM150.5 394q-51.5 -65 -51.5 -186q0 -88 35 -130.5t107 -42.5q98 0 150.5 66t52.5 187q0 86 -36 128.5t-109 42.5q-97 0 -148.5 -65z" />
    <glyph glyph-name="uni0210" unicode="&#x210;" horiz-adv-x="512" 
d="M428 349q-42 -59 -117 -87q61 -133 133 -251l-2 -6q-15 -8 -42 -13l-7 4q-75 135 -125 255h-118l-7 -54l-23 -197h-49l27 194l54 445l156 1q78 0 120 -39.5t42 -112.5q0 -80 -42 -139zM155 294l124 -2q68 20 104.5 68t36.5 121q0 55 -30 85t-89 33l-106 -2zM278 727
q-47 41 -111 103v6l20 19h6q57 -62 108 -110l-17 -18h-6zM411 727q-49 44 -110 103l-1 6l20 19h7q51 -56 107 -110l-17 -18h-6z" />
    <glyph glyph-name="uni0211" unicode="&#x211;" horiz-adv-x="464" 
d="M95 696l-1 6l23 18h6q63 -69 141 -145l-18 -18h-7q-78 72 -144 139zM230 696v6l22 18h7q72 -78 140 -145l-18 -18h-6q-88 81 -145 139zM370.5 269q-33.5 -44 -94.5 -66q49 -99 111 -192l-1 -7q-19 -7 -41 -10l-9 5q-54 93 -101 193h-97l-5 -38l-18 -154h-45l20 150
l42 344l134 1q65 0 101.5 -32t36.5 -89q0 -61 -33.5 -105zM143 232l100 -2q54 14 83.5 49.5t29.5 88.5q0 84 -98 90l-85 -2z" />
    <glyph glyph-name="uni0212" unicode="&#x212;" horiz-adv-x="512" 
d="M428 349q-42 -59 -117 -87q61 -133 133 -251l-2 -6q-15 -8 -42 -13l-7 4q-75 135 -125 255h-118l-7 -54l-23 -197h-49l27 194l54 445l156 1q78 0 120 -39.5t42 -112.5q0 -80 -42 -139zM155 294l124 -2q68 20 104.5 68t36.5 121q0 55 -30 85t-89 33l-106 -2zM211 728
q34 110 123 110q49 0 73 -27.5t29 -82.5l-20 -21h-8q-2 48 -21 70.5t-55 22.5t-60.5 -22.5t-37.5 -70.5h-8z" />
    <glyph glyph-name="uni0213" unicode="&#x213;" horiz-adv-x="464" 
d="M182 563l-15 21q34 110 123 110q49 0 73 -27.5t29 -82.5l-20 -21h-8q-2 48 -21 70.5t-55 22.5t-60.5 -22.5t-37.5 -70.5h-8zM370.5 269q-33.5 -44 -94.5 -66q49 -99 111 -192l-1 -7q-19 -7 -41 -10l-9 5q-54 93 -101 193h-97l-5 -38l-18 -154h-45l20 150l42 344l134 1
q65 0 101.5 -32t36.5 -89q0 -61 -33.5 -105zM143 232l100 -2q54 14 83.5 49.5t29.5 88.5q0 84 -98 90l-85 -2z" />
    <glyph glyph-name="uni0214" unicode="&#x214;" horiz-adv-x="590" 
d="M522 313l-9 -78q-12 -115 -75 -177.5t-169 -62.5q-92 0 -143 47.5t-51 135.5q0 29 4 54l13 90l39 317h47l-53 -403q-3 -24 -3 -47q0 -74 38 -112.5t111 -38.5q84 0 134.5 49.5t62.5 144.5l48 407h48zM318 727q-47 41 -111 103v6l20 19h6q57 -62 108 -110l-17 -18h-6z
M451 727q-49 44 -110 103l-1 6l20 19h7q51 -56 107 -110l-17 -18h-6z" />
    <glyph glyph-name="uni0215" unicode="&#x215;" horiz-adv-x="526" 
d="M272 557q-78 72 -144 139l-1 6l23 18h6q63 -69 141 -145l-18 -18h-7zM408 557q-88 81 -145 139v6l22 18h7q72 -78 140 -145l-18 -18h-6zM447 242l-9 -67q-9 -86 -61.5 -132.5t-140.5 -46.5q-79 0 -122 36.5t-43 105.5q0 18 3 37l11 73l30 246h46l-43 -313q-2 -22 -2 -31
q0 -56 31.5 -85t91.5 -29q68 0 108 37t49 108l38 313h46z" />
    <glyph glyph-name="uni0216" unicode="&#x216;" horiz-adv-x="590" 
d="M522 313l-9 -78q-12 -115 -75 -177.5t-169 -62.5q-92 0 -143 47.5t-51 135.5q0 29 4 54l13 90l39 317h47l-53 -403q-3 -24 -3 -47q0 -74 38 -112.5t111 -38.5q84 0 134.5 49.5t62.5 144.5l48 407h48zM251 728q34 110 123 110q49 0 73 -27.5t29 -82.5l-20 -21h-8
q-2 48 -21 70.5t-55 22.5t-60.5 -22.5t-37.5 -70.5h-8z" />
    <glyph glyph-name="uni0217" unicode="&#x217;" horiz-adv-x="526" 
d="M199 584q34 110 123 110q49 0 73 -27.5t29 -82.5l-20 -21h-8q-2 48 -21 70.5t-55 22.5t-60.5 -22.5t-37.5 -70.5h-8zM447 242l-9 -67q-9 -86 -61.5 -132.5t-140.5 -46.5q-79 0 -122 36.5t-43 105.5q0 18 3 37l11 73l30 246h46l-43 -313q-2 -22 -2 -31q0 -56 31.5 -85
t91.5 -29q68 0 108 37t49 108l38 313h46z" />
    <glyph glyph-name="Scommaaccent" unicode="&#x218;" horiz-adv-x="437" 
d="M419 613l-14 -45l-10 -3q-49 37 -111 37q-43 0 -76 -18t-51.5 -47t-18.5 -60q0 -29 15 -51.5t36.5 -39t60.5 -40.5q45 -27 71 -47.5t45 -52t19 -73.5q0 -49 -27.5 -90t-75.5 -64.5t-106 -23.5q-40 0 -81 11.5t-72 33.5l11 49l9 3q27 -28 64 -42t74 -14q44 0 79.5 18
t55.5 47.5t20 63.5q0 31 -15 55t-37.5 41t-61.5 41q-43 26 -69 46.5t-44 51t-18 72.5q0 47 26 86.5t72 62t102 22.5q68 0 128 -30zM234 -115q0 -54 -78 -111l-17 17l1 5q53 42 53 81q0 24 -30 40v6q17 13 33 18q38 -22 38 -56z" />
    <glyph glyph-name="scommaaccent" unicode="&#x219;" horiz-adv-x="398" 
d="M355 475l-13 -45l-10 -2q-42 32 -90 32q-34 0 -60 -14t-40 -36t-14 -46q0 -31 22.5 -50.5t68.5 -41.5q36 -18 59 -33t39 -39t16 -58q0 -38 -21 -71.5t-60 -54t-89 -20.5q-33 0 -68 9t-61 25l9 48l7 3q24 -23 55.5 -35t61.5 -12q34 0 61.5 14.5t43 37.5t15.5 49
q0 32 -22.5 51.5t-69.5 42.5q-37 18 -59 33t-38 38.5t-16 57.5q0 37 20.5 69t58.5 51.5t86 19.5q55 0 108 -23zM228 -115q0 -54 -78 -111l-17 17l1 5q53 42 53 81q0 24 -30 40v6q17 13 33 18q38 -22 38 -56z" />
    <glyph glyph-name="uni021A" unicode="&#x21a;" horiz-adv-x="459" 
d="M486 633l-10 -37l-100 2h-75l-53 -401l-22 -197h-48l26 194l48 404h-73l-104 -2l-4 5l11 38h400zM245 -115q0 -54 -78 -111l-17 17l1 5q53 42 53 81q0 24 -30 40v6q17 13 33 18q38 -22 38 -56z" />
    <glyph glyph-name="uni021B" unicode="&#x21b;" horiz-adv-x="416" 
d="M413 489l-9 -38l-84 4h-60l-39 -301l-18 -154h-45l20 150l37 305h-60l-86 -4l-4 6l9 37h337zM221 -115q0 -54 -78 -111l-17 17l1 5q53 42 53 81q0 24 -30 40v6q17 13 33 18q38 -22 38 -56z" />
    <glyph glyph-name="uni022A" unicode="&#x22a;" horiz-adv-x="605" 
d="M521.5 578.5q57.5 -66.5 57.5 -187.5q0 -122 -36 -211.5t-105.5 -137.5t-166.5 -48q-105 0 -162.5 68t-57.5 192q0 121 36 209t105 135t166 47q106 0 163.5 -66.5zM165.5 512.5q-64.5 -90.5 -64.5 -254.5q0 -108 44.5 -165t129.5 -57q123 0 188.5 91.5t65.5 256.5
q0 108 -44.5 163.5t-131.5 55.5q-123 0 -187.5 -90.5zM515 897l-3 -31h-247l-5 5l3 31h247zM326 787q8 -8 8 -22t-8.5 -22.5t-21.5 -8.5q-14 0 -22 8t-8 22t8.5 22.5t22.5 8.5q13 0 21 -8zM474 787q8 -8 8 -22t-8 -22.5t-22 -8.5t-22 8.5t-8 21.5q0 14 8.5 22.5t22.5 8.5
q13 0 21 -8z" />
    <glyph glyph-name="uni022B" unicode="&#x22b;" horiz-adv-x="536" 
d="M461 752l-3 -31h-247l-5 5l3 31h247zM272 642q8 -8 8 -22t-8.5 -22.5t-21.5 -8.5q-14 0 -22 8t-8 22t8.5 22.5t22.5 8.5q13 0 21 -8zM420 642q8 -8 8 -22t-8 -22.5t-22 -8.5q-13 0 -21.5 8.5t-8.5 21.5q0 14 8.5 22.5t22.5 8.5q13 0 21 -8zM443.5 446.5
q48.5 -52.5 48.5 -152.5q0 -90 -30 -157.5t-87.5 -104.5t-136.5 -37q-90 0 -138.5 53.5t-48.5 155.5q0 137 67 216t187 79q90 0 138.5 -52.5zM150.5 394q-51.5 -65 -51.5 -186q0 -88 35 -130.5t107 -42.5q98 0 150.5 66t52.5 187q0 86 -36 128.5t-109 42.5q-97 0 -148.5 -65
z" />
    <glyph glyph-name="uni022C" unicode="&#x22c;" horiz-adv-x="605" 
d="M521.5 578.5q57.5 -66.5 57.5 -187.5q0 -122 -36 -211.5t-105.5 -137.5t-166.5 -48q-105 0 -162.5 68t-57.5 192q0 121 36 209t105 135t166 47q106 0 163.5 -66.5zM165.5 512.5q-64.5 -90.5 -64.5 -254.5q0 -108 44.5 -165t129.5 -57q123 0 188.5 91.5t65.5 256.5
q0 108 -44.5 163.5t-131.5 55.5q-123 0 -187.5 -90.5zM504 806v-6l-51 -57l-7 -3q-19 2 -70 20q-53 17 -65 17q-6 0 -15 -8t-19 -19l-14 -15h-5l-16 18v5l51 57l7 3q20 -2 73 -20q49 -17 62 -17q6 0 14 7t17 17l17 18h5zM506 910l-3 -32h-212l-4 5l3 31h212z" />
    <glyph glyph-name="uni022D" unicode="&#x22d;" horiz-adv-x="536" 
d="M452 765l-3 -32h-212l-4 5l3 31h212zM449 661v-6l-51 -57l-7 -3q-19 2 -70 20q-53 17 -65 17q-6 0 -15 -8t-19 -19l-14 -15h-5l-16 18v5l51 57l7 3q20 -2 73 -20q49 -17 62 -17q6 0 14 7t17 17l17 18h5zM443.5 446.5q48.5 -52.5 48.5 -152.5q0 -90 -30 -157.5
t-87.5 -104.5t-136.5 -37q-90 0 -138.5 53.5t-48.5 155.5q0 137 67 216t187 79q90 0 138.5 -52.5zM150.5 394q-51.5 -65 -51.5 -186q0 -88 35 -130.5t107 -42.5q98 0 150.5 66t52.5 187q0 86 -36 128.5t-109 42.5q-97 0 -148.5 -65z" />
    <glyph glyph-name="uni0230" unicode="&#x230;" horiz-adv-x="605" 
d="M521.5 578.5q57.5 -66.5 57.5 -187.5q0 -122 -36 -211.5t-105.5 -137.5t-166.5 -48q-105 0 -162.5 68t-57.5 192q0 121 36 209t105 135t166 47q106 0 163.5 -66.5zM165.5 512.5q-64.5 -90.5 -64.5 -254.5q0 -108 44.5 -165t129.5 -57q123 0 188.5 91.5t65.5 256.5
q0 108 -44.5 163.5t-131.5 55.5q-123 0 -187.5 -90.5zM389.5 789q8.5 -9 8.5 -23q0 -15 -8.5 -24t-23.5 -9t-23.5 8.5t-8.5 23.5q0 14 9 23.5t24 9.5q14 0 22.5 -9zM487 879l-3 -32h-212l-4 5l3 31h212z" />
    <glyph glyph-name="uni0231" unicode="&#x231;" horiz-adv-x="536" 
d="M434 734l-3 -32h-212l-4 5l3 31h212zM335.5 645q8.5 -9 8.5 -23q0 -15 -8.5 -24t-23.5 -9t-23.5 8.5t-8.5 23.5q0 14 9 23.5t24 9.5q14 0 22.5 -9zM443.5 446.5q48.5 -52.5 48.5 -152.5q0 -90 -30 -157.5t-87.5 -104.5t-136.5 -37q-90 0 -138.5 53.5t-48.5 155.5
q0 137 67 216t187 79q90 0 138.5 -52.5zM150.5 394q-51.5 -65 -51.5 -186q0 -88 35 -130.5t107 -42.5q98 0 150.5 66t52.5 187q0 86 -36 128.5t-109 42.5q-97 0 -148.5 -65z" />
    <glyph glyph-name="uni0232" unicode="&#x232;" horiz-adv-x="486" 
d="M258 239l-7 -48l-22 -191h-48l26 191l6 47l-142 401h53l7 -31l109 -312h6l200 311l16 32h54zM458 800l-3 -32h-285l-4 5l3 31h285z" />
    <glyph glyph-name="uni0233" unicode="&#x233;" horiz-adv-x="443" 
d="M130 623l-4 5l3 31h285l4 -4l-3 -32h-285zM231 180l-5 -34l-18 -146h-45l21 146l4 35l-121 313h51l6 -24l90 -235h5l161 233l14 26h50z" />
    <glyph glyph-name="uni0237" unicode="&#x237;" horiz-adv-x="274" 
d="M156 164l-9 -73q-7 -58 -35.5 -96t-92.5 -73l-17 27l1 6q49 30 72.5 61.5t28.5 76.5l8 65l36 299h-98l-4 4l8 33h144z" />
    <glyph glyph-name="uni0259" unicode="&#x259;" horiz-adv-x="511" 
d="M414.5 443q51.5 -55 51.5 -154q0 -87 -32.5 -153.5t-90.5 -103.5t-134 -37q-84 0 -131.5 42.5t-47.5 115.5q0 27 11 64l10 9l364 4q4 23 4 54q0 84 -41.5 129t-119.5 45q-42 0 -84.5 -12t-78.5 -33l-6 4l11 41q82 40 167 40q96 0 147.5 -55zM336.5 76q51.5 43 71.5 118
l-327 -4l-4 -20q-1 -7 -1 -20q0 -54 36.5 -85.5t101.5 -31.5q71 0 122.5 43z" />
    <glyph glyph-name="uni02B0" unicode="&#x2b0;" horiz-adv-x="325" 
d="M299 625.5q13 -16.5 12 -38.5l-1 -9l-28 -166l-6 -68l-43 -4l35 221l1 9q0 14 -5.5 23t-13.5 9q-15 0 -50 -45.5t-79 -126.5l-2 -16l-5 -70l-42 -4l53 402l4 62l43 5l-43 -319h6q34 59 63 97t58 59h8q22 -4 35 -20.5z" />
    <glyph glyph-name="uni02B2" unicode="&#x2b2;" horiz-adv-x="164" 
d="M168 751q0 -12 -7 -19.5t-20 -7.5q-12 0 -19 6.5t-7 19.5q0 12 8 19t20 7q25 0 25 -25zM154 640l-30 -232l-7 -50q-7 -53 -26.5 -83.5t-62.5 -57.5l-15 19l1 5q30 22 44 46t20 64l30 227l2 33h-46l-4 4l5 23h49l38 4z" />
    <glyph glyph-name="uni02B7" unicode="&#x2b7;" horiz-adv-x="462" 
d="M478 590q0 -32 -26 -81l-95 -166h-44l-27 242h-4l-110 -242h-47l-36 296l42 4l2 -36l22 -216h4l98 213l15 36h44l2 -33l23 -216h5l71 131q22 41 22 67q0 22 -16 44l38 11q17 -27 17 -54z" />
    <glyph glyph-name="uni02B8" unicode="&#x2b8;" horiz-adv-x="277" 
d="M294 590q0 -39 -30 -90l-80 -138q-46 -79 -84.5 -112.5t-80.5 -33.5q-22 0 -52 10l-1 35l5 4q25 -9 47 -9q60 0 118 86l-60 297l42 4l7 -50l34 -197h8l67 123q22 40 22 69q0 20 -16 45l37 11q17 -25 17 -54z" />
    <glyph glyph-name="uni02B9" unicode="&#x2b9;" horiz-adv-x="144" 
d="M132 489l-38 -162l-29 -4l-3 6l28 162l38 4z" />
    <glyph glyph-name="uni02BB" unicode="&#x2bb;" horiz-adv-x="145" 
d="M57 381q0 52 62 117l21 -16l1 -5q-43 -46 -43 -84q0 -34 38 -47v-5q-6 -7 -28 -25q-51 16 -51 65z" />
    <glyph glyph-name="uni02BC" unicode="&#x2bc;" horiz-adv-x="145" 
d="M146 431q0 -52 -62 -117l-21 16l-1 5q43 46 43 84q0 34 -38 47v5q6 7 28 25q51 -16 51 -65z" />
    <glyph glyph-name="uni02BE" unicode="&#x2be;" horiz-adv-x="277" 
d="M128 505q28 -1 44.5 13.5t16.5 40.5q0 20 -12.5 30.5t-36.5 10.5l3 31q36 0 56 -18t20 -50q0 -40 -26 -64.5t-69 -24.5z" />
    <glyph glyph-name="uni02BF" unicode="&#x2bf;" horiz-adv-x="243" 
d="M212 600q-28 1 -45 -13.5t-17 -40.5q0 -19 13 -30t36 -11l-3 -31q-36 0 -56 18t-20 50q0 40 26.5 64.5t68.5 24.5z" />
    <glyph glyph-name="circumflex" unicode="&#x2c6;" horiz-adv-x="389" 
d="M113 542q42 41 124 130h20q56 -82 97 -130l-18 -21h-6q-43 49 -85 111q-49 -51 -113 -111h-7z" />
    <glyph glyph-name="caron" unicode="&#x2c7;" horiz-adv-x="389" 
d="M367 651q-42 -41 -124 -130h-20q-56 82 -97 130l18 21h6q43 -49 85 -111q49 51 113 111h7z" />
    <glyph glyph-name="uni02C8" unicode="&#x2c8;" horiz-adv-x="262" 
d="M144 636h39l-21 -171h-38z" />
    <glyph glyph-name="uni02C9" unicode="&#x2c9;" horiz-adv-x="388" 
d="M386 616l-3 -32h-285l-4 5l3 31h285z" />
    <glyph glyph-name="uni02CA" unicode="&#x2ca;" horiz-adv-x="376" 
d="M305 681l20 -25l-2 -6q-58 -52 -156 -132l-7 1l-16 22q79 66 155 141z" />
    <glyph glyph-name="uni02CB" unicode="&#x2cb;" horiz-adv-x="403" 
d="M318 541l-16 -22l-7 -1q-98 80 -156 132l-2 6l20 25l6 1q76 -75 155 -141z" />
    <glyph glyph-name="uni02CC" unicode="&#x2cc;" horiz-adv-x="226" 
d="M58 -59h39l-21 -171h-38z" />
    <glyph glyph-name="breve" unicode="&#x2d8;" horiz-adv-x="389" 
d="M357 634q-34 -110 -123 -110q-49 0 -73 27.5t-29 82.5l20 21h8q2 -48 21 -70.5t55 -22.5t60.5 22.5t37.5 70.5h8z" />
    <glyph glyph-name="dotaccent" unicode="&#x2d9;" horiz-adv-x="238" 
d="M188.5 637q8.5 -9 8.5 -23q0 -15 -8.5 -24t-23.5 -9t-23.5 8.5t-8.5 23.5q0 14 9 23.5t24 9.5q14 0 22.5 -9z" />
    <glyph glyph-name="ring" unicode="&#x2da;" horiz-adv-x="391" 
d="M297 660.5q20 -21.5 20 -53.5q0 -35 -23 -56t-55 -21q-31 0 -53 20.5t-22 55.5q0 33 21 54.5t56 21.5q36 0 56 -21.5zM205 640.5q-13 -12.5 -13 -33.5q0 -23 13.5 -35.5t34.5 -12.5t35 12t14 34q0 21 -12.5 34.5t-36.5 13.5q-22 0 -35 -12.5z" />
    <glyph glyph-name="ogonek" unicode="&#x2db;" horiz-adv-x="284" 
d="M40 -178q-20 19 -20 51q0 17 7 32t22.5 35.5t56.5 68.5l14 16h37q-14 -18 -20 -24q-54 -67 -66.5 -85.5t-12.5 -35.5q0 -19 10.5 -30t29.5 -11q39 0 79 46h4l11 -29q-47 -53 -99 -53q-33 0 -53 19z" />
    <glyph glyph-name="tilde" unicode="&#x2dc;" horiz-adv-x="384" 
d="M386 630v-5l-56 -58l-8 -3q-19 2 -79 20q-64 18 -77 18q-7 0 -14.5 -6t-20.5 -20l-18 -18h-6l-17 18v6l57 57l7 3q22 -2 81 -20q60 -17 75 -17q7 0 14 6t22 20l18 17h6z" />
    <glyph glyph-name="hungarumlaut" unicode="&#x2dd;" horiz-adv-x="374" 
d="M222 681h6l22 -18v-6q-66 -67 -144 -139h-7l-18 18q61 59 141 145zM357 681h6l23 -18l-1 -6q-66 -67 -144 -139h-6l-19 18q78 76 141 145z" />
    <glyph glyph-name="uni02E1" unicode="&#x2e1;" horiz-adv-x="153" 
d="M117 414l-5 -70l-43 -4l54 402l3 62l43 5z" />
    <glyph glyph-name="uni02E2" unicode="&#x2e2;" horiz-adv-x="228" 
d="M239 629l-10 -31l-7 -2q-12 9 -26 14t-25 5q-25 0 -40.5 -15.5t-15.5 -35.5q0 -15 11 -26.5t34 -27.5q30 -21 45 -38.5t15 -44.5q0 -37 -30 -62t-78 -26q-39 4 -65 19l9 34l6 5q28 -30 63 -30q25 0 42 15t17 36q0 18 -11.5 30.5t-36.5 30.5q-28 19 -43 36t-15 42
q0 39 30.5 63.5t75.5 23.5q29 -3 55 -15z" />
    <glyph glyph-name="uni02E3" unicode="&#x2e3;" horiz-adv-x="299" 
d="M285 346l-46 -6l-10 31l-50 98l-76 -100l-16 -26h-47l117 154l-70 141l43 7l10 -26l48 -94l72 91l15 24h45l-112 -146z" />
    <glyph glyph-name="gravecomb" unicode="&#x300;" 
d="M-65 541l-16 -22l-7 -1q-98 80 -156 132l-2 6l20 25l6 1q76 -75 155 -141z" />
    <glyph glyph-name="acutecomb" unicode="&#x301;" 
d="M-71 681l20 -25l-2 -6q-58 -52 -156 -132l-7 1l-16 22q79 66 155 141z" />
    <glyph glyph-name="uni0302" unicode="&#x302;" 
d="M-276 542q42 41 124 130h20q56 -82 97 -130l-18 -21h-6q-43 49 -85 111q-49 -51 -113 -111h-7z" />
    <glyph glyph-name="tildecomb" unicode="&#x303;" 
d="M1 630v-5l-57 -59l-8 -2q-17 2 -47 10.5t-36 10.5q-57 17 -71 17q-7 0 -14 -5.5t-23 -21.5l-17 -17h-6l-17 18v6l58 58l7 3q15 -1 42 -9t39 -11q62 -18 74 -18q7 0 14 5.5t21 19.5l19 18h6z" />
    <glyph glyph-name="uni0304" unicode="&#x304;" 
d="M-2 616l-3 -32h-285l-4 5l3 31h285z" />
    <glyph glyph-name="uni0306" unicode="&#x306;" 
d="M-32 634q-34 -110 -123 -110q-49 0 -73 27.5t-29 82.5l20 21h8q2 -48 21 -70.5t55 -22.5t60.5 22.5t37.5 70.5h8z" />
    <glyph glyph-name="uni0307" unicode="&#x307;" 
d="M-49.5 637q8.5 -9 8.5 -23q0 -15 -8.5 -24t-23.5 -9t-23.5 8.5t-8.5 23.5q0 14 9 23.5t24 9.5q14 0 22.5 -9z" />
    <glyph glyph-name="uni0308" unicode="&#x308;" 
d="M-210 623.5q8 -7.5 8 -21.5t-8.5 -22.5t-22.5 -8.5t-21.5 8t-7.5 22t8.5 22t22.5 8q13 0 21 -7.5zM-53 623q8 -8 8 -21q0 -14 -8.5 -22.5t-22.5 -8.5t-21.5 8t-7.5 22t8 22t22 8t22 -8z" />
    <glyph glyph-name="hookabovecomb" unicode="&#x309;" 
d="M-109 558q24 17 37.5 33.5t13.5 29.5q0 10 -7 15t-19 5q-13 0 -28.5 -6t-29.5 -17l-12 20q38 35 76 35q24 0 39.5 -13.5t15.5 -33.5q0 -32 -50 -70l18 -32l-26 -13z" />
    <glyph glyph-name="uni030A" unicode="&#x30a;" 
d="M-94 660.5q20 -21.5 20 -53.5q0 -35 -23 -56t-55 -21q-31 0 -53 20.5t-22 55.5q0 33 21 54.5t56 21.5q36 0 56 -21.5zM-186 640.5q-13 -12.5 -13 -33.5q0 -23 13.5 -35.5t34.5 -12.5t35 12t14 34q0 21 -12.5 34.5t-36.5 13.5q-22 0 -35 -12.5z" />
    <glyph glyph-name="uni030B" unicode="&#x30b;" 
d="M-155 681h6l22 -18v-6q-66 -67 -144 -139h-7l-18 18q61 59 141 145zM-20 681h6l23 -18l-1 -6q-66 -67 -144 -139h-6l-19 18q78 76 141 145z" />
    <glyph glyph-name="uni030C" unicode="&#x30c;" 
d="M-22 651q-42 -41 -124 -130h-20q-56 82 -97 130l18 21h6q43 -49 85 -111q49 51 113 111h7z" />
    <glyph glyph-name="uni030F" unicode="&#x30f;" 
d="M-165 518q-78 72 -144 139l-1 6l23 18h6q63 -69 141 -145l-18 -18h-7zM-29 518q-88 81 -145 139v6l22 18h7q72 -78 140 -145l-18 -18h-6z" />
    <glyph glyph-name="uni0311" unicode="&#x311;" 
d="M-268 544q34 110 123 110q49 0 73 -27.5t29 -82.5l-20 -21h-8q-2 48 -21 70.5t-55 22.5t-60.5 -22.5t-37.5 -70.5h-8z" />
    <glyph glyph-name="uni0312" unicode="&#x312;" 
d="M-88 381q0 52 62 117l21 -16l1 -5q-43 -46 -43 -84q0 -34 38 -47v-5q-6 -7 -28 -25q-51 16 -51 65z" />
    <glyph glyph-name="uni031B" unicode="&#x31b;" 
d="M-161 455q32 0 55 17t23 46q0 37 -33 70l2 7q15 10 25 10q9 0 20 -11t18.5 -30t7.5 -41q0 -45 -32.5 -71t-85.5 -27v30z" />
    <glyph glyph-name="dotbelowcomb" unicode="&#x323;" 
d="M-134.5 -91q8.5 -9 8.5 -23q0 -15 -8.5 -24t-23.5 -9t-23.5 8.5t-8.5 23.5q0 14 9 23.5t24 9.5q14 0 22.5 -9z" />
    <glyph glyph-name="uni0324" unicode="&#x324;" 
d="M-299 -109.5q8 -7.5 8 -21.5t-8.5 -22.5t-22.5 -8.5t-21.5 8t-7.5 22t8.5 22t22.5 8q13 0 21 -7.5zM-142 -110q8 -8 8 -21q0 -14 -8.5 -22.5t-22.5 -8.5t-21.5 8t-7.5 22t8 22t22 8t22 -8z" />
    <glyph glyph-name="uni0326" unicode="&#x326;" 
d="M-128 -115q0 -54 -78 -111l-17 17l1 5q53 42 53 81q0 24 -30 40v6q17 13 33 18q38 -22 38 -56z" />
    <glyph glyph-name="uni0327" unicode="&#x327;" 
d="M-240 -53l33 -20q19 -11 27 -23.5t8 -29.5q0 -27 -20 -43t-50 -16q-21 0 -38 9t-27 23l7 28l4 1q12 -15 24 -23t29 -8q16 0 26 8t10 22q0 10 -5.5 16t-17.5 13l-45 29l24 82h32z" />
    <glyph glyph-name="uni0328" unicode="&#x328;" 
d="M-244 -178q-20 19 -20 51q0 17 7 32t22.5 35.5t56.5 68.5l14 16h37q-14 -18 -20 -24q-54 -67 -66.5 -85.5t-12.5 -35.5q0 -19 10.5 -30t29.5 -11q39 0 79 46h4l11 -29q-47 -53 -99 -53q-33 0 -53 19z" />
    <glyph glyph-name="uni032E" unicode="&#x32e;" 
d="M-111 -86q-34 -110 -123 -110q-49 0 -73 27.5t-29 82.5l20 21h8q2 -48 21 -70.5t55 -22.5t60.5 22.5t37.5 70.5h8z" />
    <glyph glyph-name="uni0331" unicode="&#x331;" 
d="M-92 -122l-3 -31h-213l-4 5l3 30h213z" />
    <glyph glyph-name="uni0335" unicode="&#x335;" 
d="M-55 269l-6 -32h-313l-3 4l7 32h312z" />
    <glyph glyph-name="uni0342" unicode="&#x342;" 
d="M2 630v-5l-49 -58l-6 -3q-16 2 -71 21q-49 17 -61 17q-6 0 -13 -6t-18 -20l-16 -18h-4l-17 18v6l50 56l6 3q14 -2 38.5 -10t31.5 -10q51 -17 62 -17q6 0 13 6t19 21l15 16h5z" />
    <glyph glyph-name="uni0343" unicode="&#x343;" 
d="M5 639q0 -54 -73 -118l-18 14v4q52 52 52 86q0 28 -32 39l1 5q11 11 28 21q42 -12 42 -51z" />
    <glyph glyph-name="uni0344" unicode="&#x344;" 
d="M-137 549q23 56 47 128l5 2l28 -10l3 -7l-54 -120l-7 -2zM-210 561.5q-7 7.5 -7 20.5q0 14 8 21.5t21 7.5t20 -7.5t7 -20.5t-7.5 -21t-21.5 -8q-13 0 -20 7.5zM-42.5 561.5q-7.5 7.5 -7.5 20.5t8 21t21 8t20.5 -7.5t7.5 -20.5t-7.5 -21t-21.5 -8q-13 0 -20.5 7.5z" />
    <glyph glyph-name="uni0345" unicode="&#x345;" 
d="M-166 -212l27 174l26 2l4 -5l-14 -171l-39 -4z" />
    <glyph glyph-name="uni0374" unicode="&#x374;" horiz-adv-x="144" 
d="M132 489l-38 -162l-29 -4l-3 6l28 162l38 4z" />
    <glyph glyph-name="uni0375" unicode="&#x375;" horiz-adv-x="144" 
d="M0 -135l38 162l28 3l4 -4l-28 -164l-38 -3z" />
    <glyph glyph-name="uni037A" unicode="&#x37a;" horiz-adv-x="209" 
d="M16 -212l27 174l26 2l4 -5l-14 -171l-39 -4z" />
    <glyph glyph-name="uni037E" unicode="&#x37e;" horiz-adv-x="230" 
d="M129 6q0 -54 -79 -112l-18 17l1 5q54 42 54 82q0 24 -30 41v6q17 13 33 18q39 -22 39 -57zM145.5 327q8.5 -9 8.5 -23q0 -15 -8.5 -24t-23.5 -9t-23.5 8.5t-8.5 23.5q0 14 9 23.5t24 9.5q14 0 22.5 -9z" />
    <glyph glyph-name="tonos" unicode="&#x384;" horiz-adv-x="183" 
d="M165 691l30 -11l1 -8q-31 -58 -84 -149l-7 -2l-24 11q30 55 78 157z" />
    <glyph glyph-name="dieresistonos" unicode="&#x385;" horiz-adv-x="296" 
d="M159 549q23 56 47 128l5 2l28 -10l3 -7l-54 -120l-7 -2zM86 561.5q-7 7.5 -7 20.5q0 14 8 21.5t21 7.5t20 -7.5t7 -20.5t-7.5 -21t-21.5 -8q-13 0 -20 7.5zM253.5 561.5q-7.5 7.5 -7.5 20.5t8 21t21 8t20.5 -7.5t7.5 -20.5t-7.5 -21t-21.5 -8q-13 0 -20.5 7.5z" />
    <glyph glyph-name="Alphatonos" unicode="&#x386;" horiz-adv-x="590" 
d="M539 0h-50l-6 53l-29 142l-142 1l-129 -1l-68 -140l-22 -55h-50l311 639h55zM445 238l-70 344h-4l-167 -344l118 -2zM202 658l30 -11l1 -8q-31 -58 -84 -149l-7 -2l-24 11q30 55 78 157z" />
    <glyph glyph-name="anoteleia" unicode="&#x387;" horiz-adv-x="229" 
d="M146.5 325q8.5 -9 8.5 -23q0 -15 -8.5 -24t-23.5 -9t-23.5 8.5t-8.5 23.5q0 14 9 23.5t24 9.5q14 0 22.5 -9z" />
    <glyph glyph-name="Epsilontonos" unicode="&#x388;" horiz-adv-x="554" 
d="M301 596l-31 -246l118 -1l101 2l4 -6l-10 -37l-105 1l-114 -1l-14 -111l-18 -155l123 -1l147 3l3 -6l-10 -38h-317l28 194l53 445h316l3 -6l-10 -38l-140 2zM147 658l30 -11l1 -8q-31 -58 -84 -149l-7 -2l-24 11q30 55 78 157z" />
    <glyph glyph-name="Etatonos" unicode="&#x389;" horiz-adv-x="754" 
d="M707 639l-57 -442l-23 -197h-48l26 194l13 108l-185 2l-169 -2l-14 -105l-23 -197h-49l27 194l53 445h49l-38 -293l175 -2l179 2l35 293h49zM147 658l30 -11l1 -8q-31 -58 -84 -149l-7 -2l-24 11q30 55 78 157z" />
    <glyph glyph-name="Iotatonos" unicode="&#x38a;" horiz-adv-x="354" 
d="M250 197l-23 -197h-49l27 194l53 445h49zM147 658l30 -11l1 -8q-31 -58 -84 -149l-7 -2l-24 11q30 55 78 157z" />
    <glyph glyph-name="Omicrontonos" unicode="&#x38c;" horiz-adv-x="682" 
d="M598.5 578.5q57.5 -66.5 57.5 -187.5q0 -122 -36 -211.5t-105.5 -137.5t-166.5 -48q-105 0 -162.5 68t-57.5 192q0 121 36 209t105 135t166 47q106 0 163.5 -66.5zM242.5 512.5q-64.5 -90.5 -64.5 -254.5q0 -108 44.5 -165t129.5 -57q123 0 188.5 91.5t65.5 256.5
q0 108 -44.5 163.5t-131.5 55.5q-123 0 -187.5 -90.5zM122 658l30 -11l1 -8q-31 -58 -84 -149l-7 -2l-24 11q30 55 78 157z" />
    <glyph glyph-name="Upsilontonos" unicode="&#x38e;" horiz-adv-x="654" 
d="M427 239l-7 -48l-22 -191h-48l26 191l6 47l-142 401h53l7 -31l109 -312h6l200 311l16 32h54zM150 658l30 -11l1 -8q-31 -58 -84 -149l-7 -2l-24 11q30 55 78 157z" />
    <glyph glyph-name="Omegatonos" unicode="&#x38f;" horiz-adv-x="732" 
d="M102 3l10 39l63 -2h91l1 4q-62 46 -90.5 107t-28.5 147q0 103 38 181.5t106.5 122t158.5 43.5q107 0 164.5 -66t57.5 -191q0 -112 -49 -198.5t-144 -145.5v-4h95l62 3l3 -5l-10 -38h-164l-39 -1l-3 2l6 46q100 64 147.5 145.5t47.5 189.5q0 109 -46 165t-135 56
q-73 0 -129.5 -38t-87.5 -107t-31 -159q0 -81 29 -140.5t94 -111.5l-5 -46l-3 -2l-39 1h-106l-60 -2zM135 658l30 -11l1 -8q-31 -58 -84 -149l-7 -2l-24 11q30 55 78 157z" />
    <glyph glyph-name="iotadieresistonos" unicode="&#x390;" horiz-adv-x="243" 
d="M136 588q23 56 47 128l5 2l28 -10l3 -7l-54 -120l-7 -2zM63 600.5q-7 7.5 -7 20.5q0 14 8 21.5t21 7.5t20 -7.5t7 -20.5t-7.5 -21t-21.5 -8q-13 0 -20 7.5zM230.5 600.5q-7.5 7.5 -7.5 20.5t8 21t21 8t20.5 -7.5t7.5 -20.5t-7.5 -21t-21.5 -8q-13 0 -20.5 7.5zM133 154
l-18 -154h-46l21 150l41 344h46z" />
    <glyph glyph-name="Alpha" unicode="&#x391;" horiz-adv-x="536" 
d="M485 0h-50l-6 53l-29 142l-142 1l-129 -1l-68 -140l-22 -55h-50l311 639h55zM391 238l-70 344h-4l-167 -344l118 -2z" />
    <glyph glyph-name="Beta" unicode="&#x392;" horiz-adv-x="492" 
d="M447 199q0 -97 -65.5 -149.5t-189.5 -52.5q-69 0 -120 3h-1l28 194l53 445l141 1q72 0 111 -33.5t39 -96.5q0 -64 -29 -109t-83 -67q116 -26 116 -135zM366.5 573q-27.5 25 -80.5 25h-90l-33 -247l113 -2q57 12 87.5 51.5t30.5 101.5q0 46 -27.5 71zM346 79.5
q52 41.5 52 116.5q0 49 -30 78t-87 34h-123l-15 -111l-18 -156q38 -3 74 -3q95 0 147 41.5z" />
    <glyph glyph-name="Gamma" unicode="&#x393;" horiz-adv-x="407" 
d="M453 633l-10 -36l-249 1l-50 -401l-23 -197h-49l26 194l53 445h298z" />
    <glyph glyph-name="uni0394" unicode="&#x394;" horiz-adv-x="546" 
d="M12 34l292 605h55l126 -605l-4 -34h-473zM436 41l-110 541h-6l-261 -541h377z" />
    <glyph glyph-name="Epsilon" unicode="&#x395;" horiz-adv-x="447" 
d="M194 596l-31 -246l118 -1l101 2l4 -6l-10 -37l-105 1l-114 -1l-14 -111l-18 -155l123 -1l147 3l3 -6l-10 -38h-317l28 194l53 445h316l3 -6l-10 -38l-140 2z" />
    <glyph glyph-name="Zeta" unicode="&#x396;" horiz-adv-x="493" 
d="M499 602l-431 -561h282l77 4l4 -5l-10 -41l-89 1h-284l-44 -2l5 37l430 562h-268l-73 -4l-4 6l11 41l82 -1h275l41 1z" />
    <glyph glyph-name="Eta" unicode="&#x397;" horiz-adv-x="647" 
d="M600 639l-57 -442l-23 -197h-48l26 194l13 108l-185 2l-169 -2l-14 -105l-23 -197h-49l27 194l53 445h49l-38 -293l175 -2l179 2l35 293h49z" />
    <glyph glyph-name="Theta" unicode="&#x398;" horiz-adv-x="638" 
d="M550.5 577q60.5 -68 60.5 -192q0 -120 -39 -208t-112.5 -135.5t-175.5 -47.5q-113 0 -173 69t-60 196q0 120 38.5 206.5t112 133t175.5 46.5q113 0 173.5 -68zM169.5 514q-69.5 -89 -69.5 -251q0 -112 49 -170.5t143 -58.5q129 0 199.5 91t70.5 254q0 109 -49 166.5
t-144 57.5q-130 0 -199.5 -89zM187 299l7 34l275 9l4 -4l-7 -34l-275 -10z" />
    <glyph glyph-name="Iota" unicode="&#x399;" horiz-adv-x="247" 
d="M143 197l-23 -197h-49l27 194l53 445h49z" />
    <glyph glyph-name="Kappa" unicode="&#x39a;" horiz-adv-x="502" 
d="M143 197l-24 -197h-48l27 194l54 445h48zM235 339q105 -167 236 -328l-1 -7q-16 -6 -44 -12l-6 3q-136 175 -240 343l1 4l249 246l46 51h59z" />
    <glyph glyph-name="Lambda" unicode="&#x39b;" horiz-adv-x="539" 
d="M300 639h55l133 -639h-49l-7 53l-108 529h-5l-258 -527l-20 -55h-52z" />
    <glyph glyph-name="Mu" unicode="&#x39c;" horiz-adv-x="748" 
d="M652 0h-44l8 195l8 359h-5l-245 -476h-44l-119 476h-6l-80 -356l-43 -198h-43l145 639h55l22 -98l98 -399h5l209 407l44 90h55z" />
    <glyph glyph-name="Nu" unicode="&#x39d;" horiz-adv-x="647" 
d="M540 182l-22 -182h-49l-277 557h-6l-45 -352l-24 -205h-46l27 190l55 449h49l277 -557h5l70 554l46 4z" />
    <glyph glyph-name="Xi" unicode="&#x39e;" horiz-adv-x="560" 
d="M133 598l11 41h376l4 -6l-12 -40l-194 1l-182 -1zM133 312l12 40l147 -1l152 1l3 -6l-10 -40l-161 2l-138 -2zM62 40l5 6l185 -1l197 1l5 -6l-11 -40h-381v40z" />
    <glyph glyph-name="Omicron" unicode="&#x39f;" horiz-adv-x="605" 
d="M521.5 578.5q57.5 -66.5 57.5 -187.5q0 -122 -36 -211.5t-105.5 -137.5t-166.5 -48q-105 0 -162.5 68t-57.5 192q0 121 36 209t105 135t166 47q106 0 163.5 -66.5zM165.5 512.5q-64.5 -90.5 -64.5 -254.5q0 -108 44.5 -165t129.5 -57q123 0 188.5 91.5t65.5 256.5
q0 108 -44.5 163.5t-131.5 55.5q-123 0 -187.5 -90.5z" />
    <glyph glyph-name="Pi" unicode="&#x3a0;" horiz-adv-x="633" 
d="M529 197l-23 -197h-48l25 194l48 402l-179 1l-159 -1l-50 -399l-23 -197h-49l26 194l53 445h435z" />
    <glyph glyph-name="Rho" unicode="&#x3a1;" horiz-adv-x="481" 
d="M426.5 599.5q42.5 -40.5 42.5 -116.5q0 -112 -64.5 -178.5t-178.5 -66.5h-78l-5 -41l-23 -197h-49l28 194l53 445l155 1q77 0 119.5 -40.5zM378 340.5q42 53.5 42 134.5q0 118 -119 124l-106 -2l-41 -317l110 -1q72 8 114 61.5z" />
    <glyph glyph-name="Sigma" unicode="&#x3a3;" horiz-adv-x="481" 
d="M25 36l228 292l-151 273l6 38h312l69 1l5 -7l-9 -37l-66 2h-258l145 -263l-2 -9l-222 -285h252l76 2l4 -6l-9 -37h-384z" />
    <glyph glyph-name="Tau" unicode="&#x3a4;" horiz-adv-x="459" 
d="M486 633l-10 -37l-100 2h-75l-53 -401l-22 -197h-48l26 194l48 404h-73l-104 -2l-4 5l11 38h400z" />
    <glyph glyph-name="Upsilon" unicode="&#x3a5;" horiz-adv-x="486" 
d="M258 239l-7 -48l-22 -191h-48l26 191l6 47l-142 401h53l7 -31l109 -312h6l200 311l16 32h54z" />
    <glyph glyph-name="Phi" unicode="&#x3a6;" horiz-adv-x="729" 
d="M610 157.5q-85 -76.5 -242 -82.5l-10 -88h-46l12 87q-130 3 -197 58.5t-67 161.5q0 139 83.5 213t242.5 80l8 70h47l-9 -69q130 -4 196.5 -57.5t66.5 -156.5q0 -140 -85 -216.5zM577 183.5q71 64.5 71 184.5q0 88 -55 132.5t-166 48.5l-44 -349l-10 -86q133 5 204 69.5z
M163.5 163.5q56.5 -46.5 165.5 -50.5l11 84l41 351q-134 -5 -204 -68t-70 -181q0 -89 56.5 -135.5z" />
    <glyph glyph-name="Chi" unicode="&#x3a7;" horiz-adv-x="549" 
d="M315 329l167 -329h-56l-18 44l-131 250l-194 -253l-28 -41h-54l252 330l-158 309h57l17 -43l120 -232l176 230l29 45h55z" />
    <glyph glyph-name="Psi" unicode="&#x3a8;" horiz-adv-x="661" 
d="M642 639l-24 -193l-11 -85q-11 -106 -81 -166.5t-185 -65.5l-15 -129h-46l17 128q-104 4 -158 53.5t-54 139.5q0 26 2 40l10 94l23 184h45l-33 -274q-2 -13 -2 -36q0 -152 172 -160l3 25l53 445h46l-55 -442l-3 -28q95 5 151 54.5t67 141.5l33 274h45z" />
    <glyph glyph-name="uni03A9" unicode="&#x3a9;" horiz-adv-x="670" 
d="M41 3l10 39l63 -2h91l1 4q-62 46 -90.5 107t-28.5 147q0 103 38 181.5t106.5 122t158.5 43.5q107 0 164.5 -66t57.5 -191q0 -112 -49 -198.5t-144 -145.5v-4h95l62 3l3 -5l-10 -38h-164l-39 -1l-3 2l6 46q100 64 147.5 145.5t47.5 189.5q0 109 -46 165t-135 56
q-73 0 -129.5 -38t-87.5 -107t-31 -159q0 -81 29 -140.5t94 -111.5l-5 -46l-3 -2l-39 1h-106l-60 -2z" />
    <glyph glyph-name="Iotadieresis" unicode="&#x3aa;" horiz-adv-x="247" 
d="M143 197l-23 -197h-49l27 194l53 445h49zM143 807.5q8 -7.5 8 -21.5t-8.5 -22.5t-22.5 -8.5t-21.5 8t-7.5 22t8.5 22t22.5 8q13 0 21 -7.5zM300 807q8 -8 8 -21q0 -14 -8.5 -22.5t-22.5 -8.5t-21.5 8t-7.5 22t8 22t22 8t22 -8z" />
    <glyph glyph-name="Upsilondieresis" unicode="&#x3ab;" horiz-adv-x="486" 
d="M258 239l-7 -48l-22 -191h-48l26 191l6 47l-142 401h53l7 -31l109 -312h6l200 311l16 32h54zM261 807.5q8 -7.5 8 -21.5t-8.5 -22.5t-22.5 -8.5t-21.5 8t-7.5 22t8.5 22t22.5 8q13 0 21 -7.5zM418 807q8 -8 8 -21q0 -14 -8.5 -22.5t-22.5 -8.5t-21.5 8t-7.5 22t8 22t22 8
t22 -8z" />
    <glyph glyph-name="alphatonos" unicode="&#x3ac;" horiz-adv-x="482" 
d="M287 560l-24 11q30 55 78 157l6 2l30 -11l1 -8q-31 -58 -84 -149zM417 0h-48l-4 44l-23 101l-118 1l-106 -1l-51 -99l-19 -46h-47l252 494h53zM274 444h-4l-133 -260h196z" />
    <glyph glyph-name="epsilontonos" unicode="&#x3ad;" horiz-adv-x="408" 
d="M275 560l-24 11q30 55 78 157l6 2l30 -11l1 -8q-31 -58 -84 -149zM172 456l-24 -182h99l83 1l3 -5l-8 -36l-87 1h-95l-11 -81l-13 -115l98 -1l126 2l4 -4l-10 -36h-268l20 150l42 344h268l3 -5l-9 -36l-117 3h-104z" />
    <glyph glyph-name="etatonos" unicode="&#x3ae;" horiz-adv-x="571" 
d="M328 560l-24 11q30 55 78 157l6 2l30 -11l1 -8q-31 -58 -84 -149zM508 494l-44 -340l-18 -154h-46l21 150l10 80l-288 -1l-10 -75l-18 -154h-46l21 150l41 344h46l-29 -223l144 -1l143 1l27 223h46z" />
    <glyph glyph-name="iotatonos" unicode="&#x3af;" horiz-adv-x="243" 
d="M223 730l30 -11l1 -8q-31 -58 -84 -149l-7 -2l-24 11q30 55 78 157zM133 154l-18 -154h-46l21 150l41 344h46z" />
    <glyph glyph-name="upsilondieresistonos" unicode="&#x3b0;" horiz-adv-x="443" 
d="M259 579l-22 9q23 56 47 128l5 2l28 -10l3 -7l-54 -120zM164 600.5q-7 7.5 -7 20.5q0 14 8 21.5t21 7.5t20 -7.5t7 -20.5t-7.5 -21t-21.5 -8q-13 0 -20 7.5zM331.5 600.5q-7.5 7.5 -7.5 20.5t8 21t21 8t20.5 -7.5t7.5 -20.5t-7.5 -21t-21.5 -8q-13 0 -20.5 7.5zM231 180
l-5 -34l-18 -146h-45l21 146l4 35l-121 313h51l6 -24l90 -235h5l161 233l14 26h50z" />
    <glyph glyph-name="alpha" unicode="&#x3b1;" horiz-adv-x="482" 
d="M417 0h-48l-4 44l-23 101l-118 1l-106 -1l-51 -99l-19 -46h-47l252 494h53zM274 444h-4l-133 -260h196z" />
    <glyph glyph-name="beta" unicode="&#x3b2;" horiz-adv-x="446" 
d="M362 222q25 -27 25 -70q0 -75 -55 -114.5t-158 -39.5q-72 0 -105 2l21 150l42 344l122 1q61 0 95 -27t34 -77q0 -48 -24 -81.5t-68 -51.5q46 -9 71 -36zM311 439q-23 19 -68 19h-71l-23 -184l93 -2q45 9 68.5 37.5t23.5 74.5q0 36 -23 55zM298.5 64.5
q41.5 30.5 41.5 86.5q0 74 -96 85l-100 -1l-11 -81l-14 -117q30 -3 62 -3q76 0 117.5 30.5z" />
    <glyph glyph-name="gamma" unicode="&#x3b3;" horiz-adv-x="368" 
d="M385 489l-10 -34l-203 1l-38 -302l-18 -154h-46l20 150l40 344h251z" />
    <glyph glyph-name="delta" unicode="&#x3b4;" horiz-adv-x="484" 
d="M26 32l233 462h54l105 -462l-3 -32h-393zM372 39l-91 403h-5l-204 -403h300z" />
    <glyph glyph-name="epsilon" unicode="&#x3b5;" horiz-adv-x="408" 
d="M172 456l-24 -182h99l83 1l3 -5l-8 -36l-87 1h-95l-11 -81l-13 -115l98 -1l126 2l4 -4l-10 -36h-268l20 150l42 344h268l3 -5l-9 -36l-117 3h-104z" />
    <glyph glyph-name="zeta" unicode="&#x3b6;" horiz-adv-x="444" 
d="M422 459l-347 -421h227l68 4l4 -4l-10 -39l-79 1h-231l-40 -1l5 34l348 423h-220l-61 -4l-3 5l10 38l69 -1h230l35 1z" />
    <glyph glyph-name="eta" unicode="&#x3b7;" horiz-adv-x="571" 
d="M508 494l-44 -340l-18 -154h-46l21 150l10 80l-288 -1l-10 -75l-18 -154h-46l21 150l41 344h46l-29 -223l144 -1l143 1l27 223h46z" />
    <glyph glyph-name="theta" unicode="&#x3b8;" horiz-adv-x="561" 
d="M465 446.5q51 -53.5 51 -151.5q0 -139 -71.5 -219.5t-198.5 -80.5q-94 0 -144.5 54.5t-50.5 154.5q0 139 71 217.5t198 78.5q94 0 145 -53.5zM153 395q-55 -65 -55 -187q0 -87 39 -131.5t116 -44.5q104 0 160 67.5t56 189.5q0 85 -39.5 128t-117.5 43q-104 0 -159 -65z
M168 229l5 32l222 6l3 -3l-6 -32l-221 -6z" />
    <glyph glyph-name="iota" unicode="&#x3b9;" horiz-adv-x="243" 
d="M133 154l-18 -154h-46l21 150l41 344h46z" />
    <glyph glyph-name="kappa" unicode="&#x3ba;" horiz-adv-x="455" 
d="M134 154l-19 -154h-46l22 150l41 344h46zM213 262q88 -129 198 -252l-3 -6q-15 -6 -42 -10l-6 3q-112 135 -198 263v4l203 190l38 40h54z" />
    <glyph glyph-name="lambda" unicode="&#x3bb;" horiz-adv-x="484" 
d="M252 494h55l112 -494h-49l-6 44l-88 398h-5l-203 -396l-17 -46h-50z" />
    <glyph glyph-name="uni03BC" unicode="&#x3bc;" horiz-adv-x="654" 
d="M556 0h-41l7 151l2 266h-4l-196 -358h-40l-99 358h-5l-63 -263l-34 -154h-41l116 494h53l18 -75l83 -299h4l165 305l35 69h51z" />
    <glyph glyph-name="nu" unicode="&#x3bd;" horiz-adv-x="572" 
d="M461 143l-17 -143h-48l-229 418h-3l-34 -258l-19 -160h-42l20 146l43 348h47l230 -418h5l51 417l43 3z" />
    <glyph glyph-name="xi" unicode="&#x3be;" horiz-adv-x="495" 
d="M119 455l10 39h314l4 -5l-11 -39l-161 2l-153 -2zM122 237l11 39h249l3 -5l-10 -39l-132 1l-117 -1zM66 39l4 5l154 -1l165 1l4 -5l-10 -39h-317v39z" />
    <glyph glyph-name="omicron" unicode="&#x3bf;" horiz-adv-x="536" 
d="M443.5 446.5q48.5 -52.5 48.5 -152.5q0 -90 -30 -157.5t-87.5 -104.5t-136.5 -37q-90 0 -138.5 53.5t-48.5 155.5q0 137 67 216t187 79q90 0 138.5 -52.5zM150.5 394q-51.5 -65 -51.5 -186q0 -88 35 -130.5t107 -42.5q98 0 150.5 66t52.5 187q0 86 -36 128.5t-109 42.5
q-97 0 -148.5 -65z" />
    <glyph glyph-name="pi" unicode="&#x3c0;" horiz-adv-x="562" 
d="M452 154l-17 -154h-48l21 150l35 304l-270 -1l-38 -299l-17 -154h-48l20 150l40 344h366z" />
    <glyph glyph-name="rho" unicode="&#x3c1;" horiz-adv-x="437" 
d="M367.5 461.5q36.5 -33.5 36.5 -92.5q0 -53 -24.5 -96t-69.5 -67.5t-103 -24.5h-70l-4 -27l-18 -154h-45l20 150l42 344l135 1q64 0 100.5 -33.5zM322.5 265.5q32.5 39.5 32.5 98.5q0 89 -97 94l-85 -1l-31 -237l90 -1q58 7 90.5 46.5z" />
    <glyph glyph-name="uni03C2" unicode="&#x3c2;" horiz-adv-x="432" 
d="M36 34l183 220l-123 204l4 37l60 -1h198l60 1l4 -5l-8 -36l-57 2h-204l118 -196l-2 -8l-178 -213h201l65 2l4 -5l-9 -36h-320z" />
    <glyph glyph-name="sigma" unicode="&#x3c3;" horiz-adv-x="432" 
d="M36 34l183 220l-123 204l4 37l60 -1h198l60 1l4 -5l-8 -36l-57 2h-204l118 -196l-2 -8l-178 -213h201l65 2l4 -5l-9 -36h-320z" />
    <glyph glyph-name="tau" unicode="&#x3c4;" horiz-adv-x="416" 
d="M413 489l-9 -38l-84 4h-60l-39 -301l-18 -154h-45l20 150l37 305h-60l-86 -4l-4 6l9 37h337z" />
    <glyph glyph-name="upsilon" unicode="&#x3c5;" horiz-adv-x="443" 
d="M231 180l-5 -34l-18 -146h-45l21 146l4 35l-121 313h51l6 -24l90 -235h5l161 233l14 26h50z" />
    <glyph glyph-name="phi" unicode="&#x3c6;" horiz-adv-x="615" 
d="M499 106.5q-68 -62.5 -189 -68.5l-6 -51h-43l7 50q-102 4 -154 50t-52 134q0 108 67.5 169t190.5 66l6 50h44l-6 -49q203 -8 203 -181q0 -107 -68 -169.5zM467.5 131.5q54.5 51.5 54.5 139.5q0 140 -163 149l-35 -266l-10 -79q99 5 153.5 56.5zM273 74l10 76l33 269
q-100 -5 -154 -55t-54 -137q0 -144 165 -153z" />
    <glyph glyph-name="chi" unicode="&#x3c7;" horiz-adv-x="492" 
d="M274 254l145 -254h-55l-16 36l-107 186l-153 -188l-24 -34h-52l207 256l-137 238h57l14 -34l98 -173l139 171l25 36h54z" />
    <glyph glyph-name="psi" unicode="&#x3c8;" horiz-adv-x="585" 
d="M550 494l-18 -148l-9 -66q-9 -83 -66.5 -129.5t-153.5 -51.5l-11 -99h-45l13 98q-88 4 -133 43.5t-45 111.5q0 9 2 27l7 72l18 142h45l-26 -209q-2 -18 -2 -25q0 -114 139 -122l2 12l40 344h46l-44 -340l-2 -16q77 4 121.5 41t52.5 106l25 209h44z" />
    <glyph glyph-name="omega" unicode="&#x3c9;" horiz-adv-x="587" 
d="M48 2l10 37l53 -2h73v4q-51 35 -75 81.5t-24 112.5q0 78 31 138t88 93t131 33q90 0 138 -51.5t48 -148.5q0 -84 -39.5 -149t-116.5 -109v-4h76l53 3l2 -4l-9 -36h-138l-31 -1l-3 2l5 43q79 48 116.5 108.5t37.5 141.5q0 82 -37 124t-109 42q-58 0 -102.5 -28t-69 -79.5
t-24.5 -118.5q0 -61 23 -105.5t76 -84.5l-3 -43l-3 -2l-33 1h-88l-52 -1z" />
    <glyph glyph-name="iotadieresis" unicode="&#x3ca;" horiz-adv-x="243" 
d="M114.5 662.5q7.5 -7.5 7.5 -21.5t-8.5 -22.5t-22.5 -8.5t-21.5 8t-7.5 22t8.5 22t22.5 8t21.5 -7.5zM271 662q8 -8 8 -21q0 -14 -8.5 -22.5t-22.5 -8.5t-21.5 8t-7.5 22t8 22t22 8t22 -8zM133 154l-18 -154h-46l21 150l41 344h46z" />
    <glyph glyph-name="upsilondieresis" unicode="&#x3cb;" horiz-adv-x="443" 
d="M170.5 618q-7.5 8 -7.5 22t8.5 22t22.5 8t21.5 -7.5t7.5 -21.5t-8.5 -22.5t-22.5 -8.5t-21.5 8zM327.5 618q-7.5 8 -7.5 22t8 22t22 8t22 -8t8 -21q0 -14 -8.5 -22.5t-22.5 -8.5t-21.5 8zM231 180l-5 -34l-18 -146h-45l21 146l4 35l-121 313h51l6 -24l90 -235h5l161 233
l14 26h50z" />
    <glyph glyph-name="omicrontonos" unicode="&#x3cc;" horiz-adv-x="536" 
d="M370 730l30 -11l1 -8q-31 -58 -84 -149l-7 -2l-24 11q30 55 78 157zM443.5 446.5q48.5 -52.5 48.5 -152.5q0 -90 -30 -157.5t-87.5 -104.5t-136.5 -37q-90 0 -138.5 53.5t-48.5 155.5q0 137 67 216t187 79q90 0 138.5 -52.5zM150.5 394q-51.5 -65 -51.5 -186
q0 -88 35 -130.5t107 -42.5q98 0 150.5 66t52.5 187q0 86 -36 128.5t-109 42.5q-97 0 -148.5 -65z" />
    <glyph glyph-name="upsilontonos" unicode="&#x3cd;" horiz-adv-x="443" 
d="M264 560l-24 11q30 55 78 157l6 2l30 -11l1 -8q-31 -58 -84 -149zM231 180l-5 -34l-18 -146h-45l21 146l4 35l-121 313h51l6 -24l90 -235h5l161 233l14 26h50z" />
    <glyph glyph-name="omegatonos" unicode="&#x3ce;" horiz-adv-x="587" 
d="M394 730l30 -11l1 -8q-31 -58 -84 -149l-7 -2l-24 11q30 55 78 157zM48 2l10 37l53 -2h73v4q-51 35 -75 81.5t-24 112.5q0 78 31 138t88 93t131 33q90 0 138 -51.5t48 -148.5q0 -84 -39.5 -149t-116.5 -109v-4h76l53 3l2 -4l-9 -36h-138l-31 -1l-3 2l5 43
q79 48 116.5 108.5t37.5 141.5q0 82 -37 124t-109 42q-58 0 -102.5 -28t-69 -79.5t-24.5 -118.5q0 -61 23 -105.5t76 -84.5l-3 -43l-3 -2l-33 1h-88l-52 -1z" />
    <glyph glyph-name="uni03CF" unicode="&#x3cf;" horiz-adv-x="567" 
d="M168 639l-56 -442l-23 -197h-49l26 194l53 445h49zM204 339q115 -167 256 -329v-6q-52 -112 -105 -162.5t-120 -50.5q-24 0 -51 6q-14 16 -14 40l4 3q28 -7 55 -7q54 0 96 38t87 126l-9 4q-152 184 -251 337l-1 3l263 247l48 51h60z" />
    <glyph glyph-name="uni03D1" unicode="&#x3d1;" horiz-adv-x="561" 
d="M465 446.5q51 -53.5 51 -151.5q0 -139 -71.5 -219.5t-198.5 -80.5q-94 0 -144.5 54.5t-50.5 154.5q0 139 71 217.5t198 78.5q94 0 145 -53.5zM153 395q-55 -65 -55 -187q0 -87 39 -131.5t116 -44.5q104 0 160 67.5t56 189.5q0 85 -39.5 128t-117.5 43q-104 0 -159 -65z
M168 229l5 32l222 6l3 -3l-6 -32l-221 -6z" />
    <glyph glyph-name="uni03D5" unicode="&#x3d5;" horiz-adv-x="615" 
d="M499 106.5q-68 -62.5 -189 -68.5l-6 -51h-43l7 50q-102 4 -154 50t-52 134q0 108 67.5 169t190.5 66l6 50h44l-6 -49q203 -8 203 -181q0 -107 -68 -169.5zM467.5 131.5q54.5 51.5 54.5 139.5q0 140 -163 149l-35 -266l-10 -79q99 5 153.5 56.5zM273 74l10 76l33 269
q-100 -5 -154 -55t-54 -137q0 -144 165 -153z" />
    <glyph glyph-name="uni03D6" unicode="&#x3d6;" horiz-adv-x="562" 
d="M452 154l-17 -154h-48l21 150l35 304l-270 -1l-38 -299l-17 -154h-48l20 150l40 344h366z" />
    <glyph glyph-name="uni03D7" unicode="&#x3d7;" horiz-adv-x="504" 
d="M142 495l-44 -341l-17 -154h-48l20 150l41 345h48zM382 3l6 1q-43 -88 -87 -127.5t-101 -39.5q-21 0 -40 4q-14 14 -14 37l3 3q27 -5 44 -5q45 0 79 28.5t69 93.5l-9 4q-124 145 -204 260v3l210 189l39 41h57l-255 -233q91 -125 208 -252v-6z" />
    <glyph glyph-name="uni03F0" unicode="&#x3f0;" horiz-adv-x="455" 
d="M134 154l-19 -154h-46l22 150l41 344h46zM213 262q88 -129 198 -252l-3 -6q-15 -6 -42 -10l-6 3q-112 135 -198 263v4l203 190l38 40h54z" />
    <glyph glyph-name="uni0400" unicode="&#x400;" horiz-adv-x="470" 
d="M196 596l-31 -246l118 -1l101 2l4 -6l-10 -37l-105 1l-114 -1l-14 -111l-18 -155l123 -1l147 3l3 -6l-10 -38h-317l28 194l53 445h316l3 -6l-10 -38l-140 2zM414 751l-11 -25l-7 -3q-104 48 -184 89l-2 7l13 28l7 2q99 -58 184 -98z" />
    <glyph glyph-name="uni0401" unicode="&#x401;" horiz-adv-x="470" 
d="M196 596l-31 -246l118 -1l101 2l4 -6l-10 -37l-105 1l-114 -1l-14 -111l-18 -155l123 -1l147 3l3 -6l-10 -38h-317l28 194l53 445h316l3 -6l-10 -38l-140 2zM279 807.5q8 -7.5 8 -21.5t-8.5 -22.5t-22.5 -8.5t-21.5 8t-7.5 22t8.5 22t22.5 8q13 0 21 -7.5zM436 807
q8 -8 8 -21q0 -14 -8.5 -22.5t-22.5 -8.5t-21.5 8t-7.5 22t8 22t22 8t22 -8z" />
    <glyph glyph-name="uni0402" unicode="&#x402;" horiz-adv-x="626" 
d="M532 384q33 -35 33 -120q0 -38 -6 -88q-17 -131 -58.5 -218.5t-117.5 -148.5l-18 19v8q63 58 99 138.5t51 198.5q6 47 6 81q0 65 -22.5 93t-73.5 28q-93 0 -185 -86l-11 -92l-23 -197h-47l26 194l48 404l-158 -1l-3 6l8 36h421l4 -6l-9 -36l-217 1l-32 -257h5
q82 70 171 79q76 -1 109 -36z" />
    <glyph glyph-name="uni0403" unicode="&#x403;" horiz-adv-x="429" 
d="M456 633l-10 -36l-249 1l-50 -401l-23 -197h-49l26 194l53 445h298zM409 847l13 -28l-2 -7q-80 -41 -184 -89l-7 3l-11 25q85 40 184 98z" />
    <glyph glyph-name="uni0404" unicode="&#x404;" horiz-adv-x="527" 
d="M450.5 629.5q42.5 -14.5 74.5 -40.5l-15 -43h-8q-60 55 -146 55q-97 0 -161 -64.5t-87 -185.5l310 1l6 -5l-9 -38l-190 1l-123 -1q-4 -32 -4 -67q0 -101 45 -153t133 -52q46 0 93 16.5t87 47.5l9 -3l-10 -46q-44 -28 -92 -43t-94 -15q-108 0 -164.5 62.5t-56.5 181.5
q0 31 5 74q19 157 99 244.5t208 87.5q48 0 90.5 -14.5z" />
    <glyph glyph-name="uni0405" unicode="&#x405;" horiz-adv-x="444" 
d="M422 613l-14 -45l-10 -3q-49 37 -111 37q-43 0 -76 -18t-51.5 -47t-18.5 -60q0 -29 15 -51.5t36.5 -39t60.5 -40.5q45 -27 71 -47.5t45 -52t19 -73.5q0 -49 -27.5 -90t-75.5 -64.5t-106 -23.5q-40 0 -81 11.5t-72 33.5l11 49l9 3q27 -28 64 -42t74 -14q44 0 79.5 18
t55.5 47.5t20 63.5q0 31 -15 55t-37.5 41t-61.5 41q-43 26 -69 46.5t-44 51t-18 72.5q0 47 26 86.5t72 62t102 22.5q68 0 128 -30z" />
    <glyph glyph-name="uni0406" unicode="&#x406;" horiz-adv-x="254" 
d="M146 197l-23 -197h-49l27 194l53 445h49z" />
    <glyph glyph-name="uni0407" unicode="&#x407;" horiz-adv-x="247" 
d="M143 197l-23 -197h-49l27 194l53 445h49zM140 807.5q8 -7.5 8 -21.5t-8.5 -22.5t-22.5 -8.5t-21.5 8t-7.5 22t8.5 22t22.5 8q13 0 21 -7.5zM297 807q8 -8 8 -21q0 -14 -8.5 -22.5t-22.5 -8.5t-21.5 8t-7.5 22t8 22t22 8t22 -8z" />
    <glyph glyph-name="uni0408" unicode="&#x408;" horiz-adv-x="303" 
d="M200 212l-11 -96q-9 -73 -48 -121.5t-124 -94.5l-17 27v8q71 39 104.5 81t40.5 101l11 89l46 392l-121 -1l-6 6l8 36h173z" />
    <glyph glyph-name="uni0409" unicode="&#x409;" horiz-adv-x="824" 
d="M739.5 326.5q40.5 -35.5 40.5 -102.5q0 -10 -2 -32q-11 -92 -76 -142t-177 -50h-127l26 194l47 405h-196l-13 -65q-38 -193 -72.5 -304t-73.5 -166t-92 -73l-19 -4l-6 38q51 21 86.5 71.5t66 154t67.5 291.5l20 95l-1 2h287l-35 -277h132q77 0 117.5 -35.5zM732 215
q0 53 -32 81t-94 28l-121 -1l-16 -126l-18 -157l108 -2q75 7 119 46.5t53 107.5q1 8 1 23z" />
    <glyph glyph-name="uni040A" unicode="&#x40a;" horiz-adv-x="905" 
d="M822.5 322q40.5 -35 40.5 -102q0 -10 -2 -30q-11 -93 -76.5 -141.5t-177.5 -48.5h-125l25 194l14 121l-365 -1l-15 -117l-24 -197h-46l26 194l53 445h47l-36 -284l181 -1l184 1l34 284h47l-36 -282h133q78 0 118.5 -35zM814 214q0 51 -32 77.5t-94 25.5l-122 -1l-15 -119
l-18 -157l108 -2q76 7 119.5 45t51.5 106q2 18 2 25z" />
    <glyph glyph-name="uni040B" unicode="&#x40b;" horiz-adv-x="628" 
d="M531 383.5q37 -35.5 37 -108.5q0 -21 -3 -45l-27 -230h-46l28 221q3 21 3 40q0 56 -25.5 85t-75.5 29q-90 0 -181 -86l-12 -92l-23 -197h-47l26 194l48 404l-158 -1l-3 6l8 36h421l4 -6l-9 -36l-216 1l-33 -257h5q82 70 167 79q75 -1 112 -36.5z" />
    <glyph glyph-name="uni040C" unicode="&#x40c;" horiz-adv-x="532" 
d="M145 197l-24 -197h-48l27 194l54 445h48zM237 339q105 -167 236 -328l-1 -7q-16 -6 -44 -12l-6 3q-136 175 -240 343l1 4l249 246l46 51h59zM371 847l13 -28l-2 -7q-80 -41 -184 -89l-7 3l-11 25q85 40 184 98z" />
    <glyph glyph-name="uni040D" unicode="&#x40d;" horiz-adv-x="651" 
d="M97 194l52 443l50 3l-72 -558h7l419 557h50l-56 -442l-22 -197h-49l26 194l44 363h-6l-420 -557h-49zM477 751l-11 -25l-7 -3q-104 48 -184 89l-2 7l13 28l7 2q99 -58 184 -98z" />
    <glyph glyph-name="uni040E" unicode="&#x40e;" horiz-adv-x="542" 
d="M563 638l-246 -450q-46 -80 -75.5 -117t-64.5 -53.5t-98 -24.5l-8 1q-4 17 -4 38l2 5q56 9 86 20.5t53 35t51 70.5l-179 475l52 1l13 -51l138 -368h7l201 370l24 48h48zM468 798q-19 -40 -60 -62.5t-87 -22.5q-44 0 -78 21t-43 60l25 20h8q8 -31 35.5 -48t63.5 -17
q35 0 66.5 17t47.5 48h8z" />
    <glyph glyph-name="uni040F" unicode="&#x40f;" horiz-adv-x="617" 
d="M569 639l-57 -442l-23 -197h-186l-19 -135l-39 -5l13 140h-186l26 194l53 445h47l-56 -442l-18 -156h324l20 153l53 445h48z" />
    <glyph glyph-name="uni0410" unicode="&#x410;" horiz-adv-x="562" 
d="M500 0h-50l-6 53l-29 142l-142 1l-129 -1l-68 -140l-22 -55h-50l311 639h55zM406 238l-70 344h-4l-167 -344l118 -2z" />
    <glyph glyph-name="uni0411" unicode="&#x411;" horiz-adv-x="558" 
d="M183 360h142q84 0 127.5 -37t43.5 -106q0 -104 -71 -160.5t-201 -56.5h-132l25 194l53 445h351l4 -6l-10 -36l-302 1zM178 321l-16 -124l-18 -157l117 -2q90 8 137 51t47 119q0 55 -35 84.5t-102 29.5z" />
    <glyph glyph-name="uni0412" unicode="&#x412;" horiz-adv-x="509" 
d="M449 199q0 -97 -65.5 -149.5t-189.5 -52.5q-69 0 -120 3h-1l28 194l53 445l141 1q72 0 111 -33.5t39 -96.5q0 -64 -29 -109t-83 -67q116 -26 116 -135zM368.5 573q-27.5 25 -80.5 25h-90l-33 -247l113 -2q57 12 87.5 51.5t30.5 101.5q0 46 -27.5 71zM348 79.5
q52 41.5 52 116.5q0 49 -30 78t-87 34h-123l-15 -111l-18 -156q38 -3 74 -3q95 0 147 41.5z" />
    <glyph glyph-name="uni0413" unicode="&#x413;" horiz-adv-x="429" 
d="M456 633l-10 -36l-249 1l-50 -401l-23 -197h-49l26 194l53 445h298z" />
    <glyph glyph-name="uni0414" unicode="&#x414;" horiz-adv-x="627" 
d="M545 -115l-39 -5l8 120h-469l-19 -115l-40 -5l14 120l5 42h55q43 26 73.5 80.5t58.5 152.5t61 267l19 97h280l-56 -442l-18 -155h87zM451 194l47 405h-190l-13 -65q-44 -226 -85 -336.5t-97 -155.5h318z" />
    <glyph glyph-name="uni0415" unicode="&#x415;" horiz-adv-x="470" 
d="M196 596l-31 -246l118 -1l101 2l4 -6l-10 -37l-105 1l-114 -1l-14 -111l-18 -155l123 -1l147 3l3 -6l-10 -38h-317l28 194l53 445h316l3 -6l-10 -38l-140 2z" />
    <glyph glyph-name="uni0416" unicode="&#x416;" horiz-adv-x="786" 
d="M6 4l-1 7q166 163 308 330l-215 298h56l31 -51l180 -247v-5q-131 -159 -312 -342l-7 -2q-30 6 -40 12zM366 194l53 445h48l-55 -442l-24 -197h-47zM677 -4q-132 173 -228 342l-1 3l240 247l44 51h58l-290 -299q105 -174 227 -330v-6q-13 -6 -43 -12z" />
    <glyph glyph-name="uni0417" unicode="&#x417;" horiz-adv-x="482" 
d="M392 286q30 -35 30 -89q0 -60 -31 -106.5t-86 -72.5t-124 -26q-49 0 -91 15t-69 42l16 42l7 1q25 -27 62 -42t80 -15q52 0 95 20.5t68 56.5t25 82q0 47 -30 78t-84 39h-121l-5 6l7 34h121q49 17 81.5 59t32.5 92q0 46 -30.5 71.5t-86.5 25.5q-43 0 -85.5 -15.5
t-80.5 -44.5l-9 3l9 44q41 28 86.5 43t88.5 15q73 0 116 -36t43 -96q0 -56 -33.5 -104.5t-88.5 -72.5q57 -14 87 -49z" />
    <glyph glyph-name="uni0418" unicode="&#x418;" horiz-adv-x="651" 
d="M97 194l52 443l50 3l-72 -558h7l419 557h50l-56 -442l-22 -197h-49l26 194l44 363h-6l-420 -557h-49z" />
    <glyph glyph-name="uni0419" unicode="&#x419;" horiz-adv-x="651" 
d="M97 194l52 443l50 3l-72 -558h7l419 557h50l-56 -442l-22 -197h-49l26 194l44 363h-6l-420 -557h-49zM519 798q-19 -40 -58 -62.5t-82 -22.5q-42 0 -73.5 21t-40.5 60l25 20h8q8 -31 33.5 -48t57.5 -17t61.5 17t45.5 48h8z" />
    <glyph glyph-name="uni041A" unicode="&#x41a;" horiz-adv-x="532" 
d="M145 197l-24 -197h-48l27 194l54 445h48zM237 339q105 -167 236 -328l-1 -7q-16 -6 -44 -12l-6 3q-136 175 -240 343l1 4l249 246l46 51h59z" />
    <glyph glyph-name="uni041B" unicode="&#x41b;" horiz-adv-x="578" 
d="M470 197l-23 -197h-49l26 194l48 405h-196l-14 -65q-38 -193 -72.5 -304t-73.5 -166t-92 -73l-19 -4l-6 38q51 21 86.5 71.5t66.5 154t68 291.5l19 95l-1 2h287z" />
    <glyph glyph-name="uni041C" unicode="&#x41c;" horiz-adv-x="760" 
d="M656 0h-44l8 195l8 359h-5l-245 -476h-44l-119 476h-6l-80 -356l-43 -198h-43l145 639h55l22 -98l98 -399h5l209 407l44 90h55z" />
    <glyph glyph-name="uni041D" unicode="&#x41d;" horiz-adv-x="655" 
d="M603 639l-57 -442l-23 -197h-48l26 194l13 108l-185 2l-169 -2l-14 -105l-23 -197h-49l27 194l53 445h49l-38 -293l175 -2l179 2l35 293h49z" />
    <glyph glyph-name="uni041E" unicode="&#x41e;" horiz-adv-x="644" 
d="M539.5 578.5q57.5 -66.5 57.5 -187.5q0 -122 -36 -211.5t-105.5 -137.5t-166.5 -48q-105 0 -162.5 68t-57.5 192q0 121 36 209t105 135t166 47q106 0 163.5 -66.5zM183.5 512.5q-64.5 -90.5 -64.5 -254.5q0 -108 44.5 -165t129.5 -57q123 0 188.5 91.5t65.5 256.5
q0 108 -44.5 163.5t-131.5 55.5q-123 0 -187.5 -90.5z" />
    <glyph glyph-name="uni041F" unicode="&#x41f;" horiz-adv-x="641" 
d="M533 197l-23 -197h-48l25 194l48 402l-179 1l-159 -1l-50 -399l-23 -197h-49l26 194l53 445h435z" />
    <glyph glyph-name="uni0420" unicode="&#x420;" horiz-adv-x="486" 
d="M428.5 599.5q42.5 -40.5 42.5 -116.5q0 -112 -64.5 -178.5t-178.5 -66.5h-78l-5 -41l-23 -197h-49l28 194l53 445l155 1q77 0 119.5 -40.5zM380 340.5q42 53.5 42 134.5q0 118 -119 124l-106 -2l-41 -317l110 -1q72 8 114 61.5z" />
    <glyph glyph-name="uni0421" unicode="&#x421;" horiz-adv-x="533" 
d="M462 630q42 -14 74 -40l-17 -44l-8 -1q-58 56 -143 56q-118 0 -183 -90t-65 -251q0 -108 44 -165.5t127 -57.5q44 0 89 16.5t85 47.5l8 -3l-10 -46q-90 -58 -178 -58q-104 0 -159.5 67.5t-55.5 191.5q0 121 36 209t104.5 135t163.5 47q46 0 88 -14z" />
    <glyph glyph-name="uni0422" unicode="&#x422;" horiz-adv-x="457" 
d="M484 633l-10 -37l-100 2h-75l-53 -401l-22 -197h-48l26 194l48 404h-73l-104 -2l-4 5l11 38h400z" />
    <glyph glyph-name="uni0423" unicode="&#x423;" horiz-adv-x="542" 
d="M563 638l-246 -450q-46 -80 -75.5 -117t-64.5 -53.5t-98 -24.5l-8 1q-4 17 -4 38l2 5q56 9 86 20.5t53 35t51 70.5l-179 475l52 1l13 -51l138 -368h7l201 370l24 48h48z" />
    <glyph glyph-name="uni0424" unicode="&#x424;" horiz-adv-x="728" 
d="M610 157.5q-85 -76.5 -242 -82.5l-10 -88h-46l12 87q-130 3 -197 58.5t-67 161.5q0 139 83.5 213t242.5 80l8 70h47l-9 -69q130 -4 196.5 -57.5t66.5 -156.5q0 -140 -85 -216.5zM577 183.5q71 64.5 71 184.5q0 88 -55 132.5t-166 48.5l-44 -349l-10 -86q133 5 204 69.5z
M163.5 163.5q56.5 -46.5 165.5 -50.5l11 84l41 351q-134 -5 -204 -68t-70 -181q0 -89 56.5 -135.5z" />
    <glyph glyph-name="uni0425" unicode="&#x425;" horiz-adv-x="553" 
d="M321 329l167 -329h-56l-18 44l-131 250l-194 -253l-28 -41h-54l252 330l-158 309h57l17 -43l120 -232l176 230l29 45h55z" />
    <glyph glyph-name="uni0426" unicode="&#x426;" horiz-adv-x="647" 
d="M572 -115l-39 -5l9 120h-470l26 194l53 445h48l-55 -442l-18 -155h320l20 152l53 445h50l-56 -442l-18 -155h97z" />
    <glyph glyph-name="uni0427" unicode="&#x427;" horiz-adv-x="557" 
d="M509 639l-56 -442l-22 -197h-49l26 194l12 101h-6q-82 -69 -172 -78q-82 0 -121.5 32t-39.5 100q0 9 2 33l31 257h48l-30 -247q-2 -20 -2 -28q0 -51 28 -77t81 -26q96 0 187 88l34 290h49z" />
    <glyph glyph-name="uni0428" unicode="&#x428;" horiz-adv-x="855" 
d="M807 639l-56 -442l-23 -197h-656l26 194l53 445h48l-55 -442l-18 -155h256l20 152l52 445h49l-56 -442l-18 -155h256l20 152l53 445h49z" />
    <glyph glyph-name="uni0429" unicode="&#x429;" horiz-adv-x="888" 
d="M810 639l-56 -442l-23 -197h-656l26 194l53 445h48l-55 -442l-18 -155h256l20 152l52 445h49l-56 -442l-18 -155h256l20 152l53 445h49zM817 -115l-39 -5l9 120h-104l13 42h141z" />
    <glyph glyph-name="uni042A" unicode="&#x42a;" horiz-adv-x="596" 
d="M512 325q41 -37 41 -105q0 -105 -67 -162.5t-190 -57.5h-126l25 194l48 404l-182 -1l-4 6l10 36h229l-34 -277h132q77 0 118 -37zM458 89.5q44 44.5 44 120.5q0 55 -32 84.5t-94 29.5l-119 -1l-16 -126l-18 -157l107 -2q84 7 128 51.5z" />
    <glyph glyph-name="uni042B" unicode="&#x42b;" horiz-adv-x="684" 
d="M401 325.5q39 -36.5 39 -104.5q0 -105 -66 -163t-187 -58h-120l25 194l53 445h49l-35 -277h128q75 0 114 -36.5zM632 639l-57 -442l-23 -197h-49l27 194l53 445h49zM346.5 90q42.5 45 42.5 121q0 55 -30 84t-89 29l-116 -1l-16 -126l-18 -157l103 -2q81 7 123.5 52z" />
    <glyph glyph-name="uni042C" unicode="&#x42c;" horiz-adv-x="526" 
d="M442 325q42 -37 42 -106q0 -104 -69 -161.5t-195 -57.5h-128l25 194l53 445h48l-35 -277h137q80 0 122 -37zM387.5 89.5q44.5 44.5 44.5 120.5q0 55 -32.5 84.5t-96.5 29.5l-125 -1l-16 -126l-18 -157l112 -2q87 7 131.5 51.5z" />
    <glyph glyph-name="uni042D" unicode="&#x42d;" horiz-adv-x="531" 
d="M449.5 581.5q56.5 -62.5 56.5 -181.5q0 -32 -5 -75q-19 -157 -99 -244t-208 -87q-48 0 -90.5 14t-75.5 40l16 44h8q59 -56 145 -56q102 0 167 71t85 202l-125 1l-185 -2l-5 6l9 37l189 -1l122 1q2 30 2 44q0 101 -45.5 153.5t-133.5 52.5q-45 0 -91.5 -17t-88.5 -48l-8 4
l8 46q96 58 187 58q109 0 165.5 -62.5z" />
    <glyph glyph-name="uni042E" unicode="&#x42e;" horiz-adv-x="803" 
d="M726.5 582q53.5 -63 53.5 -182q0 -29 -5 -72q-19 -160 -95 -247t-196 -87q-100 0 -153 63.5t-53 182.5q0 29 3 62l-64 1l-61 -1l-13 -105l-23 -197h-49l26 194l53 445h48l-37 -294l63 -1l63 1q23 145 96.5 222.5t187.5 77.5q102 0 155.5 -63zM730 399q0 100 -41.5 152
t-121.5 52q-98 0 -158.5 -72.5t-77.5 -212.5q-5 -47 -5 -77q0 -102 41 -154.5t121 -52.5q98 0 158.5 74t78.5 218q5 43 5 73z" />
    <glyph glyph-name="uni042F" unicode="&#x42f;" horiz-adv-x="515" 
d="M465 637l-56 -443l-22 -194h-48l25 197l7 55h-117q-78 -116 -190 -256l-8 -4q-28 5 -40 13l-1 7q112 130 198 249q-54 20 -83 59.5t-29 96.5q0 9 2 31q10 88 69 140.5t146 52.5l148 -2zM412 599l-98 2q-65 0 -109 -42.5t-53 -114.5q-2 -18 -2 -26q0 -51 26 -83.5
t77 -43.5l123 2z" />
    <glyph glyph-name="uni0430" unicode="&#x430;" horiz-adv-x="464" 
d="M410 0h-48l-4 44l-23 101l-118 1l-106 -1l-51 -99l-19 -46h-47l252 494h53zM267 444h-4l-133 -260h196z" />
    <glyph glyph-name="uni0431" unicode="&#x431;" horiz-adv-x="454" 
d="M142 282h117q70 0 106.5 -29t36.5 -83q0 -81 -59.5 -125.5t-166.5 -44.5h-115l21 150l40 345h297l3 -5l-8 -35l-250 1zM138 245l-12 -91l-14 -116l94 -2q71 6 108 38t37 87q0 41 -28 63t-81 22z" />
    <glyph glyph-name="uni0432" unicode="&#x432;" horiz-adv-x="433" 
d="M352 222q25 -27 25 -70q0 -75 -55 -114.5t-158 -39.5q-72 0 -105 2l21 150l42 344l122 1q61 0 95 -27t34 -77q0 -48 -24 -81.5t-68 -51.5q46 -9 71 -36zM301 439q-23 19 -68 19h-71l-23 -184l93 -2q45 9 68.5 37.5t23.5 74.5q0 36 -23 55zM288.5 64.5
q41.5 30.5 41.5 86.5q0 74 -96 85l-100 -1l-11 -81l-14 -117q30 -3 62 -3q76 0 117.5 30.5z" />
    <glyph glyph-name="uni0433" unicode="&#x433;" horiz-adv-x="358" 
d="M376 489l-10 -34l-203 1l-38 -302l-18 -154h-46l20 150l40 344h251z" />
    <glyph glyph-name="uni0434" unicode="&#x434;" horiz-adv-x="524" 
d="M446 -99l-37 -5l6 104h-381l-18 -99l-37 -5l17 144h45q35 20 60 60.5t46.5 114t48.5 202.5l16 77h236l-44 -340l-13 -114h72zM361 150l37 307h-151l-10 -48q-34 -168 -66.5 -251t-78.5 -118h254z" />
    <glyph glyph-name="uni0435" unicode="&#x435;" horiz-adv-x="406" 
d="M163 456l-24 -182h99l83 1l3 -5l-8 -36l-87 1h-95l-11 -81l-13 -115l98 -1l126 2l4 -4l-10 -36h-268l20 150l42 344h268l3 -5l-9 -36l-117 3h-104z" />
    <glyph glyph-name="uni0436" unicode="&#x436;" horiz-adv-x="655" 
d="M-1 4l-1 7q144 135 248 253l-175 231h53l26 -41l146 -189v-5q-94 -111 -250 -265l-6 -1q-26 4 -41 10zM296 150l41 345h47l-44 -341l-18 -154h-46zM553 -3q-110 140 -185 264v4l191 189l36 41h56l-233 -232q84 -133 184 -253l1 -6q-18 -6 -43 -10z" />
    <glyph glyph-name="uni0437" unicode="&#x437;" horiz-adv-x="409" 
d="M327.5 221q24.5 -27 24.5 -68q0 -47 -26 -83t-71.5 -56t-104.5 -20q-41 0 -76 11t-59 31l15 40l7 1q20 -20 51 -31t66 -11q65 0 107.5 32.5t42.5 83.5q0 35 -23.5 57t-66.5 29h-102l-4 5l7 33l101 -1q39 14 64 44.5t25 66.5q0 34 -25 53t-70 19q-70 0 -137 -43l-7 2l8 41
q33 20 70 31t73 11q63 0 100 -28t37 -76q0 -44 -26.5 -80.5t-71.5 -55.5q47 -11 71.5 -38z" />
    <glyph glyph-name="uni0438" unicode="&#x438;" horiz-adv-x="559" 
d="M81 150l40 343l49 4l-55 -419h5l333 417h49l-44 -341l-17 -154h-48l21 150l33 268h-5l-333 -418h-48z" />
    <glyph glyph-name="uni0439" unicode="&#x439;" horiz-adv-x="559" 
d="M454 654q-19 -40 -58 -62.5t-82 -22.5q-42 0 -73.5 21t-40.5 60l25 20h8q9 -31 34 -48t57 -17t61.5 17t45.5 48h8zM81 150l40 343l49 4l-55 -419h5l333 417h49l-44 -341l-17 -154h-48l21 150l33 268h-5l-333 -418h-48z" />
    <glyph glyph-name="uni043A" unicode="&#x43a;" horiz-adv-x="451" 
d="M124 154l-19 -154h-46l22 150l41 344h46zM203 262q88 -129 198 -252l-3 -6q-15 -6 -42 -10l-6 3q-112 135 -198 263v4l203 190l38 40h54z" />
    <glyph glyph-name="uni043B" unicode="&#x43b;" horiz-adv-x="483" 
d="M384 154l-18 -154h-47l20 150l36 307h-155l-10 -48q-31 -150 -59 -235.5t-60 -127t-77 -53.5l-17 -4l-6 39q42 15 70.5 53t53 116t54.5 221l16 77h242z" />
    <glyph glyph-name="uni043C" unicode="&#x43c;" horiz-adv-x="640" 
d="M548 0h-41l7 151l2 266h-4l-196 -358h-40l-99 358h-5l-63 -263l-34 -154h-41l116 494h53l18 -75l83 -299h4l165 305l35 69h51z" />
    <glyph glyph-name="uni043D" unicode="&#x43d;" horiz-adv-x="554" 
d="M499 494l-44 -340l-18 -154h-46l21 150l10 80l-288 -1l-10 -75l-18 -154h-46l21 150l41 344h46l-29 -223l144 -1l143 1l27 223h46z" />
    <glyph glyph-name="uni043E" unicode="&#x43e;" horiz-adv-x="534" 
d="M442.5 446.5q48.5 -52.5 48.5 -152.5q0 -90 -30 -157.5t-87.5 -104.5t-136.5 -37q-90 0 -138.5 53.5t-48.5 155.5q0 137 67 216t187 79q90 0 138.5 -52.5zM149.5 394q-51.5 -65 -51.5 -186q0 -88 35 -130.5t107 -42.5q98 0 150.5 66t52.5 187q0 86 -36 128.5t-109 42.5
q-97 0 -148.5 -65z" />
    <glyph glyph-name="uni043F" unicode="&#x43f;" horiz-adv-x="542" 
d="M443 154l-17 -154h-48l21 150l35 304l-270 -1l-38 -299l-17 -154h-48l20 150l40 344h366z" />
    <glyph glyph-name="uni0440" unicode="&#x440;" horiz-adv-x="411" 
d="M358.5 461.5q36.5 -33.5 36.5 -92.5q0 -53 -24.5 -96t-69.5 -67.5t-103 -24.5h-70l-4 -27l-18 -154h-45l20 150l42 344l135 1q64 0 100.5 -33.5zM313.5 265.5q32.5 39.5 32.5 98.5q0 89 -97 94l-85 -1l-31 -237l90 -1q58 7 90.5 46.5z" />
    <glyph glyph-name="uni0441" unicode="&#x441;" horiz-adv-x="444" 
d="M375 488q35 -10 61 -29l-15 -42l-7 -2q-23 21 -53.5 32.5t-65.5 11.5q-94 0 -145.5 -66.5t-51.5 -188.5q0 -81 35.5 -125t102.5 -44q36 0 74 13t70 36l6 -3l-9 -42q-70 -44 -144 -44q-88 0 -135.5 53.5t-47.5 150.5q0 142 66 220.5t186 78.5q38 0 73 -10z" />
    <glyph glyph-name="uni0442" unicode="&#x442;" horiz-adv-x="374" 
d="M391 489l-9 -38l-84 4h-60l-39 -301l-18 -154h-45l20 150l37 305h-60l-86 -4l-4 6l9 37h337z" />
    <glyph glyph-name="uni0443" unicode="&#x443;" horiz-adv-x="412" 
d="M215 180l-5 -34l-18 -146h-45l21 146l4 35l-121 313h51l6 -24l90 -235h5l161 233l14 26h50z" />
    <glyph glyph-name="uni0444" unicode="&#x444;" horiz-adv-x="579" 
d="M477 106.5q-68 -62.5 -189 -68.5l-6 -51h-43l7 50q-102 4 -154 50t-52 134q0 108 67.5 169t190.5 66l6 50h44l-6 -49q203 -8 203 -181q0 -107 -68 -169.5zM445.5 131.5q54.5 51.5 54.5 139.5q0 140 -163 149l-35 -266l-10 -79q99 5 153.5 56.5zM251 74l10 76l33 269
q-100 -5 -154 -55t-54 -137q0 -144 165 -153z" />
    <glyph glyph-name="uni0445" unicode="&#x445;" horiz-adv-x="465" 
d="M263 254l145 -254h-55l-16 36l-107 186l-153 -188l-24 -34h-52l207 256l-137 238h57l14 -34l98 -173l139 171l25 36h54z" />
    <glyph glyph-name="uni0446" unicode="&#x446;" horiz-adv-x="551" 
d="M489 0l-13 -103l-35 -4l7 107h-387l20 150l41 344h46l-43 -340l-13 -114h257l15 110l40 344h48l-44 -340l-13 -114h79z" />
    <glyph glyph-name="uni0447" unicode="&#x447;" horiz-adv-x="474" 
d="M418 495l-44 -341l-17 -154h-47l19 150l9 75h-4q-68 -53 -140 -60q-68 0 -101.5 26t-33.5 79q0 8 2 26l23 199h48l-24 -189q-1 -7 -1 -19q0 -79 88 -79q76 0 148 63l27 224h48z" />
    <glyph glyph-name="uni0448" unicode="&#x448;" horiz-adv-x="728" 
d="M672 495l-44 -341l-18 -154h-549l21 150l40 345h48l-44 -341l-12 -113h204l15 109l40 345h48l-44 -341l-12 -113h204l15 109l40 345h48z" />
    <glyph glyph-name="uni0449" unicode="&#x449;" horiz-adv-x="751" 
d="M678 -99l-35 -5l7 104h-598l21 150l40 345h48l-44 -341l-12 -113h204l15 109l40 345h48l-44 -341l-12 -113h204l15 109l40 345h48l-44 -341l-14 -116h91z" />
    <glyph glyph-name="uni044A" unicode="&#x44a;" horiz-adv-x="500" 
d="M428 255q34 -29 34 -83q0 -82 -56 -127t-158 -45h-109l20 150l36 306h-65l-83 -1l-3 5l8 35h195l-27 -211h108q66 0 100 -29zM377.5 75q34.5 32 34.5 87q0 41 -26 63.5t-75 22.5l-96 -1l-12 -93l-13 -117l87 -1q66 7 100.5 39z" />
    <glyph glyph-name="uni044B" unicode="&#x44b;" horiz-adv-x="616" 
d="M351 255q33 -29 33 -83q0 -81 -55.5 -126.5t-155.5 -45.5h-104l21 150l40 345h48l-27 -211h105q62 0 95 -29zM561 494l-44 -340l-18 -154h-46l21 150l41 344h46zM300 75.5q33 32.5 33 87.5q0 41 -24 63t-71 22l-92 -1l-12 -93l-14 -117l83 -1q64 7 97 39.5z" />
    <glyph glyph-name="uni044C" unicode="&#x44c;" horiz-adv-x="430" 
d="M357 255q35 -29 35 -84q0 -81 -57.5 -126t-162.5 -45h-111l21 150l40 345h47l-27 -211h113q67 0 102 -29zM306 75q35 32 35 87q0 42 -26 64t-78 22l-99 -1l-12 -93l-14 -116l91 -2q68 7 103 39z" />
    <glyph glyph-name="uni044D" unicode="&#x44d;" horiz-adv-x="457" 
d="M367 450q47 -49 47 -145q0 -24 -3 -53q-15 -122 -81.5 -189.5t-173.5 -67.5q-80 0 -138 41l14 41h8q49 -41 120 -41q82 0 133 51.5t67 147.5l-101 1l-150 -2l-4 6l8 36l153 -2l99 1q1 9 1 25q0 78 -36.5 118t-109.5 40q-36 0 -74 -12.5t-72 -34.5l-8 3l8 43q75 42 153 42
q93 0 140 -49z" />
    <glyph glyph-name="uni044E" unicode="&#x44e;" horiz-adv-x="695" 
d="M605.5 450.5q44.5 -49.5 44.5 -142.5q0 -24 -3 -53q-15 -125 -77.5 -192.5t-163.5 -67.5q-83 0 -127.5 50t-44.5 144q0 13 2 41l-52 1l-48 -1l-10 -76l-18 -154h-47l20 150l41 345h47l-28 -224l50 -1l50 1q20 111 80 170t155 59q85 0 129.5 -49.5zM602 308
q0 152 -130 152q-78 0 -126 -53.5t-61 -159.5q-4 -40 -4 -56q0 -158 130 -158q79 0 126.5 55t60.5 163q4 27 4 57z" />
    <glyph glyph-name="uni044F" unicode="&#x44f;" horiz-adv-x="443" 
d="M386 493l-44 -343l-16 -150h-48l21 154l4 37h-95q-68 -97 -150 -194l-7 -3q-25 3 -41 11v6q99 110 159 190q-45 16 -68 47.5t-23 75.5q0 77 50.5 124.5t130.5 47.5l128 -1zM308 230l26 228l-78 2q-52 -1 -87 -32.5t-42 -85.5q-1 -6 -1 -18q0 -78 83 -96z" />
    <glyph glyph-name="uni0450" unicode="&#x450;" horiz-adv-x="406" 
d="M147 689l-2 6l20 25l6 1q76 -75 155 -141l-16 -22l-7 -1q-98 80 -156 132zM163 456l-24 -182h99l83 1l3 -5l-8 -36l-87 1h-95l-11 -81l-13 -115l98 -1l126 2l4 -4l-10 -36h-268l20 150l42 344h268l3 -5l-9 -36l-117 3h-104z" />
    <glyph glyph-name="uni0451" unicode="&#x451;" horiz-adv-x="406" 
d="M173.5 618q-7.5 8 -7.5 22t8.5 22t22.5 8t21.5 -7.5t7.5 -21.5t-8.5 -22.5t-22.5 -8.5t-21.5 8zM330.5 618q-7.5 8 -7.5 22t8 22t22 8t22 -8t8 -21q0 -14 -8.5 -22.5t-22.5 -8.5t-21.5 8zM163 456l-24 -182h99l83 1l3 -5l-8 -36l-87 1h-95l-11 -81l-13 -115l98 -1l126 2
l4 -4l-10 -36h-268l20 150l42 344h268l3 -5l-9 -36l-117 3h-104z" />
    <glyph glyph-name="uni0452" unicode="&#x452;" horiz-adv-x="516" 
d="M431 297.5q28 -28.5 28 -95.5q0 -24 -5 -66q-13 -101 -47.5 -168.5t-97.5 -115.5l-18 19v6q51 44 80 105t39 151q4 31 4 60q0 49 -18 69.5t-59 20.5q-74 0 -146 -62l-8 -67l-18 -154h-46l20 150l37 306h-45l-84 -1l-3 5l7 35h352l3 -5l-8 -35l-92 1h-85l-24 -191h4
q67 54 138 61q64 0 92 -28.5z" />
    <glyph glyph-name="uni0453" unicode="&#x453;" horiz-adv-x="358" 
d="M183 558l-16 22q79 66 155 141l6 -1l20 -25l-2 -6q-58 -52 -156 -132zM376 489l-10 -34l-203 1l-38 -302l-18 -154h-46l20 150l40 344h251z" />
    <glyph glyph-name="uni0454" unicode="&#x454;" horiz-adv-x="459" 
d="M381.5 488.5q35.5 -10.5 62.5 -29.5l-14 -41l-7 -1q-49 41 -120 41q-78 0 -128.5 -47t-69.5 -136l251 1l4 -5l-7 -36l-154 1l-100 -1q-2 -15 -2 -41q0 -157 146 -157q37 0 74.5 12t71.5 34l7 -3l-8 -43q-76 -42 -152 -42q-92 0 -140 49t-48 143q0 17 4 55
q14 123 80.5 190t174.5 67q39 0 74.5 -10.5z" />
    <glyph glyph-name="uni0455" unicode="&#x455;" horiz-adv-x="374" 
d="M343 475l-13 -45l-10 -2q-42 32 -90 32q-34 0 -60 -14t-40 -36t-14 -46q0 -31 22.5 -50.5t68.5 -41.5q36 -18 59 -33t39 -39t16 -58q0 -38 -21 -71.5t-60 -54t-89 -20.5q-33 0 -68 9t-61 25l9 48l7 3q24 -23 55.5 -35t61.5 -12q34 0 61.5 14.5t43 37.5t15.5 49
q0 32 -22.5 51.5t-69.5 42.5q-37 18 -59 33t-38 38.5t-16 57.5q0 37 20.5 69t58.5 51.5t86 19.5q55 0 108 -23z" />
    <glyph glyph-name="uni0456" unicode="&#x456;" horiz-adv-x="223" 
d="M124 154l-18 -154h-46l21 150l41 344h46z" />
    <glyph glyph-name="uni0457" unicode="&#x457;" horiz-adv-x="243" 
d="M136 663q8 -8 8 -22q0 -15 -8.5 -24t-22.5 -9t-22.5 8.5t-8.5 22.5q0 15 9 23.5t23 8.5t22 -8zM250 663q8 -8 8 -22q0 -15 -8.5 -24t-22.5 -9q-15 0 -23 8.5t-8 22.5q0 15 8.5 23.5t23.5 8.5q14 0 22 -8zM133 154l-18 -154h-46l21 150l41 344h46z" />
    <glyph glyph-name="uni0458" unicode="&#x458;" horiz-adv-x="259" 
d="M163 164l-9 -73q-7 -58 -35.5 -96t-92.5 -73l-17 27l1 6q49 30 72.5 61.5t28.5 76.5l8 65l36 299h-98l-4 4l8 33h144z" />
    <glyph glyph-name="uni0459" unicode="&#x459;" horiz-adv-x="680" 
d="M608 256.5q34 -27.5 34 -80.5q0 -84 -55.5 -130t-156.5 -46h-111l20 150l36 307h-155l-10 -48q-31 -149 -59 -235t-60.5 -127.5t-76.5 -53.5l-17 -4l-6 39q42 15 70.5 53t53 116t54.5 221l16 77h242l-27 -211h109q65 0 99 -27.5zM594 168q0 39 -25.5 59.5t-75.5 20.5
l-97 -1l-12 -93l-14 -116l88 -2q60 6 94 35t41 79q1 6 1 18z" />
    <glyph glyph-name="uni045A" unicode="&#x45a;" horiz-adv-x="757" 
d="M685 252.5q34 -27.5 34 -80.5q0 -14 -1 -22q-9 -73 -63.5 -111.5t-148.5 -38.5h-108l20 150l10 90h-293l-11 -86l-17 -154h-46l21 150l40 345h46l-28 -216l146 -1l147 1l25 216h47l-28 -215h109q65 0 99 -27.5zM570 243l-98 -1l-11 -88l-14 -116l88 -2q66 7 101 39t35 90
q0 78 -101 78z" />
    <glyph glyph-name="uni045B" unicode="&#x45b;" horiz-adv-x="517" 
d="M429.5 297.5q30.5 -28.5 30.5 -86.5q0 -22 -2 -35l-20 -176h-46l23 168q2 20 2 28q0 87 -82 87q-70 0 -143 -61l-9 -68l-18 -154h-46l20 150l36 306h-44l-84 -1l-3 5l7 35h352l3 -5l-8 -35l-92 1h-85l-24 -191h4q67 54 135 61q63 0 93.5 -28.5z" />
    <glyph glyph-name="uni045C" unicode="&#x45c;" horiz-adv-x="451" 
d="M358 720l20 -25l-2 -6q-58 -52 -156 -132l-7 1l-16 22q79 66 155 141zM124 154l-19 -154h-46l22 150l41 344h46zM203 262q88 -129 198 -252l-3 -6q-15 -6 -42 -10l-6 3q-112 135 -198 263v4l203 190l38 40h54z" />
    <glyph glyph-name="uni045D" unicode="&#x45d;" horiz-adv-x="559" 
d="M381 581l-16 -22l-7 -1q-98 80 -156 132l-2 6l20 25l6 1q76 -75 155 -141zM81 150l40 343l49 4l-55 -419h5l333 417h49l-44 -341l-17 -154h-48l21 150l33 268h-5l-333 -418h-48z" />
    <glyph glyph-name="uni045E" unicode="&#x45e;" horiz-adv-x="412" 
d="M322 590.5q-39 -22.5 -82 -22.5q-42 0 -73.5 21t-40.5 60l25 20h8q9 -31 34 -48t57 -17t61.5 17t45.5 48h8l15 -16q-19 -40 -58 -62.5zM215 180l-5 -34l-18 -146h-45l21 146l4 35l-121 313h51l6 -24l90 -235h5l161 233l14 26h50z" />
    <glyph glyph-name="uni045F" unicode="&#x45f;" horiz-adv-x="530" 
d="M474 495l-44 -341l-18 -154h-153l-18 -120l-37 -4l11 124h-154l21 150l40 345h47l-44 -341l-13 -115h260l15 111l40 345h47z" />
    <glyph glyph-name="uni0462" unicode="&#x462;" horiz-adv-x="581" 
d="M537 210q0 -9 -2 -29q-11 -91 -75 -136t-176 -45h-126l25 194l43 356l-158 -1l-4 5l8 34h158l14 112h46l-14 -112h214l4 -5l-9 -34l-214 1l-26 -211h132q160 0 160 -129zM488 203q0 51 -31.5 75.5t-94.5 24.5l-122 -1l-13 -105l-19 -159l109 -2q77 7 119.5 42t50.5 102
q1 8 1 23z" />
    <glyph glyph-name="uni0463" unicode="&#x463;" horiz-adv-x="480" 
d="M440 163q0 -14 -1 -21q-9 -71 -62.5 -106.5t-147.5 -35.5h-109l20 150l32 270h-41l-88 -1l-3 4l7 34h130l10 85h46l-11 -85h174l4 -5l-9 -33l-88 1h-86l-20 -155h109q134 0 134 -102zM291 232l-98 -1l-10 -77l-14 -118l89 -2q134 12 134 124q0 74 -101 74z" />
    <glyph glyph-name="uni046A" unicode="&#x46a;" horiz-adv-x="715" 
d="M707 603l-284 -280q31 -5 50.5 -23.5t49.5 -64.5q58 -90 161 -225v-6q-13 -5 -43 -12l-7 4q-86 110 -162 235q-20 33 -36 44t-48 12l-11 -90l-23 -197h-47l25 194l11 92q-32 -1 -50.5 -13t-47.5 -46q-88 -100 -219 -233l-6 -2q-17 4 -41 12l-2 7q93 88 216 227
q40 46 65 64t59 22l-215 279l4 36h605zM648 600h-489l207 -273h3h4z" />
    <glyph glyph-name="uni046B" unicode="&#x46b;" horiz-adv-x="633" 
d="M598 461l-226 -209q24 -5 40.5 -20t42.5 -52q48 -68 131 -170v-6q-11 -4 -43 -10l-6 3q-72 84 -131 178q-15 25 -28.5 34t-39.5 10l-8 -65l-18 -154h-46l20 150l8 68q-25 -1 -40 -10.5t-38 -35.5q-31 -34 -141 -144l-34 -33l-6 -1q-23 4 -40 10l-2 7q77 69 173 172
q32 36 53 51t49 19l-174 208l3 34h505zM542 458h-393l167 -202h3h4z" />
    <glyph glyph-name="uni0472" unicode="&#x472;" horiz-adv-x="646" 
d="M542.5 578.5q57.5 -66.5 57.5 -190.5q0 -120 -36.5 -209t-106 -137t-166.5 -48q-107 0 -164.5 67.5t-57.5 194.5q0 119 36.5 207t105.5 135t166 47q108 0 165.5 -66.5zM203.5 533.5q-64.5 -69.5 -79.5 -199.5l424 8q1 13 1 41q0 108 -44 164t-132 56q-105 0 -169.5 -69.5
zM464.5 104q64.5 70 79.5 199l-423 -7q-1 -12 -1 -37q0 -110 44.5 -167.5t130.5 -57.5q105 0 169.5 70z" />
    <glyph glyph-name="uni0473" unicode="&#x473;" horiz-adv-x="535" 
d="M441.5 447.5q48.5 -52.5 48.5 -151.5q0 -139 -67 -220t-188 -81q-90 0 -138 53.5t-48 154.5q0 138 66.5 217.5t186.5 79.5q91 0 139.5 -52.5zM164 409.5q-51 -50.5 -63 -147.5l339 7v23q0 168 -142 168q-83 0 -134 -50.5zM373.5 84q50.5 51 62.5 148l-338 -7v-20
q0 -85 35.5 -128.5t105.5 -43.5q84 0 134.5 51z" />
    <glyph glyph-name="uni0474" unicode="&#x474;" horiz-adv-x="569" 
d="M68 639h49l7 -54l113 -529h5l230 476q30 64 54.5 87t60.5 21l2 -38l-4 -6q-23 0 -39 -17t-40 -67l-248 -512h-52z" />
    <glyph glyph-name="uni0475" unicode="&#x475;" horiz-adv-x="480" 
d="M58 495h47l6 -45l93 -399h3l181 359q25 51 46.5 69.5t53.5 16.5l2 -36l-3 -5q-19 0 -32 -13.5t-33 -51.5l-196 -390h-53z" />
    <glyph glyph-name="uni0490" unicode="&#x490;" horiz-adv-x="437" 
d="M476 740l-25 -143l-259 1l-51 -401l-23 -197h-47l26 194l53 445h267l24 101h35z" />
    <glyph glyph-name="uni0491" unicode="&#x491;" horiz-adv-x="369" 
d="M395 574l-21 -119l-211 1l-39 -302l-18 -154h-45l20 150l41 345h220l19 80z" />
    <glyph glyph-name="uni0492" unicode="&#x492;" horiz-adv-x="434" 
d="M460.396 633l-9.69922 -36l-241.523 1l-48.498 -401l-22.3096 -197h-47.5283l25.2188 194l51.4092 445h289.051zM315.846 330l-5.03516 -32h-262.661l-2.51758 4l5.87402 32h261.822z" />
    <glyph glyph-name="uni0493" unicode="&#x493;" horiz-adv-x="383" 
d="M159 241h128l3 -4l-5 -32h-131l-6 -51l-18 -154h-46l20 150l6 55h-88l-2 4l5 32h90l29 253h251l4 -5l-10 -34l-203 1z" />
    <glyph glyph-name="uni0494" unicode="&#x494;" horiz-adv-x="541" 
d="M444 384q33 -35 33 -120q0 -38 -6 -88q-16 -130 -58 -217.5t-117 -149.5l-19 19v8q64 58 100 138.5t50 198.5q6 47 6 81q0 65 -22.5 93t-73.5 28q-94 0 -184 -86l-12 -92l-23 -197h-47l26 194l53 445h309l4 -6l-9 -36l-262 1l-33 -257h5q82 70 171 79q76 -1 109 -36z" />
    <glyph glyph-name="uni0495" unicode="&#x495;" horiz-adv-x="462" 
d="M372.5 297.5q27.5 -28.5 27.5 -96.5q0 -33 -4 -65q-13 -100 -47.5 -168t-97.5 -116l-18 19v6q50 44 79 105t41 151q4 29 4 59q0 49 -18 70t-59 21q-76 0 -147 -62l-9 -67l-17 -154h-46l20 150l41 345h260l3 -5l-8 -35l-214 1l-25 -191h4q69 54 139 61q64 0 91.5 -28.5z
" />
    <glyph glyph-name="uni0496" unicode="&#x496;" horiz-adv-x="836" 
d="M367 336q-132 -159 -315 -342l-6 -2q-30 7 -40 12l-1 7q165 159 312 330l-219 298h56l32 -51l181 -247v-5zM470 639l-56 -442l-23 -197h-46l26 194l53 445h46zM713 42h71l-20 -157l-39 -5l9 119l-44 -1l-5 3q-73 95 -129.5 175t-103.5 162v3l241 247l46 51h56l-293 -299
q77 -127 211 -298z" />
    <glyph glyph-name="uni0497" unicode="&#x497;" horiz-adv-x="695" 
d="M297 260q-53 -62 -112 -123.5t-140 -141.5l-7 -1q-24 4 -39 10l-1 7q135 122 252 253l-179 230h52l27 -40l147 -189v-5zM384 494l-43 -340l-18 -154h-43l19 150l41 344h44zM584 40h64l-16 -139l-36 -4l5 102l-38 -1l-4 3q-121 149 -189 260l-1 4l194 189l37 40h53
l-237 -232q63 -95 168 -222z" />
    <glyph glyph-name="uni0498" unicode="&#x498;" horiz-adv-x="466" 
d="M392 286q30 -35 30 -89q0 -60 -31 -106.5t-86 -72.5t-124 -26q-49 0 -91 15t-69 42l16 42l7 1q25 -27 62 -42t80 -15q52 0 95 20.5t68 56.5t25 82q0 47 -30 78t-84 39h-121l-5 6l7 34h121q49 17 81.5 59t32.5 92q0 46 -30.5 71.5t-86.5 25.5q-43 0 -85.5 -15.5
t-80.5 -44.5l-9 3l9 44q41 28 86.5 43t88.5 15q73 0 116 -36t43 -96q0 -56 -33.5 -104.5t-88.5 -72.5q57 -14 87 -49zM168 21h47l-23 -156l-39 -5z" />
    <glyph glyph-name="uni0499" unicode="&#x499;" horiz-adv-x="397" 
d="M327.5 221q24.5 -27 24.5 -68q0 -65 -47.5 -107.5t-125.5 -50.5l-17 -112l-37 -5l11 116q-78 5 -121 42l15 40l7 1q20 -20 51 -31t66 -11q65 0 107.5 32.5t42.5 83.5q0 35 -23.5 57t-66.5 29h-102l-4 5l7 33l101 -1q39 14 64 44.5t25 66.5q0 34 -25 53t-70 19
q-70 0 -137 -43l-7 2l8 41q33 20 70 31t73 11q63 0 100 -28t37 -76q0 -44 -26.5 -80.5t-71.5 -55.5q47 -11 71.5 -38z" />
    <glyph glyph-name="uni049A" unicode="&#x49a;" horiz-adv-x="579" 
d="M202 639l-57 -442l-23 -197h-47l25 194l53 445h49zM454 42h72l-21 -157l-39 -5l9 119l-42 -1l-6 2q-140 173 -242 338l-1 3l255 247l46 51h59l-307 -299q110 -169 217 -298z" />
    <glyph glyph-name="uni049B" unicode="&#x49b;" horiz-adv-x="488" 
d="M169 494l-45 -340l-17 -154h-46l20 150l41 344h47zM376 40h65l-17 -139l-38 -4l7 102l-36 -1l-6 2q-113 135 -197 261v4l204 189l38 40h55l-247 -232q78 -115 172 -222z" />
    <glyph glyph-name="uni049C" unicode="&#x49c;" horiz-adv-x="568" 
d="M309 340q96 -180 200 -330v-6q-9 -5 -22 -8t-17 -4l-7 4q-104 158 -191 322h-32l-18 -151l-29 -3l-3 4l18 150h-52l-15 -121l-24 -197h-46l26 194l52 445h48l-36 -281h52l18 143l27 3l4 -4l-17 -142h31l203 230l39 51h54z" />
    <glyph glyph-name="uni049D" unicode="&#x49d;" horiz-adv-x="488" 
d="M433 10l1 -6q-13 -6 -40 -10l-6 3q-80 116 -154 245h-26l-14 -116l-27 -1l-3 3l14 114h-43l-11 -88l-17 -154h-46l20 150l41 345h46l-28 -215h42l14 111l26 2l3 -3l-13 -110h25l161 174l32 41h52l-212 -232q78 -139 163 -253z" />
    <glyph glyph-name="uni04A0" unicode="&#x4a0;" horiz-adv-x="608" 
d="M240 197l-23 -197h-47l25 194l48 404l-182 -1l-3 6l8 36h230zM330 339q111 -170 247 -329v-6q-12 -6 -42 -12l-7 3q-152 191 -249 343v3l255 247l47 51h58z" />
    <glyph glyph-name="uni04A1" unicode="&#x4a1;" horiz-adv-x="532" 
d="M202 154l-18 -154h-46l20 150l36 306h-60l-87 -1l-3 5l7 35h195zM281 263q92 -133 201 -253v-6q-16 -6 -43 -10l-6 3q-121 146 -202 264v4l205 189l38 41h55z" />
    <glyph glyph-name="uni04A2" unicode="&#x4a2;" horiz-adv-x="681" 
d="M603 639l-57 -442l-23 -197h-48l26 194l13 108l-185 2l-169 -2l-14 -105l-23 -197h-49l27 194l53 445h49l-38 -293l175 -2l179 2l35 293h49zM609 -115l-39 -5l9 120h-104l13 42h141z" />
    <glyph glyph-name="uni04A3" unicode="&#x4a3;" horiz-adv-x="578" 
d="M507 -99l-35 -5l7 104h-88l21 150l10 80l-288 -1l-10 -75l-18 -154h-46l21 150l41 344h46l-29 -223l144 -1l143 1l27 223h46l-44 -340l-14 -116h84z" />
    <glyph glyph-name="uni04A4" unicode="&#x4a4;" horiz-adv-x="816" 
d="M862 633l-9 -36l-257 1l-52 -401l-23 -197h-46l25 194l13 108l-181 1l-178 -1l-13 -105l-23 -197h-47l26 194l53 445h47l-37 -294l182 -1l176 1l35 294h305z" />
    <glyph glyph-name="uni04A5" unicode="&#x4a5;" horiz-adv-x="695" 
d="M713 490l-8 -35l-85 1h-125l-39 -302l-18 -154h-45l20 150l9 80l-145 1l-142 -1l-10 -76l-18 -154h-46l21 150l40 345h47l-29 -224l146 -1l141 1l26 224h256z" />
    <glyph glyph-name="uni04AA" unicode="&#x4aa;" horiz-adv-x="533" 
d="M462 630q42 -14 74 -40l-17 -44l-8 -1q-58 56 -143 56q-118 0 -183 -90t-65 -251q0 -108 44 -165.5t127 -57.5q44 0 89 16.5t85 47.5l8 -3l-10 -46q-90 -58 -178 -58q-104 0 -159.5 67.5t-55.5 191.5q0 121 36 209t104.5 135t163.5 47q46 0 88 -14zM286 21h47l-23 -156
l-39 -5z" />
    <glyph glyph-name="uni04AB" unicode="&#x4ab;" horiz-adv-x="444" 
d="M375 488q35 -10 61 -29l-15 -42l-7 -2q-23 21 -53.5 32.5t-65.5 11.5q-94 0 -145.5 -66.5t-51.5 -188.5q0 -81 35.5 -125t102.5 -44q36 0 74 13t70 36l6 -3l-9 -42q-54 -34 -108 -41l-18 -117l-37 -5l11 119q-84 3 -129.5 56t-45.5 148q0 142 66 220.5t186 78.5
q38 0 73 -10z" />
    <glyph glyph-name="uni04AE" unicode="&#x4ae;" horiz-adv-x="498" 
d="M264 239l-7 -48l-22 -191h-48l26 191l6 47l-142 401h53l7 -31l109 -312h6l200 311l16 32h54z" />
    <glyph glyph-name="uni04AF" unicode="&#x4af;" horiz-adv-x="412" 
d="M215 180l-5 -34l-18 -146h-45l21 146l4 35l-121 313h51l6 -24l90 -235h5l161 233l14 26h50z" />
    <glyph glyph-name="uni04B0" unicode="&#x4b0;" horiz-adv-x="486" 
d="M258 239l-7 -48l-22 -191h-48l26 191l6 47l-142 401h53l7 -31l109 -312h6l200 311l16 32h54zM389 194l-6 -32h-313l-3 4l7 32h312z" />
    <glyph glyph-name="uni04B1" unicode="&#x4b1;" horiz-adv-x="443" 
d="M333 152l2 -4l-5 -32h-108l-14 -116h-45l17 116h-108l-2 4l6 32h109l3 29l-121 313h51l6 -24l90 -235h5l161 233l14 26h50l-213 -314l-4 -28h106z" />
    <glyph glyph-name="uni04B2" unicode="&#x4b2;" horiz-adv-x="587" 
d="M470 42h61l-20 -157l-40 -5l9 120h-45l-18 44l-132 250l-195 -253l-28 -41h-54l253 329l-160 310h59l17 -43l120 -232l177 230l29 45h55l-235 -310z" />
    <glyph glyph-name="uni04B3" unicode="&#x4b3;" horiz-adv-x="491" 
d="M385 40h56l-17 -139l-38 -4l7 103h-40l-16 36l-105 185l-155 -187l-23 -34h-51l205 255l-134 239h57l14 -35l98 -171l140 170l23 36h53l-192 -239z" />
    <glyph glyph-name="uni04B6" unicode="&#x4b6;" horiz-adv-x="588" 
d="M509 639l-56 -442l-22 -197h-49l26 194l12 101h-6q-82 -69 -172 -78q-82 0 -121.5 32t-39.5 100q0 9 2 33l31 257h48l-30 -247q-2 -20 -2 -28q0 -51 28 -77t81 -26q96 0 187 88l34 290h49zM516 -115l-39 -5l9 120h-104l13 42h141z" />
    <glyph glyph-name="uni04B7" unicode="&#x4b7;" horiz-adv-x="497" 
d="M425 -99l-35 -5l7 104h-87l19 150l9 75h-4q-68 -53 -140 -60q-68 0 -101.5 26t-33.5 79q0 8 2 26l23 199h48l-24 -189q-1 -7 -1 -19q0 -79 88 -79q76 0 148 63l27 224h48l-44 -341l-13 -116h82z" />
    <glyph glyph-name="uni04B8" unicode="&#x4b8;" horiz-adv-x="559" 
d="M512 639l-56 -442l-23 -197h-47l25 194l12 101h-5q-66 -55 -140 -72l-11 -92l-28 -2l-4 3l10 85h-2q-83 0 -122.5 32.5t-39.5 100.5q0 10 2 32l31 257h47l-31 -247q-2 -18 -2 -26q0 -52 28.5 -78.5t83.5 -26.5h11l24 203l28 2l4 -3l-24 -198q74 16 147 83l35 291h47z" />
    <glyph glyph-name="uni04B9" unicode="&#x4b9;" horiz-adv-x="478" 
d="M421 495l-44 -341l-17 -154h-46l20 150l9 75h-5q-54 -42 -111 -55l-8 -71l-26 -2l-3 3l8 65h-2q-69 0 -103 26t-34 80q0 7 2 25l23 199h46l-23 -189q-1 -7 -1 -20q0 -38 23 -58t67 -20h7l18 154l27 3l2 -4l-18 -149q59 10 116 60l27 223h46z" />
    <glyph glyph-name="uni04BA" unicode="&#x4ba;" horiz-adv-x="541" 
d="M444.5 387.5q36.5 -35.5 36.5 -108.5q0 -21 -3 -45l-27 -234h-47l29 226q3 21 3 40q0 113 -101 113q-91 0 -182 -85l-12 -97l-23 -197h-47l26 194l53 445h47l-37 -293h5q84 69 168 78q75 -1 111.5 -36.5z" />
    <glyph glyph-name="uni04BB" unicode="&#x4bb;" horiz-adv-x="554" 
d="M499 494l-44 -340l-18 -154h-46l21 150l10 80l-288 -1l-10 -75l-18 -154h-46l21 150l41 344h46l-29 -223l144 -1l143 1l27 223h46z" />
    <glyph glyph-name="uni04C0" unicode="&#x4c0;" horiz-adv-x="254" 
d="M146 197l-23 -197h-49l27 194l53 445h49z" />
    <glyph glyph-name="uni04C1" unicode="&#x4c1;" horiz-adv-x="786" 
d="M6 4l-1 7q166 163 308 330l-215 298h56l31 -51l180 -247v-5q-131 -159 -312 -342l-7 -2q-30 6 -40 12zM366 194l53 445h48l-55 -442l-24 -197h-47zM677 -4q-132 173 -228 342l-1 3l240 247l44 51h58l-290 -299q105 -174 227 -330v-6q-13 -6 -43 -12zM593 798
q-19 -40 -60 -62.5t-87 -22.5q-44 0 -78 21t-43 60l25 20h8q8 -31 35.5 -48t63.5 -17q35 0 66.5 17t47.5 48h8z" />
    <glyph glyph-name="uni04C2" unicode="&#x4c2;" horiz-adv-x="655" 
d="M503 654q-19 -40 -58 -62.5t-82 -22.5q-42 0 -73.5 21t-40.5 60l25 20h8q9 -31 34 -48t57 -17t61.5 17t45.5 48h8zM-1 4l-1 7q144 135 248 253l-175 231h53l26 -41l146 -189v-5q-94 -111 -250 -265l-6 -1q-26 4 -41 10zM296 150l41 345h47l-44 -341l-18 -154h-46zM553 -3
q-110 140 -185 264v4l191 189l36 41h56l-233 -232q84 -133 184 -253l1 -6q-18 -6 -43 -10z" />
    <glyph glyph-name="uni04CB" unicode="&#x4cb;" horiz-adv-x="546" 
d="M495 639l-57 -442l-22 -197h-84l-21 -123l-39 -5l21 170h81l20 152l12 101h-5q-80 -69 -166 -78q-79 0 -116.5 32t-37.5 99q0 10 2 34l31 257h47l-31 -247q-2 -18 -2 -27q0 -51 26.5 -77.5t78.5 -26.5q89 0 179 87l35 291h48z" />
    </font>
</defs>
</svg>
