<svg width="48" height="48" viewBox="0 0 48 48" fill="none" xmlns="http://www.w3.org/2000/svg">
<path d="M9 9L5 5V43L9 47H43V9H9Z" fill="white"/>
<path d="M43 1H9L5 5M5 5L9 9H43V47H9L5 43V5ZM12 5H41M3 15H7M3 21H7M3 27H7M3 33H7M3 39H7" stroke="#1F2937" stroke-width="2" stroke-linecap="round" stroke-linejoin="round"/>
<g clip-path="url(#clip0_1_2)">
<path d="M21.5912 37.9933C21.3849 37.9931 21.1816 37.9427 20.9979 37.846C20.8142 37.7494 20.6554 37.6093 20.5343 37.4372L15.3688 30.0657H12V27.3825H16.0352C16.2415 27.3823 16.4449 27.4326 16.6286 27.5292C16.8124 27.6259 16.9712 27.7662 17.092 27.9385L21.3132 33.9642L27.7543 18.7999C27.8563 18.5607 28.0237 18.3572 28.236 18.2143C28.4484 18.0715 28.6965 17.9954 28.9501 17.9954H37V20.687H29.8025L22.787 37.195C22.6945 37.4121 22.5481 37.6002 22.3626 37.7403C22.177 37.8804 21.9589 37.9677 21.7302 37.9933C21.6852 37.9933 21.6382 37.9933 21.5912 37.9933Z" fill="#1F2937"/>
</g>
<defs>
<clipPath id="clip0_1_2">
<rect width="25" height="20" fill="white" transform="translate(12 18)"/>
</clipPath>
</defs>
</svg>
