<svg xmlns="http://www.w3.org/2000/svg" viewBox="0 0 4680 3120"><defs><style>.cls-1,.cls-5{fill:#fff;}.cls-1{opacity:0;}.cls-2{fill:#ffba55;}.cls-3{fill:#4f9999;}.cls-4{fill:#84c5c8;}.cls-6{fill:#fe5a2c;}.cls-7{fill:#dd1f00;}.cls-8{fill:#fc3508;}.cls-9{fill:#911a20;}.cls-10{fill:#187eb2;}.cls-11{fill:#621112;}.cls-12{fill:#4cbfbc;}.cls-13{fill:#ffa992;}.cls-14{fill:#60eae3;}.cls-15{opacity:0.65;}.cls-16{fill:#10405f;}.cls-17{fill:#ff6440;}.cls-18{fill:#ffcac0;}</style></defs><title>04</title><g id="_04" data-name="04"><rect id="_04-2" data-name="04" class="cls-1" width="4680" height="3120"/><path class="cls-2" d="M3328.77,1306.58c-91.7-58.48-206.21-62.63-313.53-80.28s-223.88-60.14-270.25-158.52c-37.27-79-18.6-171.44-17.89-258.83.92-114.21-33.39-232.31-112.75-314.45-122.43-126.71-325.49-141.6-494-90.05-195.28,59.74-361.52,194.87-485.94,356.8s-228.1,339-300,530.16C1281.65,1432,1248,1584.75,1213.09,1731c-29,121.27-41.91,245.75-42.66,370.32a661.2,661.2,0,0,0,8.21,110.19c36.6,223.81,224.94,343.4,435.74,382.23,115.13,21.21,235.12,16.28,348.36-13.18,229.06-59.58,427.18-210,577.14-393.13,58.67-71.64,113.26-150.7,193.59-196.77,91-52.18,200.89-54.17,304.81-68.4,164.27-22.5,341.09-94.62,405.39-247.45C3497.85,1546,3446.59,1381.72,3328.77,1306.58Z"/><path d="M2099.35,1259.82c-1.18,1.37.81,3.37,2,2a64.13,64.13,0,0,1,91.39-5.77c1.34,1.21,3.34-.78,2-2A67,67,0,0,0,2099.35,1259.82Z"/><path d="M2289.38,1243.68a1.41,1.41,0,0,0,1.42,2.44c25.7-15.26,64.92-22.53,87.11,2.89,1.2,1.37,3.19-.63,2-2C2356.89,1220.66,2316.14,1227.8,2289.38,1243.68Z"/><path class="cls-3" d="M1321.16,1516.05c-96.77-51.65-217.67-14-270.05,84.15s-16.39,219.55,80.38,271.2c89.44,47.74,199.5,19.16,257-62.93l50.08-3.14-25.24-44.54C1447.08,1668.24,1409.39,1563.14,1321.16,1516.05Z"/><path class="cls-4" d="M1332,1487.36c-96.77-51.65-217.68-14-270,84.15s-16.4,219.54,80.37,271.19c89.44,47.75,199.5,19.17,257-62.92l50.08-3.15-25.24-44.53C1457.87,1639.54,1420.19,1534.45,1332,1487.36Z"/><polygon class="cls-5" points="1310.89 1593.66 1290.81 1574.69 1230.18 1638.87 1162.77 1581.28 1144.83 1602.28 1211.19 1658.97 1141.43 1732.79 1161.51 1751.76 1232.21 1676.93 1310.21 1743.55 1328.15 1722.55 1251.21 1656.83 1310.89 1593.66"/><path d="M2054.25,2277l-70.26,7.24c-98.32-93.9-252-104.46-360.41-19-118.87,93.71-138.2,267.4-43.17,387.94s268.44,142.29,387.31,48.58c109.87-86.62,134.69-241.56,62.78-359.71Z"/><path class="cls-6" d="M2024,2247.5l-70.27,7.25c-98.31-93.9-252-104.46-360.4-19-118.87,93.71-138.2,267.4-43.17,387.94s268.43,142.29,387.31,48.58c109.87-86.62,134.69-241.56,62.78-359.71Z"/><polygon class="cls-5" points="1888.47 2370.78 1762.79 2431.64 1716 2321.23 1680.91 2336.1 1728.44 2448.28 1618.33 2501.6 1634.94 2535.91 1743.34 2483.41 1798.03 2612.46 1833.12 2597.59 1777.68 2466.78 1905.08 2405.09 1888.47 2370.78"/><path class="cls-7" d="M3088.88,1380.53c-47.61,43.92-54.06,116-17.8,168.45l-8.54,32,31.9-6.21c49.45,42.06,123.1,42,171.36-2.54,52.21-48.17,54.94-130.15,6.08-183.1S3141.09,1332.35,3088.88,1380.53Z"/><path class="cls-8" d="M3077.43,1364.31c-47.61,43.92-54.06,116-17.8,168.45l-8.54,32,31.9-6.21c49.45,42.06,123.1,42,171.36-2.54,52.21-48.17,54.93-130.15,6.08-183.1S3129.64,1316.13,3077.43,1364.31Z"/><polygon class="cls-5" points="3213.49 1405.77 3198.81 1395.54 3165.96 1442.64 3117.48 1412.33 3108 1427.49 3155.72 1457.34 3118.23 1511.09 3132.9 1521.33 3170.91 1466.83 3227.44 1502.18 3236.93 1487.02 3181.15 1452.14 3213.49 1405.77"/><rect class="cls-5" x="1788.55" y="653.85" width="47.88" height="47.88"/><rect class="cls-5" x="2231.26" y="1325.17" width="25.18" height="6.58"/><path class="cls-9" d="M2348.3,1075.73c-40.52-20.22-79.1-25.14-86.17-11s26.28,24,66.81,44.2,81,59.64,88.08,45.49S2388.83,1096,2348.3,1075.73Z"/><path class="cls-9" d="M2196.34,1048c-18.71,0-33.88,6.07-33.88,13.55s15.17,13.55,33.88,13.55,33.88-6.06,33.88-13.55S2215.05,1048,2196.34,1048Z"/><rect class="cls-5" x="3923.63" y="1650.29" width="91.77" height="91.77"/><rect class="cls-5" x="3704" y="1671.34" width="47.88" height="47.88"/><rect class="cls-5" x="1425.66" y="2025.2" width="91.77" height="91.77"/><rect class="cls-6" x="2847.88" y="725.16" width="91.77" height="91.77"/><rect class="cls-6" x="1418.24" y="360" width="91.77" height="91.77"/><rect class="cls-10" x="1333.04" y="2307.08" width="67.83" height="67.83"/><rect class="cls-2" x="3127.17" y="633.39" width="67.83" height="67.83"/><rect class="cls-2" x="1373.21" y="842.98" width="67.83" height="67.83"/><rect class="cls-5" x="1242.42" y="1978.46" width="47.88" height="47.88"/><rect class="cls-2" x="938.78" y="2201.42" width="47.88" height="47.88"/><rect class="cls-2" x="2740.81" y="2207.48" width="59.85" height="59.85"/><rect class="cls-5" x="2179.57" y="2173.49" width="103.74" height="103.74"/><rect class="cls-2" x="2501.56" y="2403.56" width="126.48" height="126.48"/><rect class="cls-2" x="664.6" y="1356.51" width="188.94" height="188.94"/><rect class="cls-6" x="3537.83" y="1165.22" width="188.94" height="188.94"/><rect class="cls-10" x="3099.17" y="2013.97" width="117.7" height="117.7"/><rect class="cls-5" x="3141.14" y="1688.72" width="89.77" height="89.77"/><rect class="cls-6" x="2954.46" y="2439.3" width="37.9" height="37.9"/><rect class="cls-2" x="2175.58" y="2566.49" width="37.9" height="37.9"/><rect class="cls-2" x="3151.11" y="976.52" width="47.88" height="47.88"/><rect class="cls-2" x="2794.08" y="382.03" width="47.88" height="47.88"/><rect class="cls-10" x="1021.13" y="1046.08" width="47.88" height="47.88"/><rect class="cls-2" x="3370.78" y="1878.82" width="47.88" height="47.88"/><rect class="cls-10" x="3471.15" y="723.48" width="47.88" height="47.88"/><path class="cls-11" d="M2139,1230.13a136.23,136.23,0,0,0-39.78,12.61l1.44,2.68a135.7,135.7,0,0,1,38.91-12.3c20.5-3.22,50.37-2.58,76.26,18.72l1.94-2.35C2191,1227.45,2160.16,1226.79,2139,1230.13Z"/><path class="cls-11" d="M2265.28,1248l1.84,2.42c25.91-19.66,55.81-20.25,76.33-17.28a143.94,143.94,0,0,1,38.93,11.36l1.36-2.73a147.31,147.31,0,0,0-39.76-11.63C2322.86,1227.1,2292.06,1227.7,2265.28,1248Z"/><path class="cls-11" d="M1565.85,1754a42.5,42.5,0,0,0,13.41,7.88q-2-6.67-4-13.36Z"/><path class="cls-11" d="M1660.2,1613.36c-3.49,9.9-15.4,14.81-23.28,20.59-10.08,7.4-16.79,16.84-14.14,29.91,1.35,6.69,6.27,14.25,3.61,21.19-1.3,3.38-3.4,3.46-6.69,2.56-4-1.08-7.61-2.45-11.81-2-15.19,1.47-23.26,17.76-23,31.5A89.64,89.64,0,0,0,1587,1733c1,4.79,2.81,10.18,2.45,15.11-.61,8.34-12.45.57-15.63-2.06-4.07-3.35-11.16-.34-9.43,5.48l14.73,49.43c2.07,6.93,13,4,10.88-3q-5.38-18-10.75-36.06a42.5,42.5,0,0,1-13.41-7.88l9.43-5.48q2,6.68,4,13.36a23.06,23.06,0,0,0,6.38,1.19,14.12,14.12,0,0,0,14.9-12.61c2.11-15.93-13.7-39.88,3.62-51.82,7.15-4.94,15.08,2.64,23,.29,7.1-2.11,10.59-9.49,11.14-16.36.7-8.82-5-16.36-4.94-25,.07-5.68,4.08-9.86,8.29-13.17,10.9-8.56,24.49-14,29.44-28.06C1673.49,1609.5,1662.6,1606.55,1660.2,1613.36Z"/><path class="cls-11" d="M1541.72,1688.32c-.11,0-.08.14,0,.29C1542,1688.16,1542.19,1688.17,1541.72,1688.32Z"/><path class="cls-11" d="M1588.1,1609.85c-1,5.71.62,14.72-3.37,19.46-2,2.4-5.49,2.38-8.35,2.64-4.11.38-8.21.86-11.78,3.1-5.76,3.6-8.06,9.89-8.54,16.39s1.8,13.11,1.09,19.57c-.43,3.84-3,12.17-7.63,9.55-3.25-1.85-5.74-4-9.78-3.5a10.39,10.39,0,0,0-7.74,5.77c-2.07,3.93-2.35,8.69-2.82,13a109.36,109.36,0,0,0-.6,15.14,119.85,119.85,0,0,0,5.21,31.33c2.12,6.92,13,4,10.88-3-4.66-15.25-7-33-3.46-48.74a10.64,10.64,0,0,1,.43-1.75l.11-.23c-.11-.15-.14-.26,0-.29.47-.15.28-.16,0,.29a18.09,18.09,0,0,0,3.31,2.41,13.14,13.14,0,0,0,8.29,1.41c5.13-.89,9-4.69,11.49-9.13a29.19,29.19,0,0,0,3.55-16.29c-.47-5.78-2-11.91-.73-17.69,1.49-6.74,8.38-5.82,13.87-6.63,6.09-.9,11.33-4,14.07-9.7,2.88-6,2.69-12.68,3.31-19.11.27-2.8,4.8-12.8,7.86-9,4.51,5.68,12.45-2.34,8-8C1605.42,1585.22,1590,1599.24,1588.1,1609.85Z"/><path class="cls-5" d="M2075.36,529.49c-43.09-8.81-82.51,21.74-94.1,78.38-11,54,11.41,96.66,54,105.37,41.17,8.42,81.58-17.23,94.15-78.65C2140.25,581.65,2119.4,538.5,2075.36,529.49Zm31.83,101.66c-8.29,40.5-33.84,70.3-66.87,63.54-32.8-6.71-44.48-44.67-36.69-82.79,8-39.18,32.45-70.86,66.92-63.81C2105.26,555.19,2114.44,595.68,2107.19,631.15Z"/><path class="cls-5" d="M2214,610.24c-32.08-6.56-62.6,13.4-71.37,56.28-8.28,40.5,10.7,70.86,42.05,77.28,28,5.72,61.92-8.85,71.61-56.24C2264.27,648.39,2247.24,617.05,2214,610.24ZM2234.55,684c-5.9,28.85-25.26,46.68-45.37,42.57-20.58-4.21-30.85-28.37-25.11-56.43,5-24.36,20.95-47.57,45.84-42.48S2239,662.24,2234.55,684Z"/><path class="cls-5" d="M2356.88,639.47c-18.91-3.87-34.45,2.61-46.26,16.46l-.48-.09,3.53-22.17-18.91-3.87c-2,12.28-4.24,25.61-7.59,42l-28.38,138.71,20.83,4.26,14.24-69.62.48.1c4.34,14.13,16.23,24.28,31.55,27.41,27.29,5.59,57.32-12,66.74-58C2400.59,675.72,2384.89,645.2,2356.88,639.47Zm14.47,71.91c-6,29.38-23,46.86-45.31,42.3-15.08-3.08-25.5-16.79-26-33.73a58.75,58.75,0,0,1,1-9.72l4.49-22a42.06,42.06,0,0,1,3.39-9.24c7.64-16.64,23.37-25.28,37.74-22.34C2368.89,661.23,2376.6,685.7,2371.35,711.38Z"/><path class="cls-5" d="M2420.05,691.55c-3.14,15.36,4.07,30.07,23.22,42.54,14.26,9.53,19,16.85,16.72,28-2.16,10.59-11.08,17.59-26.4,14.46-10.53-2.15-20.57-9.17-25.87-14.94l-8.89,16.65c7.05,7,18.08,12.8,30.77,15.4,27.52,5.63,46.57-7,51.17-29.52,3.9-19.06-4.12-32.29-22.49-44.87-13.78-9.44-19.75-15.62-17.58-26.21,1.94-9.53,10.51-16,23-13.5a42.93,42.93,0,0,1,22.18,12.25l8.73-15.86c-5.59-5.56-15.13-11.37-26.86-13.77C2442.82,657.05,2424.27,670.91,2420.05,691.55Z"/><polygon class="cls-5" points="2542.74 781.6 2555.14 786.08 2592.67 690.21 2575.16 683.88 2542.74 781.6"/><path class="cls-5" d="M2543,800.17c-6.21-2.24-12.66,1.36-15.28,8.62-2.55,7.05-.14,14.08,6.24,16.39,6.56,2.37,12.73-1.56,15.28-8.62C2551.9,809.3,2549.6,802.54,2543,800.17Z"/><path class="cls-11" d="M1952.08,921q-2.22-4.07-4.38-8.14c-1.81,2.7-3.6,5.4-5.36,8.14Z"/><path class="cls-11" d="M2029.42,830.67c-.79-4.4-6.56-5.13-9.42-2.49a479.17,479.17,0,0,0-72.3,84.63q2.16,4.08,4.38,8.14h-9.74c1.76-2.74,3.55-5.44,5.36-8.14a753.64,753.64,0,0,1-54.27-130.52c-2.13-6.91-13-4-10.87,3a768.68,768.68,0,0,0,59.78,141.35c2.11,3.86,7.53,3.44,9.74,0a467.25,467.25,0,0,1,68.27-83.25c-.61-3.23-1.21-6.48-1.8-9.72l9.42,2.49c-2.57,2.38-5.11,4.8-7.62,7.23a1207.75,1207.75,0,0,0,33.71,135.29c2.15,6.91,13,4,10.87-3A1210.18,1210.18,0,0,1,2029.42,830.67Z"/><path class="cls-11" d="M2018.55,833.67c.59,3.24,1.19,6.49,1.8,9.72,2.51-2.43,5.05-4.85,7.62-7.23Z"/><path class="cls-11" d="M1899.53,1026.69c-2.72-1.56-5.42-3.16-8.11-4.77q-.27,4.82-.37,9.64Z"/><path class="cls-11" d="M1970,1020a685.69,685.69,0,0,1-59.65-58.83c-2.88-3.22-8.34-1.44-9.43,2.48a275.78,275.78,0,0,0-9.54,58.24c2.69,1.61,5.39,3.21,8.11,4.77l-8.48,4.87q.1-4.83.37-9.64a423.25,423.25,0,0,1-60.25-43.81c-5.44-4.75-13.45,3.19-8,8a437.55,437.55,0,0,0,70.64,50.34,5.7,5.7,0,0,0,8.49-4.86,262.1,262.1,0,0,1,7-54.85q-3.46-3.75-6.87-7.54l9.43-2.49q-1.38,5-2.56,10a683.3,683.3,0,0,0,52.79,51.29C1967.51,1032.75,1975.52,1024.81,1970,1020Z"/><path class="cls-11" d="M1902.41,969.17q3.4,3.8,6.87,7.54,1.18-5,2.56-10Z"/><path class="cls-11" d="M2526.52,1056.78l-5.9,3.6c1.57,1.76,3.16,3.52,4.76,5.26Z"/><path class="cls-11" d="M2590.37,948.11a452,452,0,0,1-48,24.11c-16.27,7-33,12.38-49.79,17.82-6.17,2-12.5,5.71-12.57,13-.08,7.83,7.56,15.75,11.88,21.7a456.73,456.73,0,0,0,28.72,35.62l5.9-3.6-1.14,8.86c-1.6-1.74-3.19-3.5-4.76-5.26l-61.14,37.2c-6.19,3.76-.53,13.52,5.7,9.73l67-40.79a5.72,5.72,0,0,0,1.15-8.86,428.71,428.71,0,0,1-29.62-35.73q-3.69-5-7.24-10.09c-1.18-1.69-5.94-6.77-5.19-8.81.7-1.88,6.77-2.86,8.33-3.33q5.57-1.68,11.09-3.52a460.45,460.45,0,0,0,85.33-38.33C2602.34,954.22,2596.67,944.47,2590.37,948.11Z"/><path class="cls-11" d="M1602.37,1045.49h-61.52l-187.8,297.18v41.53h195.57V1511h53.75V1384.2h58.93v-49.41h-58.93Zm-53.75,133.91v155.39H1410.68v-1.43l103-158.26c11.66-21.48,22-41.53,35-68.74h1.94Q1548.63,1142.87,1548.62,1179.4Z"/><path class="cls-11" d="M2926.09,1740.59c-3.53-2-7.89-2.83-11.19-5.27-3.92-2.89-3-7.34-1.19-11.26,3.89-8.55,11.39-14.57,14.87-23.41,2.77-7.05,3.62-15.94-1.88-22-5.9-6.45-14.57-5.43-22.36-4.28-2.16.32-6.8,1.65-8.44-.35-2.76-3.36,4.87-12,6.6-14.55q4.88-7.14,9.73-14.29c3.28-4.82,7.94-10,9.53-15.68a11.17,11.17,0,0,0-5-12.81c-4.32-2.53-9.42-2.2-14.22-2.19a99.29,99.29,0,0,1-38.41-8c-6.69-2.79-9.6,8.12-3,10.88a109.28,109.28,0,0,0,30.08,7.72,147,147,0,0,0,15.13.57c.8,0,4-.21,4.54.57s-2.89,5.13-3.51,6.05c-6.36,9.35-13.23,18.52-19.11,28.19-4.37,7.18-6.48,17.35,1.49,23,6.34,4.49,13.92,1.92,21,1.28,2.55-.23,6.07-.58,7.87,1.68s.8,6.26,0,8.79c-4.51,14.17-25.79,27.38-15.09,44.13,2.45,3.85,6.25,6.18,10.35,7.94,3.83,1.65,8.53,2.86,10.46,7,4.73,10.05-5.57,20-11.89,26.38-5.12,5.15,2.85,13.13,8,8,7-7,14.31-14.86,15.83-25.09C2937.54,1754.48,2934.31,1745.31,2926.09,1740.59Z"/><path class="cls-11" d="M2982.17,1683.55a4.24,4.24,0,0,1-.11,1C2982.33,1684.79,2982.32,1686.71,2982.17,1683.55Z"/><path class="cls-11" d="M2988.7,1696.91c3.09-5.11,6.54-12.08,3.22-17.8-2.41-4.14-6.59-6.5-11-8.07-7.08-2.54-24-3.22-15.73-14.48,3.89-5.33,9.43-9,12.54-15,2.68-5.11,4.25-11.53,1.42-16.93a13.64,13.64,0,0,0-7.09-6.27c-3.66-1.49-7.66-.87-11.32-2.12-6.18-2.13-8.51-9.32-6.27-15,2.64-6.76-8.26-9.69-10.88-3-5.41,13.82,5.09,28.14,19,29.74,2.52.28,6.49,0,6.76,3.2.25,3.08-2.34,6.72-4.21,8.91-4.82,5.64-11.15,10.19-13.19,17.74a15.84,15.84,0,0,0,6.2,17.16c4.37,3.11,9.74,4.18,14.83,5.49a28.19,28.19,0,0,1,6.61,2.19,20.83,20.83,0,0,1,2.36,1.83s0,0,0,0a4.24,4.24,0,0,0,.11-1c.15,3.16.16,1.24-.11,1a17.33,17.33,0,0,1-.84,2.35c-2.69,6.92-8.36,12.28-11.31,19.11-4.23,9.79.47,24.2,10.1,27,.41-1.89.76-3.8,1-5.73l8.48,4.87a13.81,13.81,0,0,1-9.5.86,77.06,77.06,0,0,1-10.9,25.54c-4,6.09,5.77,11.75,9.73,5.69a88.06,88.06,0,0,0,13.46-37c.64-4.76-5.13-6.32-8.48-4.87-3.07,1.33-4.54-7.66-4.36-9.23C2980.12,1707.24,2985.72,1701.85,2988.7,1696.91Z"/><path class="cls-11" d="M2989.51,1732.14l-8.48-4.87c-.26,1.93-.61,3.84-1,5.73A13.81,13.81,0,0,0,2989.51,1732.14Z"/><path class="cls-11" d="M2820.58,1028.26h-61.52l-187.8,297.18V1367h195.57v126.75h53.75V1367h58.93v-49.41h-58.93Zm-53.75,133.91v155.39H2628.89v-1.43l103-158.25c11.66-21.49,22-41.54,35-68.75h2Q2766.83,1125.66,2766.83,1162.17Z"/><path class="cls-8" d="M2857.32,2076.65h-42.75l35.54-25.89c9.94-9.43,14.95-27.94,14.95-44.19a61.64,61.64,0,0,0-2-16.16l-93.44-367-66.22-110.23-320.53-65.64,1.31-4.52c.9-3.1,1.71-6.21,2.44-9.35,15.94-9.55,32.72-20.74,42.77-30.71,23.58-23.4,21.89-80.23,10.1-93.6-4.29-4.87-12.6-2.64-21.43,2.15l1.55-72.32c2.28-106.45-104.28-215-211.2-230.62-81.89-12-150.33,18.3-204.92,76.45-30.14,32.11-50.15,86.22-55.62,129.92-2.62,21-12.67,114.15,1.14,127.85l4.23,4.2c-10.69-4.53-22.26-7.16-27.81-.86-11.79,13.37-13.48,70.2,10.1,93.6,12.77,12.68,36.42,27.31,55.41,38.06-8.6,4.84-14.72,8.58-15,8.73h0l-215.59,86.92-50.53,40.11S1583.58,1867,1560.26,1996.15a53.28,53.28,0,0,0,24.39,54.51l41.52,26h-48.08a15,15,0,1,0,0,30H2857.32a15,15,0,1,0,0-30Zm-877.25-712.26v0Z"/><polygon points="2292.83 1500.25 2292.03 1500.75 2328.53 1559.56 2330.56 1636.63 2331.5 1636.61 2329.46 1559.28 2292.83 1500.25"/><polygon points="2333.5 1468.51 2387.44 1529.12 2387.44 1610.21 2388.38 1610.21 2388.38 1528.77 2334.2 1467.89 2333.5 1468.51"/><polygon points="2363.41 1451.54 2362.87 1452.31 2438.24 1504.81 2440.26 1606.15 2441.2 1606.13 2439.17 1504.32 2363.41 1451.54"/><path d="M2233.71,1391l32.9,25.55-4.61-60.28Zm1.33-.15,26.2-32.16,4.27,55.82Z"/><path d="M2342.32,1771.31l-.22-.06c-.78-.22-79.54-21-132.3,4.29-12.45,6-39.33,32-79.43,139-24,64-41.42,128.48-41,143.44.06,2.14.46,3.29,1.27,3.63,17,7.07,65.3,9.43,122.2,9.43,112.71,0,259-9.25,261.18-9.39l.68,0-132.26-290.12Zm-129.73,298.84c-56.64,0-104.75-2.35-121.62-9.38-.14-.06-.63-.44-.69-2.78-.39-14.87,17-79.23,41-143.09,40-106.74,66.63-132.6,78.95-138.52,19.78-9.49,43.24-12.45,64.85-12.45a291.16,291.16,0,0,1,66.6,8.17l131.6,288.68C2462.11,2061.48,2321.53,2070.15,2212.59,2070.15Z"/><path d="M2836.81,1844.89c-2.63.16-6.22,2.19-8.41,10.93-10.63,42.52-120.2,143.8-140.87,154.37a8.15,8.15,0,0,1-1.77.72h-.71l-2.53,0,2.35.94a1.29,1.29,0,0,0,.51.09,3,3,0,0,0,.49-.05c10.15,0,109.86-1,159.26-40.78,13-10.44,20.5-26.79,21.79-47.28,1-16.46-2-35.38-8.46-51.9C2851.93,1855.07,2843.44,1844.49,2836.81,1844.89Zm29.17,78.84c-1.27,20.22-8.69,36.33-21.44,46.6-46.55,37.51-138.17,40.38-156.33,40.57,10.18-5.38,42-32.48,73.77-64.76,22.44-22.81,61-64.83,67.33-90.09,1.62-6.48,4.23-10,7.55-10.22h.33c6.08,0,14.22,10.52,20.39,26.41C2864,1888.63,2867,1907.4,2866,1923.73Z"/><path class="cls-12" d="M2807.74,1624.25l-20.86-35a191.21,191.21,0,0,0-125.58-89.34l-228.79-47.22-85.78,103.57,35.93,205,149.91,276.54,82,35.84,223.09,5-2-1.78,6.7-4.91,43.1-31.64c9.6-9.18,14.44-27.2,14.44-43a60.86,60.86,0,0,0-1.89-15.74Z"/><polygon class="cls-12" points="2233.81 1617.89 2127.86 2064.17 2397.56 2064.17 2283.83 1615.26 2233.81 1617.89"/><path class="cls-12" d="M2040.93,1491l-208.3,84.62-48.82,39.06s-122,246.69-144.54,372.48a52,52,0,0,0,23.55,53.07l78.68,49.63s156.23-14.65,169.24-13,198.54-120.42,198.54-120.42l68.35-221.32S2125.55,1513.77,2040.93,1491Z"/><path class="cls-13" d="M2441.25,1318.49l-16.16-71.57a97.84,97.84,0,0,0-28.57-49.88l-11-10.29c-12.78-15.51-42.89-30.1-63-31.1l-79.86.1s-117.1,16.83-151.27,39.61-50.52,90.58-50.52,90.58l2.31,66.92a190.11,190.11,0,0,0,9.63,53.53l30.37,91.1C2265.5,1813.19,2412,1530,2412,1530l23.38-81.42a176.19,176.19,0,0,0,6.84-50.68Z"/><path d="M2176.66,1294.14c-6.63,0-12,14.33-12,32s5.37,32,12,32,12-14.33,12-32S2183.29,1294.14,2176.66,1294.14Z"/><path d="M2318.49,1289.36c-6.63,0-12,14.33-12,32s5.37,32,12,32,12-14.33,12-32S2325.12,1289.36,2318.49,1289.36Z"/><path class="cls-14" d="M2638.55,1514.55c-65.79,0-135.1-38.4-135.1-8.72s53.33,90.07,119.12,90.07,135.11,19.52,135.11-10.17S2704.34,1514.55,2638.55,1514.55Z"/><path class="cls-14" d="M1999.36,1532c-23.25-1.45-113.31,46.49-113.31,46.49,10.16,58.11,79.89,43.58,104.59,34.86S2022.6,1533.43,1999.36,1532Z"/><path class="cls-14" d="M1764,1717.93c-45,91.52-87.17,267.3-87.17,267.3,13.08,116.21,42.13-20.34,61-58.11s66.82-146.73,75.54-212.1S1809.05,1626.41,1764,1717.93Z"/><path class="cls-6" d="M2113.78,1176.77s-121.22,69.77-72.69,213.5c0,0,7.22-91.45,32-127.69s61-66.1,157.64-66.74,144.29,12.08,165.27,42,40.7,129.62,40.7,129.62,33.67-94-29.26-180.47S2113.78,1176.77,2113.78,1176.77Z"/><path class="cls-11" d="M2265.52,1025.63c-79.12-11.67-145.25,17.81-198,74.43-29.12,31.27-48.45,84-53.73,126.5-2.54,20.43-12.24,111.14,1.09,124.47l29.29,29.29,5-60.32s8.85-96.94,38.14-121.35,105.18-27.74,105.18-27.74l157.52,3.15a38.65,38.65,0,0,1,26.89,11.67l19.73,13.81a50.39,50.39,0,0,1,20.5,31.36l27.37,136.41,22.78-9.77,2.28-107.37C2471.78,1146.53,2368.83,1040.88,2265.52,1025.63Z"/><path class="cls-13" d="M1992.11,1354.29c-11.39,13-13,68.35,9.76,91.13s81.37,52.07,81.37,52.07,3.42-76.4-42.15-130.1C2041.09,1367.39,2003.5,1341.27,1992.11,1354.29Z"/><path class="cls-13" d="M2436.71,1344.52c-45.56,53.71-39.06,117.17-39.06,117.17s58.59-29.29,81.37-52.07,21.16-78.12,9.76-91.13S2436.71,1344.52,2436.71,1344.52Z"/><polygon class="cls-6" points="2021.42 1437.62 2035.39 1412 2014.43 1393.37 2021.42 1437.62"/><polygon class="cls-6" points="2475.01 1390.36 2475.89 1349.03 2457.43 1372.78 2475.01 1390.36"/><g class="cls-15"><circle class="cls-6" cx="2136.14" cy="1443.56" r="57.44"/></g><g class="cls-15"><circle class="cls-6" cx="2362.93" cy="1435.5" r="57.44" transform="translate(-369.47 1013.52) rotate(-22.5)"/></g><path class="cls-5" d="M2153.35,1247.26a81.2,81.2,0,1,0,81.19,81.2A81.28,81.28,0,0,0,2153.35,1247.26Zm0,155.82a74.62,74.62,0,1,1,74.62-74.62A74.71,74.71,0,0,1,2153.35,1403.08Z"/><path class="cls-5" d="M2334.35,1243a81.2,81.2,0,1,0,81.2,81.19A81.29,81.29,0,0,0,2334.35,1243Zm0,155.82a74.63,74.63,0,1,1,74.62-74.63A74.71,74.71,0,0,1,2334.35,1398.8Z"/><rect class="cls-5" x="2421.25" y="1320.4" width="6.58" height="30.27" transform="translate(-90.11 2492.5) rotate(-53.55)"/><rect class="cls-5" x="2032.76" y="1344.64" width="53.79" height="6.58" transform="translate(-337.22 1908.34) rotate(-46.36)"/><path class="cls-16" d="M1859.51,1623.27s54.49,206.17,60.58,308.84l6.1,102.66s57.4-21.65,43.66-67.49S1859.51,1623.27,1859.51,1623.27Z"/><path class="cls-16" d="M2547.35,1988.82c-13-1.63,56.63,58.71,56.63,58.71l29.3-110.66,35.8-247.35C2665.82,1697.65,2560.36,1990.45,2547.35,1988.82Z"/><path class="cls-16" d="M2085.47,2076l82.43,2s59.3-119.61,88.45-235.21-4-193-4-193Z"/><path class="cls-16" d="M2270.35,1834.79c29.15,115.6,88.45,235.21,88.45,235.21l82.42-2L2274.37,1641.8S2241.2,1719.2,2270.35,1834.79Z"/><path class="cls-16" d="M2807.74,1624.25s55.51,400.69-56,440.53a530.15,530.15,0,0,0,90.68,7.17l43.1-31.64c9.6-9.18,14.44-27.2,14.44-43a60.86,60.86,0,0,0-1.89-15.74Z"/><path class="cls-16" d="M2892.43,2065.51H1656.49a14.62,14.62,0,0,0,0,29.23H2892.43a14.62,14.62,0,1,0,0-29.23Z"/><path class="cls-16" d="M2477.15,1819s85,26.5,91.36-139.79C2568.51,1679.23,2506.38,1801.66,2477.15,1819Z"/><path class="cls-11" d="M2268.67,1467.65a29.67,29.67,0,0,0-24.83.47l-5.32,2.57-35.58,17.22,108.12-1.71-37.8-16.54Z"/><polygon class="cls-6" points="2241.3 1439.51 2262.83 1413.99 2240.09 1381.3 2241.3 1439.51"/><path class="cls-6" d="M2244.74,1495.09c-17.07-12.33-122.33-34.85-138.93-34.38s-64.88,30.27-64.88,30.27l9.87,111,209.61,83.46,3.79-42.68-12.33-70.18s9-37.47,13.28-50.27S2261.81,1507.42,2244.74,1495.09Z"/><path class="cls-13" d="M2251.87,1521.44a9.56,9.56,0,0,0,.57-3.25,9.73,9.73,0,0,0-8.14-9.58q-5.9-1-11.62-2.54a117.29,117.29,0,0,1-14.77-5,120.69,120.69,0,0,1-24-13.31l-52.07-9.76-61.84-3.26L2040.93,1491l-3.25,156.23,78.11,120.42,3.25,45.56-136.7,185.52-71.59,78.11,170.12-9.92,47-2.73,34.32-60.34s52.88-110.9,74-174.36c7.55-22.66,12.62-48.62,16-72.65a745.18,745.18,0,0,0,6.77-79.76c0-.37,0-.56,0-.56l-22.79-110.66Z"/><path class="cls-17" d="M2071,1512.69l2,103.61s7.66-56.39,7-81.36,23.45-56.79,23.45-56.79Z"/><path class="cls-17" d="M2115.68,1514.72l10.16,105.65s5.84-65.75,3.52-89.24,12.46-53.17,12.46-53.17Z"/><path class="cls-17" d="M2193.9,1487.73l-21.34,29,5.89,111.92C2175.36,1562.54,2193.9,1487.73,2193.9,1487.73Z"/><path class="cls-17" d="M2178.45,1628.67c.06,1.3.13,2.59.21,3.89Z"/><path class="cls-17" d="M2252.55,1525.7a9.79,9.79,0,0,0,.56-3.25c0-4.59,1.37-14.36-3.46-15.17-3.93-.66-6.74-3.82-10.55-4.85-.27,1-6.3,10-6.57,11.17,0,0-28.83,46-6.35,123.15.57,4,2.22,15.64,3.51,26,2.64,28.21,7.88,111.84-16.52,162.78-20.21,42.17-89.43,168.91-131.62,245.65l47-2.74,34.31-60.33s52.88-110.9,74-174.36c7.56-22.66,12.62-48.62,16-72.65,2.56-28.07,4.88-55.21,6.77-79.76,0-.37,0-.56,0-.56l-22.79-110.66Z"/><path class="cls-18" d="M2066,1631.15c-11.47,7.4,5,42,31.4,82.94s43.48,63.61,55,56.21,6.54-36.48-19.88-77.39S2077.46,1623.74,2066,1631.15Z"/><path class="cls-18" d="M2143.25,1824.52c-11.45-7.43-36.31,21.75-62.82,62.6s-117.56,152.6-106.11,160,113.27-95.86,139.78-136.71S2154.7,1832,2143.25,1824.52Z"/><path class="cls-5" d="M2243.84,1468.12l-5.32,2.57c7.65,1.93,19.07,2.8,34.74-1l-4.59-2A29.67,29.67,0,0,0,2243.84,1468.12Z"/><path class="cls-6" d="M2291.66,1495.94c-17.07,12.33-24.67,14.47-20.41,27.27s13.28,50.27,13.28,50.27l-12.33,70.19,3.8,42.67,209.6-83.46,9.87-111s-48.28-29.8-64.88-30.28S2308.73,1483.61,2291.66,1495.94Z"/><path class="cls-13" d="M2417.36,1814.05l3.26-45.57,78.11-120.42-3.26-156.23-39.06-16.27-61.83,3.26-52.08,9.76a121.16,121.16,0,0,1-24,13.32,119.42,119.42,0,0,1-14.77,5q-5.73,1.56-11.63,2.54A9.73,9.73,0,0,0,2284,1519a9.85,9.85,0,0,0,.56,3.26l15.66,44.39-22.78,110.66s0,.19,0,.56a743.67,743.67,0,0,0,6.76,79.76c3.38,24,8.45,50,16,72.65,21.16,63.46,74,174.37,74,174.37l34.31,60.33,47,2.73,170.13,9.92-71.6-78.11Z"/><path class="cls-17" d="M2456.36,1535.79c-.63,25,7,81.37,7,81.37l2-103.62-32.5-34.53S2457,1510.82,2456.36,1535.79Z"/><path class="cls-17" d="M2407.05,1532c-2.33,23.5,3.52,89.24,3.52,89.24l10.16-105.64-26.15-36.76S2409.38,1508.49,2407.05,1532Z"/><path class="cls-17" d="M2358,1629.52l-.2,3.89C2357.82,1632.12,2357.89,1630.82,2358,1629.52Z"/><path class="cls-17" d="M2342.51,1488.58s18.53,74.81,15.44,140.94l5.89-111.91Z"/><path class="cls-17" d="M2306.72,1663.59c1.28-10.35,2.93-22,3.5-26,22.49-77.11-6.35-123.15-6.35-123.15-.27-1.13-6.29-10.13-6.56-11.17-3.82,1-6.62,4.2-10.55,4.85-4.84.81-3.47,10.58-3.47,15.17a9.56,9.56,0,0,0,.57,3.25l15.66,44.4-22.78,110.66s0,.19,0,.56c1.89,24.56,4.21,51.69,6.77,79.76,3.38,24,8.45,50,16,72.65,21.16,63.46,74,174.36,74,174.36l34.32,60.34,47,2.73c-42.2-76.74-111.41-203.47-131.62-245.64C2298.83,1775.43,2304.07,1691.8,2306.72,1663.59Z"/><path class="cls-18" d="M2470.41,1632c-11.46-7.41-40,20.86-66.46,61.77s-31.35,70-19.88,77.38,28.52-15.3,54.94-56.21S2481.88,1639.41,2470.41,1632Z"/><path class="cls-18" d="M2393.15,1825.37c-11.45,7.43,2.64,45.08,29.16,85.93s128.33,144.13,139.78,136.7-79.6-119.18-106.11-160S2404.6,1817.94,2393.15,1825.37Z"/></g></svg>