<svg width="48" height="48" viewBox="0 0 48 48" fill="none" xmlns="http://www.w3.org/2000/svg">
<path d="M41 47L37 33L24 30L11 33L7 47H41ZM33 24.5L24 28L15 24.5V12.5L24 9L33 12.5V24.5Z" fill="white"/>
<path d="M41 47L37 33L24 30L11 33L7 47H41Z" fill="white"/>
<path d="M17.25 11.626L24 15H33V12.5L24 9L17.25 11.626Z" fill="#BBD8FF"/>
<path d="M33.934 32.292L24 47L14.066 32.292" stroke="#BBD8FF" stroke-width="2" stroke-linecap="round" stroke-linejoin="round"/>
<path d="M27 20V19M41 47L37 33L24 30L11 33L7 47H41ZM33 24.5L24 28L15 24.5V12.5L24 9L33 12.5V24.5ZM21 20V19V20Z" stroke="#1F2937" stroke-width="2" stroke-linecap="round" stroke-linejoin="round"/>
<path d="M17.25 11.626L24 15H33V13M28.906 31.132L24 39L19.094 31.132L24 30L28.906 31.132Z" stroke="#1F2937" stroke-width="2" stroke-linecap="round" stroke-linejoin="round"/>
<path d="M17.25 11.626L24 15H33V12.5L24 9L17.25 11.626ZM41 47L37 33L24 30L11 33L7 47H41Z" stroke="#1F2937" stroke-width="2" stroke-linecap="round" stroke-linejoin="round"/>
</svg>
