<svg width="48" height="48" viewBox="0 0 48 48" fill="none" xmlns="http://www.w3.org/2000/svg">
<path d="M24 46.5C36.4264 46.5 46.5 36.4264 46.5 24C46.5 11.5736 36.4264 1.5 24 1.5C11.5736 1.5 1.5 11.5736 1.5 24C1.5 36.4264 11.5736 46.5 24 46.5Z" fill="white"/>
<path d="M24.0001 36.924C18.7845 36.9211 13.7247 35.1455 9.6509 31.8887C5.5771 28.6318 2.73121 24.087 1.58014 19C0.847859 22.1595 0.808342 25.4401 1.4643 28.6163C2.12026 31.7925 3.45614 34.7891 5.38014 37.4L8.5 40.5L11.3481 43.066C14.8058 45.335 18.8108 46.6307 22.9423 46.817C27.0738 47.0032 31.1791 46.0731 34.8269 44.1244C38.4747 42.1757 41.5302 39.2803 43.6723 35.7426C45.8143 32.2049 46.9639 28.1555 47.0001 24.02C46.9949 22.3303 46.8003 20.6464 46.4201 19C45.2691 24.087 42.4232 28.6318 38.3494 31.8887C34.2756 35.1455 29.2158 36.9211 24.0001 36.924Z" fill="#DFF9FF"/>
<path d="M24 46.5C36.4264 46.5 46.5 36.4264 46.5 24C46.5 11.5736 36.4264 1.5 24 1.5C11.5736 1.5 1.5 11.5736 1.5 24C1.5 36.4264 11.5736 46.5 24 46.5Z" stroke="#1F2937" stroke-width="2" stroke-linecap="round" stroke-linejoin="round"/>
<path d="M30.01 35.486L34.876 15C34.918 14.8232 34.911 14.6383 34.8559 14.4652C34.8007 14.2921 34.6994 14.1373 34.5629 14.0174C34.4263 13.8975 34.2597 13.8171 34.0809 13.7848C33.9021 13.7525 33.7179 13.7695 33.548 13.834L8.548 23.366L19.5 26.5L30.01 35.486Z" fill="#DFF9FF" stroke="#1F2937" stroke-width="2" stroke-linecap="round" stroke-linejoin="round"/>
<path d="M16.188 25.552L17.5 35L24.364 30.66" fill="#DFF9FF"/>
<path d="M16.188 25.552L17.5 35L24.364 30.66" stroke="#1F2937" stroke-width="2" stroke-linecap="round" stroke-linejoin="round"/>
<path d="M19.5 26.5L26.5 22" stroke="#1F2937" stroke-width="2" stroke-linecap="round" stroke-linejoin="round"/>
</svg>
